<svg xmlns="http://www.w3.org/2000/svg" width="50" height="50" viewBox="0 0 50 50">
  <g id="foot_ico_sns_youtube" transform="translate(-721 -1742)">
    <rect id="사각형_414" data-name="사각형 414" width="50" height="50" rx="25" transform="translate(721 1742)" fill="#222"/>
    <g id="XMLID_184_" transform="translate(732 1753.454)">
      <path id="패스_14" data-name="패스 14" d="M27.664,6.654a3.551,3.551,0,0,0-2.5-2.515c-2.2-.593-11.038-.593-11.038-.593s-8.836,0-11.04.593a3.55,3.55,0,0,0-2.5,2.515A37.208,37.208,0,0,0,0,13.5a37.208,37.208,0,0,0,.591,6.845,3.551,3.551,0,0,0,2.5,2.515c2.2.593,11.038.593,11.038.593s8.836,0,11.04-.593a3.553,3.553,0,0,0,2.5-2.515,37.28,37.28,0,0,0,.59-6.845A37.208,37.208,0,0,0,27.664,6.654ZM11.239,17.7V9.3l7.384,4.2Z" transform="translate(0 0)" fill="#fff"/>
    </g>
  </g>
</svg>
