<svg width="17" height="16" viewBox="0 0 17 16" fill="none" xmlns="http://www.w3.org/2000/svg">
<mask id="path-1-inside-1_50_93420" fill="white">
<path d="M8.39844 14H3.39844C2.84615 14 2.39844 13.5523 2.39844 13L2.39844 3C2.39844 2.44771 2.84615 2 3.39844 2H8.39844L8.39844 14Z"/>
</mask>
<path d="M8.39844 15H3.39844C2.29387 15 1.39844 14.1046 1.39844 13H3.39844H8.39844V15ZM1.39844 3C1.39844 1.89543 2.29387 1 3.39844 1H8.39844V3H3.39844H1.39844ZM8.39844 2L8.39844 14L8.39844 2ZM3.39844 15C2.29387 15 1.39844 14.1046 1.39844 13L1.39844 3C1.39844 1.89543 2.29387 1 3.39844 1V3L3.39844 13V15Z" fill="#2D2D2D" mask="url(#path-1-inside-1_50_93420)"/>
<path d="M8.39844 15H3.39844C2.29387 15 1.39844 14.1046 1.39844 13H3.39844H8.39844V15ZM1.39844 3C1.39844 1.89543 2.29387 1 3.39844 1H8.39844V3H3.39844H1.39844ZM8.39844 2L8.39844 14L8.39844 2ZM3.39844 15C2.29387 15 1.39844 14.1046 1.39844 13L1.39844 3C1.39844 1.89543 2.29387 1 3.39844 1V3L3.39844 13V15Z" fill="black" fill-opacity="0.2" mask="url(#path-1-inside-1_50_93420)"/>
<path d="M8.39844 15H3.39844C2.29387 15 1.39844 14.1046 1.39844 13H3.39844H8.39844V15ZM1.39844 3C1.39844 1.89543 2.29387 1 3.39844 1H8.39844V3H3.39844H1.39844ZM8.39844 2L8.39844 14L8.39844 2ZM3.39844 15C2.29387 15 1.39844 14.1046 1.39844 13L1.39844 3C1.39844 1.89543 2.29387 1 3.39844 1V3L3.39844 13V15Z" fill="black" fill-opacity="0.2" mask="url(#path-1-inside-1_50_93420)"/>
<line x1="5.39844" y1="8" x2="13.3984" y2="8" stroke="#2D2D2D"/>
<line x1="5.39844" y1="8" x2="13.3984" y2="8" stroke="black" stroke-opacity="0.2"/>
<line x1="5.39844" y1="8" x2="13.3984" y2="8" stroke="black" stroke-opacity="0.2"/>
<path d="M10.8984 5.5L13.3984 8L10.8984 10.5" stroke="#2D2D2D" stroke-width="0.95"/>
<path d="M10.8984 5.5L13.3984 8L10.8984 10.5" stroke="black" stroke-opacity="0.2" stroke-width="0.95"/>
<path d="M10.8984 5.5L13.3984 8L10.8984 10.5" stroke="black" stroke-opacity="0.2" stroke-width="0.95"/>
</svg>
