<svg xmlns="http://www.w3.org/2000/svg" width="16" height="16" viewBox="0 0 16 16">
  <g id="그룹_656" data-name="그룹 656" transform="translate(995 325)">
    <rect id="사각형_576" data-name="사각형 576" width="16" height="16" transform="translate(-995 -325)" fill="none"/>
    <path id="free-icon-font-globe-3917538" d="M6,0a6,6,0,1,0,6,6A6,6,0,0,0,6,0Zm4.323,3.5H8.713A9.838,9.838,0,0,0,7.3,1.178,5.016,5.016,0,0,1,10.323,3.5ZM8.25,6a5.106,5.106,0,0,1-.238,1.5H3.988A5.106,5.106,0,0,1,3.75,6a5.106,5.106,0,0,1,.238-1.5H8.012A5.105,5.105,0,0,1,8.25,6ZM4.389,8.5H7.611A9.807,9.807,0,0,1,6,10.794,9.785,9.785,0,0,1,4.389,8.5Zm0-5A9.807,9.807,0,0,1,6,1.206,9.785,9.785,0,0,1,7.611,3.5ZM4.7,1.178A9.838,9.838,0,0,0,3.287,3.5H1.676A5.016,5.016,0,0,1,4.7,1.178ZM1.23,4.5H2.95A6.008,6.008,0,0,0,2.75,6a6.008,6.008,0,0,0,.2,1.5H1.23a5,5,0,0,1,0-3Zm.446,4H3.287A9.838,9.838,0,0,0,4.7,10.822,5.015,5.015,0,0,1,1.676,8.5ZM7.3,10.822A9.838,9.838,0,0,0,8.713,8.5h1.611A5.016,5.016,0,0,1,7.3,10.822ZM10.769,7.5H9.05A6.008,6.008,0,0,0,9.25,6a6.008,6.008,0,0,0-.2-1.5h1.718a5,5,0,0,1,0,3Z" transform="translate(-993 -323)"/>
  </g>
</svg>
