<svg width="20" height="20" viewBox="0 0 20 20" fill="none" xmlns="http://www.w3.org/2000/svg">
<path d="M17.2998 7.7002V16C17.2998 16.718 16.718 17.2998 16 17.2998H4C3.28203 17.2998 2.7002 16.718 2.7002 16V7.7002H17.2998Z" stroke="#2D2D2D" stroke-width="1.4"/>
<path d="M17.2998 7.7002V16C17.2998 16.718 16.718 17.2998 16 17.2998H4C3.28203 17.2998 2.7002 16.718 2.7002 16V7.7002H17.2998Z" stroke="black" stroke-opacity="0.2" stroke-width="1.4"/>
<path d="M17.2998 7.7002V16C17.2998 16.718 16.718 17.2998 16 17.2998H4C3.28203 17.2998 2.7002 16.718 2.7002 16V7.7002H17.2998Z" stroke="black" stroke-opacity="0.2" stroke-width="1.4"/>
<rect x="5.70312" y="11.5996" width="1.8" height="1.8" rx="0.9" fill="#2D2D2D"/>
<rect x="5.70312" y="11.5996" width="1.8" height="1.8" rx="0.9" fill="black" fill-opacity="0.2"/>
<rect x="5.70312" y="11.5996" width="1.8" height="1.8" rx="0.9" fill="black" fill-opacity="0.2"/>
<rect x="9.10156" y="11.5996" width="1.8" height="1.8" rx="0.9" fill="#2D2D2D"/>
<rect x="9.10156" y="11.5996" width="1.8" height="1.8" rx="0.9" fill="black" fill-opacity="0.2"/>
<rect x="9.10156" y="11.5996" width="1.8" height="1.8" rx="0.9" fill="black" fill-opacity="0.2"/>
<rect x="12.5" y="11.5996" width="1.8" height="1.8" rx="0.9" fill="#2D2D2D"/>
<rect x="12.5" y="11.5996" width="1.8" height="1.8" rx="0.9" fill="black" fill-opacity="0.2"/>
<rect x="12.5" y="11.5996" width="1.8" height="1.8" rx="0.9" fill="black" fill-opacity="0.2"/>
<rect x="6.35" y="2.35" width="0.7" height="1.3" rx="0.35" stroke="#2D2D2D" stroke-width="0.7"/>
<rect x="6.35" y="2.35" width="0.7" height="1.3" rx="0.35" stroke="black" stroke-opacity="0.2" stroke-width="0.7"/>
<rect x="6.35" y="2.35" width="0.7" height="1.3" rx="0.35" stroke="black" stroke-opacity="0.2" stroke-width="0.7"/>
<rect x="12.9516" y="2.35" width="0.7" height="1.3" rx="0.35" stroke="#2D2D2D" stroke-width="0.7"/>
<rect x="12.9516" y="2.35" width="0.7" height="1.3" rx="0.35" stroke="black" stroke-opacity="0.2" stroke-width="0.7"/>
<rect x="12.9516" y="2.35" width="0.7" height="1.3" rx="0.35" stroke="black" stroke-opacity="0.2" stroke-width="0.7"/>
<mask id="path-7-inside-1_50_93787" fill="white">
<path d="M2 5C2 3.89543 2.89543 3 4 3H16C17.1046 3 18 3.89543 18 5V8H2V5Z"/>
</mask>
<path d="M0.6 5C0.6 3.12223 2.12223 1.6 4 1.6H16C17.8778 1.6 19.4 3.12223 19.4 5H16.6C16.6 4.66863 16.3314 4.4 16 4.4H4C3.66863 4.4 3.4 4.66863 3.4 5H0.6ZM18 8H2H18ZM0.6 8V5C0.6 3.12223 2.12223 1.6 4 1.6V4.4C3.66863 4.4 3.4 4.66863 3.4 5V8H0.6ZM16 1.6C17.8778 1.6 19.4 3.12223 19.4 5V8H16.6V5C16.6 4.66863 16.3314 4.4 16 4.4V1.6Z" fill="#2D2D2D" mask="url(#path-7-inside-1_50_93787)"/>
<path d="M0.6 5C0.6 3.12223 2.12223 1.6 4 1.6H16C17.8778 1.6 19.4 3.12223 19.4 5H16.6C16.6 4.66863 16.3314 4.4 16 4.4H4C3.66863 4.4 3.4 4.66863 3.4 5H0.6ZM18 8H2H18ZM0.6 8V5C0.6 3.12223 2.12223 1.6 4 1.6V4.4C3.66863 4.4 3.4 4.66863 3.4 5V8H0.6ZM16 1.6C17.8778 1.6 19.4 3.12223 19.4 5V8H16.6V5C16.6 4.66863 16.3314 4.4 16 4.4V1.6Z" fill="black" fill-opacity="0.2" mask="url(#path-7-inside-1_50_93787)"/>
<path d="M0.6 5C0.6 3.12223 2.12223 1.6 4 1.6H16C17.8778 1.6 19.4 3.12223 19.4 5H16.6C16.6 4.66863 16.3314 4.4 16 4.4H4C3.66863 4.4 3.4 4.66863 3.4 5H0.6ZM18 8H2H18ZM0.6 8V5C0.6 3.12223 2.12223 1.6 4 1.6V4.4C3.66863 4.4 3.4 4.66863 3.4 5V8H0.6ZM16 1.6C17.8778 1.6 19.4 3.12223 19.4 5V8H16.6V5C16.6 4.66863 16.3314 4.4 16 4.4V1.6Z" fill="black" fill-opacity="0.2" mask="url(#path-7-inside-1_50_93787)"/>
</svg>
