<svg xmlns="http://www.w3.org/2000/svg" width="242" height="88" viewBox="0 0 242 88">
    <g fill="none" fill-rule="evenodd">
        <g fill-rule="nonzero">
            <g>
                <g>
                    <path fill="#F55500" d="M238.4 15.007c-.046-1.445-.42-2.537-1.119-3.278-.688-.704-1.572-1.056-2.65-1.056-1.079 0-1.963.352-2.651 1.056-.677.74-1.05 1.833-1.117 3.278h7.538zm-7.537 3.038c0 1.485.412 2.612 1.239 3.385.768.783 1.777 1.175 3.028 1.175 1.459 0 2.76-.6 3.908-1.8l2.598 2.294c-1.826 2-3.97 2.988-6.437 2.963-.942 0-1.86-.141-2.754-.424-.449-.154-.884-.36-1.308-.621-.449-.225-.867-.502-1.257-.834-.758-.686-1.372-1.643-1.843-2.873-.516-1.181-.774-2.719-.774-4.61 0-1.82.224-3.334.67-4.54.45-1.228 1.022-2.199 1.721-2.907.713-.722 1.511-1.242 2.395-1.562.871-.317 1.733-.477 2.582-.477 2.043.024 3.77.716 5.18 2.076 1.435 1.385 2.165 3.291 2.189 5.717v3.038h-11.137zM218.734 0h3.6v21.12c0 .84.448 1.26 1.348 1.26h1.245v3.46h-1.604c-1.312 0-2.393-.336-3.244-1.004-.896-.681-1.345-1.826-1.345-3.433V0zm-19.579 7.439h3.6v10.978c0 1.245.339 2.216 1.02 2.914.667.7 1.518 1.05 2.556 1.05 1.036 0 1.883-.35 2.541-1.05.667-.698 1.002-1.67 1.002-2.914V7.44h3.6v18.4h-3.6v-1.967h-.07c-1.185 1.46-2.733 2.19-4.643 2.19-1.484-.022-2.825-.576-4.021-1.662-1.3-1.063-1.963-2.63-1.985-4.708V7.439zM179.575 0h3.6v9.393h.07c1.186-1.453 2.735-2.179 4.661-2.179 1.483 0 2.842.538 4.073 1.612 1.218 1.087 1.856 2.683 1.915 4.785V25.84h-3.6V14.873c0-1.29-.334-2.272-1-2.947-.659-.686-1.504-1.028-2.542-1.028-1.038 0-1.889.342-2.557 1.028-.68.675-1.02 1.656-1.02 2.947V25.84h-3.6V0zm-2.981 22.89c-.782.917-1.702 1.663-2.76 2.24-1.059.599-2.284.91-3.675.932-2.112 0-3.967-.738-5.563-2.215-1.656-1.479-2.505-3.872-2.552-7.181.047-3.347.898-5.77 2.552-7.271 1.598-1.479 3.453-2.205 5.567-2.18 1.392.023 2.614.317 3.673.883 1.056.577 1.976 1.35 2.758 2.316l-2.657 2.424c-.908-1.246-2.12-1.896-3.638-1.94-3.057-.049-4.609 1.875-4.655 5.768.046 3.868 1.598 5.773 4.655 5.715 1.518-.025 2.73-.666 3.638-1.924l2.657 2.433zm-30.156-2.666c1.463 1.588 3.35 2.381 5.661 2.381 1.036 0 1.883-.208 2.54-.623.655-.413.982-.993.982-1.738 0-.663-.195-1.125-.587-1.385-.402-.274-.938-.421-1.604-.444l-3.175-.285c-1.507-.141-2.732-.661-3.675-1.562-.968-.876-1.46-2.1-1.484-3.673.024-1.894.672-3.314 1.95-4.26 1.24-.948 2.815-1.42 4.724-1.42.829 0 1.57.052 2.224.157.657.12 1.272.283 1.847.493 1.103.462 2.092 1.08 2.965 1.86l-2.226 2.67c-.69-.514-1.42-.939-2.191-1.275-.76-.297-1.634-.447-2.623-.447-1.127 0-1.915.207-2.364.621-.471.415-.707.95-.707 1.6-.024.415.154.778.534 1.083.345.344.953.564 1.83.66l2.968.23c1.863.142 3.21.722 4.038 1.742.77.995 1.156 2.258 1.156 3.785-.025 1.79-.731 3.17-2.12 4.141-1.38.995-3.145 1.505-5.294 1.527-2.92 0-5.545-1.092-7.88-3.28l2.511-2.558zM126.321 0h3.6v9.393h.068c1.187-1.453 2.74-2.179 4.662-2.179 1.48 0 2.842.538 4.073 1.612 1.216 1.087 1.858 2.683 1.915 4.785V25.84h-3.6V14.873c0-1.29-.332-2.272-1-2.947-.659-.686-1.504-1.028-2.542-1.028-1.036 0-1.889.342-2.557 1.028-.68.675-1.02 1.656-1.02 2.947V25.84h-3.6V0zm-2.982 22.89c-.782.917-1.702 1.663-2.76 2.24-1.059.599-2.284.91-3.675.932-2.112 0-3.967-.738-5.564-2.215-1.653-1.479-2.504-3.872-2.549-7.181.045-3.347.896-5.77 2.55-7.271 1.598-1.479 3.453-2.205 5.567-2.18 1.391.023 2.614.317 3.673.883 1.056.577 1.976 1.35 2.758 2.316l-2.657 2.424c-.908-1.246-2.12-1.896-3.638-1.94-3.057-.049-4.609 1.875-4.655 5.768.046 3.868 1.598 5.773 4.655 5.715 1.517-.025 2.73-.666 3.638-1.924l2.657 2.433zm-21.155-6.224c0-1.317-.057-2.28-.171-2.885-.116-.58-.351-1.093-.707-1.532-.264-.414-.654-.74-1.17-.979-.493-.249-1.066-.372-1.72-.372-.61 0-1.17.123-1.686.372-.496.239-.896.565-1.207.98-.309.438-.532.95-.67 1.53-.138.606-.207 1.556-.207 2.85 0 1.282.069 2.218.207 2.813.138.603.361 1.14.67 1.6.31.358.711.672 1.207.945.516.261 1.076.393 1.686.393.654 0 1.227-.132 1.72-.393.516-.273.906-.587 1.17-.945.356-.46.591-.997.707-1.6.114-.595.17-1.52.17-2.777zm-11.138-.037c0-1.942.157-3.435.465-4.477.321-1.02.815-1.877 1.481-2.577.494-.611 1.182-1.157 2.066-1.639.871-.459 1.99-.7 3.356-.722 1.411.024 2.555.265 3.426.726.862.486 1.526 1.036 1.997 1.65.711.697 1.217 1.555 1.515 2.57.287 1.042.431 2.531.431 4.47 0 1.94-.144 3.416-.43 4.434-.3 1.015-.805 1.897-1.516 2.642-.23.27-.51.538-.843.797-.299.295-.682.55-1.154.762-.871.508-2.013.775-3.424.797-1.367-.022-2.487-.289-3.358-.797-.884-.46-1.572-.98-2.066-1.561-.666-.743-1.16-1.625-1.48-2.64-.31-1.018-.466-2.495-.466-4.435zM72.336 0h3.6v9.393h.069c1.186-1.453 2.74-2.179 4.662-2.179 1.482 0 2.841.538 4.072 1.612 1.219 1.087 1.859 2.683 1.916 4.785V25.84h-3.6V14.873c0-1.29-.333-2.272-1.001-2.947-.658-.686-1.503-1.028-2.541-1.028-1.036 0-1.89.342-2.557 1.028-.68.675-1.02 1.656-1.02 2.947V25.84h-3.6V0zM52.758 0h3.6v9.393h.069c1.186-1.453 2.74-2.179 4.662-2.179 1.482 0 2.841.538 4.072 1.612 1.219 1.087 1.859 2.683 1.916 4.785V25.84h-3.6V14.873c0-1.29-.333-2.272-1.001-2.947-.658-.686-1.503-1.028-2.541-1.028-1.036 0-1.89.342-2.558 1.028-.68.675-1.02 1.656-1.02 2.947V25.84h-3.599V0zm-2.981 22.89c-.782.917-1.703 1.663-2.76 2.24-1.06.599-2.284.91-3.675.932-2.113 0-3.967-.738-5.564-2.215-1.653-1.479-2.505-3.872-2.55-7.181.045-3.347.897-5.77 2.55-7.271 1.599-1.479 3.453-2.205 5.568-2.18 1.391.023 2.614.317 3.672.883 1.056.577 1.977 1.35 2.759 2.316l-2.657 2.424c-.908-1.246-2.12-1.896-3.636-1.94-3.06-.049-4.611 1.875-4.658 5.768.047 3.868 1.599 5.773 4.656 5.715 1.517-.025 2.73-.666 3.638-1.924l2.657 2.433zM27.75 18.045h-4.306c-2.093.049-3.126.791-3.102 2.226 0 .629.268 1.165.808 1.604.518.485 1.373.73 2.568.73 1.505.022 2.567-.162 3.189-.552.563-.393.843-1.283.843-2.67v-1.338zm0 6.183h-.067c-.333.623-.85 1.082-1.548 1.377-.689.306-1.641.457-2.856.457-1.995-.022-3.53-.566-4.609-1.628-1.135-1.04-1.702-2.369-1.702-3.987 0-1.548.491-2.83 1.479-3.846.985-1.04 2.429-1.57 4.334-1.594h4.969v-1.953c.024-1.634-1.197-2.43-3.665-2.38-.893 0-1.598.095-2.116.285-.538.226-.963.609-1.272 1.147l-2.823-2.224c1.365-1.826 3.38-2.716 6.04-2.668 2.25-.024 4.045.413 5.388 1.311 1.342.92 2.025 2.504 2.047 4.75V25.84h-3.6v-1.612zM0 0h16.045v3.684H3.792v7.637h10.46v3.455H3.791V25.84H0V0zM144.886 44.98c-.85 0-1.497.145-1.944.445-.496.321-.856.758-1.085 1.316-.218.559-.362 1.162-.43 1.817-.07.698-.104 1.418-.104 2.152 0 .702.035 1.384.103 2.048.07.7.213 1.33.431 1.885.229.536.59.975 1.085 1.32.447.333 1.094.498 1.944.498.848 0 1.52-.178 2.013-.534.494-.346.832-.795 1.016-1.355.23-.556.384-1.181.465-1.87.023-.675.033-1.34.033-1.992 0-.71-.01-1.393-.033-2.047-.08-.651-.234-1.258-.465-1.814-.184-.559-.522-1.01-1.016-1.354-.493-.344-1.165-.515-2.013-.515zm3.527 13.031c-1.182 1.376-2.722 2.088-4.623 2.134-1.079-.026-2.001-.255-2.768-.694-.803-.427-1.473-.993-2.011-1.703-.494-.58-.82-1.365-.982-2.359-.194-.946-.291-2.51-.291-4.687 0-2.213.097-3.785.291-4.72.162-.948.488-1.71.982-2.291 1.007-1.537 2.602-2.336 4.779-2.395.914 0 1.764.192 2.545.582.722.411 1.414.94 2.078 1.586v-9.382H152v25.839h-3.587v-1.91zm-30.177-16.49h3.585v1.95h.069c1.18-1.451 2.727-2.175 4.641-2.175 1.48 0 2.833.536 4.059 1.612 1.214 1.088 1.849 2.682 1.908 4.784v12.229h-3.586V48.954c0-1.288-.333-2.271-.997-2.945-.658-.686-1.5-1.03-2.53-1.03-1.035 0-1.883.344-2.548 1.03-.678.674-1.016 1.657-1.016 2.945v10.967h-3.585v-18.4zm-19.503 0h3.586v10.978c0 1.244.338 2.217 1.015 2.913.666.7 1.514 1.05 2.548 1.05s1.875-.35 2.53-1.05c.664-.696.998-1.67.998-2.913V41.52h3.585v18.4h-3.585v-1.968h-.069c-1.181 1.463-2.723 2.193-4.625 2.193-1.479-.026-2.812-.578-4.006-1.663-1.295-1.064-1.952-2.631-1.977-4.709V41.52zm-31.07 0h3.592v1.95h.07c1.217-1.451 2.818-2.175 4.804-2.175 1.275.024 2.303.243 3.084.655.769.461 1.47 1.046 2.11 1.756 1.44-1.63 3.373-2.435 5.797-2.411 1.523 0 2.92.536 4.184 1.612 1.252 1.088 1.902 2.682 1.95 4.784v12.229h-3.59V48.954c0-1.288-.345-2.271-1.029-2.945-.686-.686-1.57-1.03-2.652-1.03-1.08 0-1.97.344-2.669 1.03-.71.674-1.064 1.657-1.064 2.945v10.967h-3.585V48.954c0-1.288-.342-2.271-1.026-2.945-.694-.686-1.582-1.03-2.663-1.03-1.078 0-1.96.344-2.644 1.03-.718.674-1.079 1.657-1.079 2.945v10.967h-3.59v-18.4zm-10.82-5.602h3.586v5.601h2.61v2.818h-2.61v10.754c-.024.937.399 1.394 1.27 1.37h1.34v3.459h-1.87c-1.258 0-2.29-.403-3.09-1.206-.825-.77-1.235-1.881-1.235-3.332V44.338h-1.797V41.52h1.797V35.92zm-16.17 5.601h3.586v1.95h.075c1.177-1.45 2.725-2.174 4.637-2.174 1.433.024 2.68.493 3.745 1.412l-2.612 3.196c-.757-.619-1.542-.924-2.355-.924-.919 0-1.704.305-2.355.922-.734.603-1.113 1.578-1.135 2.925v11.094h-3.585v-18.4zm-7.926 9.227c0-1.32-.057-2.278-.172-2.885-.114-.58-.348-1.09-.702-1.53-.263-.416-.652-.742-1.166-.978-.492-.25-1.064-.374-1.716-.374-.605 0-1.165.125-1.679.374-.492.236-.89.562-1.2.979-.31.439-.532.949-.667 1.531-.138.605-.207 1.552-.207 2.846 0 1.283.069 2.221.207 2.814.135.605.358 1.14.667 1.602.31.354.708.672 1.2.943.514.26 1.074.392 1.68.392.65 0 1.223-.131 1.715-.392.514-.271.903-.589 1.166-.943.354-.463.588-.997.702-1.602.115-.593.172-1.519.172-2.777zm-11.094-.037c0-1.942.154-3.435.463-4.476.32-1.022.812-1.88 1.475-2.577.49-.611 1.176-1.158 2.058-1.639.868-.457 1.983-.698 3.342-.722 1.407.024 2.544.267 3.414.726.858.484 1.52 1.036 1.989 1.65.708.697 1.211 1.554 1.509 2.572.285 1.04.429 2.528.429 4.466 0 1.94-.144 3.417-.43 4.433-.297 1.017-.8 1.899-1.508 2.643-.23.274-.508.539-.84.8-.298.295-.68.548-1.15.76-.867.51-2.006.773-3.413.8-1.36-.027-2.474-.29-3.342-.8-.88-.46-1.566-.983-2.058-1.56-.663-.744-1.155-1.626-1.475-2.643-.31-1.016-.463-2.493-.463-4.433zM3.777 56.237h4.537c2.13 0 3.678-.755 4.639-2.258.425-.554.694-1.258.807-2.114.104-.84.156-2.41.156-4.723 0-2.247-.053-3.858-.156-4.829-.135-.97-.463-1.758-.979-2.362-1.054-1.503-2.543-2.232-4.467-2.185H3.777v18.47zM0 34.082h8.747c3.382.024 5.922 1.479 7.613 4.36.603.97.985 1.986 1.145 3.046.126 1.066.188 2.903.188 5.514 0 2.776-.097 4.714-.29 5.812-.094.556-.23 1.052-.414 1.487-.194.425-.429.87-.702 1.331-.73 1.216-1.748 2.22-3.05 3.012-1.292.852-2.876 1.277-4.75 1.277H0V34.082z" transform="translate(-120 -9942) translate(0 9353) translate(120 589.422)"/>
                    <path fill="#333" d="M242 81.883c0-1.106-.614-1.795-1.899-2.08l-.94-.208c-.757-.164-1.027-.509-1.027-1.078 0-.732.528-1.228 1.341-1.228.626 0 1.155.226 1.783.54l.413-.867c-.6-.361-1.427-.6-2.167-.6-1.484 0-2.525.943-2.525 2.29 0 1.032.626 1.795 1.797 2.05l.884.194c.813.18 1.17.553 1.17 1.226 0 .791-.572 1.288-1.444 1.288-.78 0-1.524-.241-2.25-.702l-.429.866c.728.461 1.711.748 2.61.748 1.598 0 2.683-.987 2.683-2.44zm-6.462-5.236h-1.782c0-.987.142-2.155.142-2.155l-1.169.27s-.116 1.168-.116 1.885h-.927v.883h.927v5.115c0 .75.187 1.226.685 1.482.272.135.557.21.927.21.5 0 .898-.104 1.256-.302l-.156-.745c-.201.105-.386.147-.7.147-.699 0-.914-.28-.914-1.103V77.53h1.484l.343-.883zm-4.935-.152s-.2-.075-.384-.075c-.728 0-1.484.482-1.996 1.245.042-.63-.23-1.212-.23-1.212l-1.112.312s.242.497.242 1.587v5.746h1.114V79.43c0-.615.085-.842.413-1.185.327-.342.756-.538 1.185-.538.113 0 .241.031.313.06l.455-1.273zm-7.574 3.443h-3.039l1.543-5.026 1.496 5.026zm2.555 4.16l-3.238-10.263h-1.526l-3.267 10.263h1.183l.941-3.157h3.653l.927 3.157h1.327zm-14.22-1.9s-.13.314-.43.537c-.454.345-.784.48-1.37.48-.654 0-1.097-.254-1.424-.867-.23-.434-.287-1.08-.287-1.947 0-1.047.116-1.585.458-2.155.299-.507.77-.779 1.327-.779.842 0 1.368.256 1.726.78v3.952zm1.34 1.9c-.157-.435-.214-1.122-.214-2.409v-8.32l-1.112-.192v3.127c0 .538.015 1.149.015 1.149-.43-.599-1.128-.944-1.927-.944-.513 0-.913.138-1.368.468-.97.702-1.47 1.868-1.47 3.455 0 2.38 1.055 3.77 2.895 3.77.827 0 1.37-.256 1.884-.867.015.389.156.763.156.763h1.14zm-8.188 0v-5.656c0-.301-.057-.599-.171-.867-.285-.658-.97-1.093-1.74-1.093-.756 0-1.498.372-2.238 1.152 0-.616-.258-1.166-.258-1.166l-1.083.314s.27.507.27 1.57v5.746h1.085v-5.55c.513-.572 1.397-1.047 1.968-1.047.327 0 .628.118.785.311.199.254.256.451.256 1.245v5.04h1.126zm-9.013-3.788l-.043 1.949c-.33.702-1 1.163-1.726 1.163-.813 0-1.227-.475-1.227-1.359 0-1.138.642-1.78 2.439-1.78.2 0 .372.015.557.027zm1.64 3.235c-.53-.3-.6-.613-.57-1.826l.056-2.454c.015-.676 0-1.24-.156-1.646-.3-.765-.984-1.166-1.968-1.166-1.029 0-2.04.343-2.982 1l.557.84c.455-.433 1.468-.882 2.266-.882.444 0 .728.131.958.401.199.241.227.51.227 1.17v.524s-.199-.017-.5-.017c-2.382 0-3.764.99-3.764 2.678 0 1.002.526 2.124 2.28 2.124.814 0 1.37-.283 2.056-1.001.128.523.483.926.97 1.09l.57-.835zm-10.982-1.662c0-1.106-.614-1.795-1.899-2.08l-.94-.208c-.757-.164-1.027-.509-1.027-1.078 0-.732.528-1.228 1.341-1.228.626 0 1.155.226 1.783.54l.413-.867c-.598-.361-1.425-.6-2.167-.6-1.484 0-2.525.943-2.525 2.29 0 1.032.626 1.795 1.797 2.05l.884.194c.813.18 1.169.553 1.169 1.226 0 .791-.571 1.288-1.44 1.288-.784 0-1.526-.241-2.253-.702l-.43.866c.728.461 1.712.748 2.61.748 1.598 0 2.684-.987 2.684-2.44zm-8.102-2.199h-3.253c.057-1.543.628-2.32 1.64-2.32.543 0 1.041.255 1.285.66.214.36.313.852.328 1.66zm1.183.881v-.164c0-1.778-.2-2.483-.813-3.14-.484-.523-1.155-.808-1.925-.808-.856 0-1.555.329-2.124 1.033-.6.746-.856 1.554-.856 2.811 0 2.469 1.183 3.965 3.15 3.965.913 0 1.769-.328 2.397-.927l-.427-.748c-.5.478-1.057.702-1.74.702-.713 0-1.37-.268-1.77-.912-.242-.388-.328-.929-.328-1.633v-.179h4.436zm-7.13 2.71l-.615-.748c-.412.524-.955.808-1.526.808-1.14 0-1.754-.912-1.754-2.59 0-1.09.128-1.912.4-2.436.256-.511.785-.842 1.34-.842.542 0 .855.167 1.355.599l.614-.804c-.514-.451-1.043-.809-1.941-.809-.756 0-1.368.285-1.925.867-.614.644-1.07 1.542-1.07 3.17 0 1.11.214 1.933.686 2.65.498.748 1.254 1.122 2.266 1.122.884 0 1.513-.283 2.17-.987zm-7.276.823v-5.656c0-.301-.057-.599-.17-.867-.285-.658-.97-1.093-1.74-1.093-.757 0-1.499.372-2.24 1.152 0-.615-.257-1.166-.257-1.166l-1.083.314s.27.507.27 1.57v5.746h1.084v-5.55c.512-.572 1.398-1.047 1.97-1.047.327 0 .625.118.784.311.2.254.256.451.256 1.245v5.04h1.126zm-8.7-4.414h-3.252c.057-1.543.628-2.32 1.639-2.32.544 0 1.042.255 1.286.66.214.36.313.852.327 1.66zm1.183.881v-.164c0-1.778-.199-2.483-.813-3.14-.483-.523-1.154-.808-1.925-.808-.855 0-1.555.329-2.124 1.033-.6.746-.855 1.554-.855 2.811 0 2.469 1.183 3.965 3.15 3.965.913 0 1.769-.328 2.395-.927l-.425-.748c-.5.478-1.057.702-1.74.702-.716 0-1.37-.268-1.77-.912-.242-.388-.328-.929-.328-1.633v-.179h4.435zm-7.915 3.533v-7.616l-1.154.194v7.422h1.154zm.313-9.758c0-.505-.384-.91-.872-.91-.481 0-.868.42-.868.929 0 .49.387.898.868.898.488 0 .872-.408.872-.917zm-3.366 8.935l-.612-.748c-.414.524-.959.808-1.526.808-1.142 0-1.754-.912-1.754-2.59 0-1.09.128-1.912.398-2.436.256-.511.785-.842 1.342-.842.54 0 .855.167 1.353.599l.614-.804c-.514-.451-1.04-.809-1.939-.809-.756 0-1.37.285-1.927.867-.612.644-1.069 1.542-1.069 3.17 0 1.11.213 1.933.685 2.65.5.748 1.256 1.122 2.268 1.122.885 0 1.513-.283 2.167-.987zm-6.888-2.08c0-.642-.242-1.332-.643-1.81-.398-.478-.855-.748-1.725-1.032l-1.127-.377c-1.154-.386-1.626-.85-1.626-1.672 0-1.047.728-1.694 1.954-1.694.841 0 1.44.227 2.382.871l.514-.885c-.927-.657-1.896-.985-2.953-.985-1.897 0-3.167 1.197-3.167 2.946 0 .659.215 1.228.614 1.675.386.42.856.63 1.74.914l.984.312c1.185.376 1.756 1.004 1.756 1.918 0 .598-.23 1.09-.7 1.465-.414.328-.815.449-1.554.449-.984 0-1.812-.269-2.625-.882l-.514.956c.97.63 1.968.927 3.139.927.898 0 1.555-.193 2.197-.627.87-.584 1.354-1.511 1.354-2.469zm-13.408 1.004s-.128.313-.425.536c-.459.345-.786.48-1.372.48-.656 0-1.097-.254-1.427-.867-.227-.434-.284-1.08-.284-1.947 0-1.047.114-1.585.46-2.154.296-.507.766-.78 1.322-.78.842 0 1.37.256 1.726.78v3.952zm1.342 1.899c-.155-.434-.216-1.122-.216-2.408v-8.32l-1.112-.193v3.127c0 .538.012 1.149.012 1.149-.425-.599-1.122-.944-1.923-.944-.514 0-.913.138-1.37.468-.97.702-1.468 1.868-1.468 3.455 0 2.38 1.055 3.77 2.895 3.77.827 0 1.37-.256 1.882-.867.015.389.155.763.155.763h1.144zm-9.044-4.414h-3.252c.057-1.543.628-2.32 1.64-2.32.543 0 1.041.255 1.285.66.214.36.313.852.327 1.66zm1.183.881v-.164c0-1.778-.199-2.483-.813-3.14-.483-.523-1.154-.808-1.925-.808-.855 0-1.555.329-2.124 1.033-.6.746-.855 1.554-.855 2.811 0 2.469 1.183 3.965 3.15 3.965.913 0 1.769-.328 2.397-.927l-.427-.748c-.5.478-1.057.702-1.74.702-.714 0-1.37-.268-1.769-.912-.243-.388-.329-.929-.329-1.633v-.179h4.435zm-7.915 3.533v-7.616l-1.154.194v7.422h1.154zm.313-9.758c0-.505-.384-.91-.87-.91-.483 0-.87.42-.87.929 0 .49.387.898.87.898.486 0 .87-.408.87-.917zm-3.394 9.743l-.228-.762s-.1.027-.142.027c-.313 0-.4-.162-.4-.746v-7.616c0-1.136-.186-1.768-.186-1.768l-1.111.227s.17.552.17 1.527v7.9c0 .538.114.852.342 1.062.215.21.5.313.841.313.301 0 .43-.03.714-.164zm-5.32-3.576c0 .836-.085 1.407-.298 1.883-.244.557-.842.93-1.499.93-.6 0-1.213-.344-1.74-.972V78.59c.541-.685 1.183-1.047 1.897-1.047.571 0 1.083.318 1.313.825.2.449.327 1.243.327 2.14zm1.183-.15c0-1.333-.256-2.243-.784-2.931-.456-.599-1.17-.931-1.897-.931-.784 0-1.512.376-2.095 1.095 0-.825-.071-1.137-.071-1.137l-1.143.208s.157.466.157 1.602v8.947l1.113-.226v-3.562c.498.539 1.226.869 1.954.869.927 0 1.683-.492 2.197-1.359.399-.69.57-1.377.57-2.574zm-9.256.15c0 .836-.086 1.407-.3 1.883-.241.557-.84.93-1.497.93-.598 0-1.212-.344-1.74-.972V78.59c.543-.685 1.185-1.047 1.896-1.047.571 0 1.086.318 1.313.825.2.449.328 1.243.328 2.14zm1.185-.15c0-1.333-.259-2.243-.785-2.931-.457-.599-1.17-.931-1.896-.931-.785 0-1.513.376-2.098 1.095 0-.825-.071-1.137-.071-1.137l-1.14.208s.156.466.156 1.602v8.947l1.112-.226v-3.562c.5.539 1.228.869 1.953.869.93 0 1.683-.492 2.197-1.359.4-.69.572-1.377.572-2.574zm-9.928-.42h-3.039l1.541-5.025 1.498 5.026zm2.553 4.16L85.72 73.836h-1.526l-3.267 10.263h1.185l.941-3.156h3.651l.927 3.156h1.327zM77.79 73.7c-.415-.284-.956-.434-1.57-.434-.528 0-.912.118-1.256.386-.298.241-.784.721-.784 1.829v1.166h-.683v.883h.683v6.568h1.17V77.53h1.627l.341-.883h-1.967v-1.151c0-.854.341-1.32.97-1.32.383 0 .784.183 1.054.345l.415-.82zm-7.29 6.88c0 .736-.056 1.155-.213 1.619-.244.714-.799 1.122-1.54 1.122-.614 0-1.184-.3-1.442-.75-.27-.462-.44-1.393-.44-2.44 0-.88.113-1.48.34-1.943.243-.494.828-.81 1.456-.81.585 0 1.212.301 1.512.96.228.495.328 1.195.328 2.242zm1.271-.09c0-1.21-.215-2.092-.656-2.767-.486-.732-1.257-1.303-2.44-1.303-1.868 0-3.024 1.484-3.024 3.908 0 2.454 1.114 3.963 3.067 3.963 1.783 0 3.053-1.315 3.053-3.8zm-10.84-3.843h-1.27l-1.399 4.893c-.17.613-.441 1.57-.441 1.57h-.029s-.213-1.152-.428-1.855L55.91 76.42l-1.1.39 1.527 4.67c.242.746.628 2.2.714 2.678l.457-.075c-.386 1.509-.728 1.99-1.64 2.288l.327.792c1.24-.312 1.825-1.301 2.297-2.795l2.439-7.721zm-7.076 0h-1.782c0-.987.142-2.155.142-2.155l-1.169.27s-.114 1.168-.114 1.885h-.927v.883h.927v5.115c0 .75.185 1.226.685 1.482.27.135.555.21.927.21.498 0 .899-.104 1.254-.302l-.156-.746c-.2.106-.386.148-.7.148-.699 0-.912-.28-.912-1.103V77.53h1.484l.341-.883zm-5.734 7.45v-7.615l-1.154.194v7.422h1.154zm.315-9.757c0-.505-.386-.91-.87-.91-.486 0-.87.42-.87.929 0 .49.384.897.87.897.484 0 .87-.407.87-.916zm-3.58 7.543c0-1.106-.613-1.796-1.898-2.08l-.941-.208c-.756-.164-1.026-.51-1.026-1.078 0-.732.528-1.228 1.34-1.228.627 0 1.156.226 1.784.54l.412-.867c-.6-.361-1.427-.6-2.166-.6-1.484 0-2.527.943-2.527 2.29 0 1.032.628 1.795 1.799 2.05l.884.194c.813.18 1.169.552 1.169 1.226 0 .791-.571 1.288-1.441 1.288-.785 0-1.525-.241-2.252-.702l-.43.866c.728.461 1.712.748 2.61.748 1.598 0 2.684-.987 2.684-2.44zm-6.19-5.388s-.2-.075-.385-.075c-.728 0-1.484.482-1.998 1.245.043-.63-.228-1.212-.228-1.212l-1.112.312s.242.497.242 1.587v5.746h1.112V79.43c0-.615.086-.842.415-1.185.327-.342.756-.538 1.183-.538.114 0 .244.031.315.06l.455-1.273zm-6.96 3.19h-3.253c.057-1.544.628-2.322 1.64-2.322.543 0 1.041.256 1.285.661.214.36.313.852.327 1.66zm1.182.88v-.164c0-1.779-.199-2.483-.813-3.14-.483-.523-1.154-.808-1.925-.808-.855 0-1.555.329-2.126 1.033-.597.746-.856 1.554-.856 2.811 0 2.469 1.186 3.965 3.153 3.965.913 0 1.769-.329 2.397-.927l-.427-.748c-.5.478-1.057.702-1.74.702-.714 0-1.37-.268-1.77-.912-.243-.388-.328-.929-.328-1.633v-.179h4.435zm-6.787-3.918h-1.183L23.292 81.6c-.227.673-.341 1.257-.341 1.257h-.029s-.142-.658-.343-1.271l-1.655-5.133-1.14.254 2.553 7.466h1.097l2.667-7.526zm-7.886 7.45v-7.615l-1.155.194v7.422h1.155zm.313-9.757c0-.505-.385-.91-.87-.91-.484 0-.87.42-.87.929 0 .49.386.897.87.897.485 0 .87-.407.87-.916zm-4.078 9.758v-5.656c0-.301-.057-.599-.173-.867-.284-.658-.97-1.093-1.74-1.093-.756 0-1.496.372-2.238 1.152 0-.616-.258-1.166-.258-1.166l-1.083.314s.27.507.27 1.57v5.746h1.086v-5.55c.512-.572 1.396-1.047 1.967-1.047.328 0 .628.118.785.311.2.254.256.451.256 1.245v5.04h1.128zm-7.96-2.963v-7.3H5.336v7.15c0 .69-.043 1.137-.372 1.602-.3.418-.913.644-1.726.644-1.197 0-1.726-.555-1.91-1.005-.129-.312-.171-.97-.171-1.482v-6.909H0v7.36c0 .449.028 1.105.287 1.602.526 1.016 1.382 1.481 2.894 1.481 1.185 0 1.97-.255 2.567-.793.586-.524.742-1.108.742-2.35z" transform="translate(-120 -9942) translate(0 9353) translate(120 589.422)"/>
                </g>
            </g>
        </g>
    </g>
</svg>
