<?xml version="1.0" encoding="utf-8"?>
<!-- Generator: Adobe Illustrator 25.2.3, SVG Export Plug-In . SVG Version: 6.00 Build 0)  -->
<svg version="1.1" xmlns="http://www.w3.org/2000/svg" xmlns:xlink="http://www.w3.org/1999/xlink" x="0px" y="0px"
	 viewBox="0 0 200 200" style="enable-background:new 0 0 200 200;" xml:space="preserve">
<style type="text/css">
	.st0{fill:#FFFFFF;}
	.st1{display:none;}
	.st2{display:inline;fill:none;stroke:#272525;stroke-miterlimit:10;}
</style>
<g id="Layer_2">
	<rect x="-810.6" y="-381.9" class="st0" width="733.3" height="733.3"/>
</g>
<g id="Layer_3" class="st1">
	<rect x="-761.8" y="-333.1" class="st2" width="158.9" height="158.9"/>
	<rect x="-725.7" y="-297" class="st2" width="86.8" height="86.8"/>
	<rect x="-602.8" y="-333.1" class="st2" width="158.9" height="158.9"/>
	<rect x="-566.8" y="-297" class="st2" width="86.8" height="86.8"/>
	<rect x="-443.9" y="-333.1" class="st2" width="158.9" height="158.9"/>
	<rect x="-407.9" y="-297" class="st2" width="86.8" height="86.8"/>
	<rect x="-285" y="-333.1" class="st2" width="158.9" height="158.9"/>
	<rect x="-248.9" y="-297" class="st2" width="86.8" height="86.8"/>
	<rect x="-761.8" y="-174.2" class="st2" width="158.9" height="158.9"/>
	<rect x="-725.7" y="-138.1" class="st2" width="86.8" height="86.8"/>
	<rect x="-602.8" y="-174.2" class="st2" width="158.9" height="158.9"/>
	<rect x="-566.8" y="-138.1" class="st2" width="86.8" height="86.8"/>
	<rect x="-443.9" y="-174.2" class="st2" width="158.9" height="158.9"/>
	<rect x="-407.9" y="-138.1" class="st2" width="86.8" height="86.8"/>
	<rect x="-285" y="-174.2" class="st2" width="158.9" height="158.9"/>
	<rect x="-248.9" y="-138.1" class="st2" width="86.8" height="86.8"/>
	<rect x="-761.8" y="-15.2" class="st2" width="158.9" height="158.9"/>
	<rect x="-725.7" y="20.8" class="st2" width="86.8" height="86.8"/>
	<rect x="-602.8" y="-15.2" class="st2" width="158.9" height="158.9"/>
	<rect x="-566.8" y="20.8" class="st2" width="86.8" height="86.8"/>
	<rect x="-443.9" y="-15.2" class="st2" width="158.9" height="158.9"/>
	<rect x="-407.9" y="20.8" class="st2" width="86.8" height="86.8"/>
	<rect x="-285" y="-15.2" class="st2" width="158.9" height="158.9"/>
	<rect x="-248.9" y="20.8" class="st2" width="86.8" height="86.8"/>
	<rect x="-761.8" y="143.7" class="st2" width="158.9" height="158.9"/>
	<rect x="-725.7" y="179.7" class="st2" width="86.8" height="86.8"/>
	<rect x="-602.8" y="143.7" class="st2" width="158.9" height="158.9"/>
	<rect x="-566.8" y="179.7" class="st2" width="86.8" height="86.8"/>
	<rect x="-443.9" y="143.7" class="st2" width="158.9" height="158.9"/>
	<rect x="-407.9" y="179.7" class="st2" width="86.8" height="86.8"/>
	<rect x="-285" y="143.7" class="st2" width="158.9" height="158.9"/>
	<rect x="-248.9" y="179.7" class="st2" width="86.8" height="86.8"/>
</g>
<g id="Layer_1">
	<g>
		<g>
			<path d="M136.1,144.9h-11.7c-0.7,0-1.4-0.3-1.9-0.8c-0.5-0.5-0.7-1.3-0.7-2l1.8-18.4c0.1-1.3,1.2-2.3,2.6-2.3h11.7
				c0.7,0,1.4,0.3,1.9,0.8c0.5,0.5,0.7,1.3,0.7,2l-1.8,18.4C138.6,143.9,137.5,144.9,136.1,144.9z M127.3,139.7h6.5l1.3-13.2h-6.5
				L127.3,139.7z"/>
		</g>
		<g>
			<path d="M163.5,103.8L163,109l-5.5,57.4c-0.5,5.5-5.1,9.6-10.5,9.6c-3,0-5.8-1.2-7.8-3.4c-2-2.2-3-5.1-2.7-8.1l5.3-55.4l0.9-9.2
				h0.2v-5.2h-2.6c-1.3,0-2.4,1-2.6,2.4l0,0.3l-6.4,66.6c-0.4,4.4,1,8.8,4,12.1c3,3.3,7.2,5.2,11.7,5.2c8.2,0,14.9-6.1,15.7-14.2
				l5.5-57.8l0.5-5.2H163.5z"/>
		</g>
		<g>
			<path d="M168.1,54.8h-27.9c-1.4,0-2.6,1.1-2.6,2.6v49.1c0,1.4,1.2,2.6,2.6,2.6h27.9c14.9,0,27.1-12.2,27.1-27.1
				C195.3,66.9,183.1,54.8,168.1,54.8z M168.7,103.8h-25.9V59.9h25.3c12.1,0,21.9,9.8,21.9,21.9C190.1,93.8,180.5,103.6,168.7,103.8
				z"/>
		</g>
		<g>
			<path d="M39.2,66.6c1.6-0.9,3.3-1.5,5.2-1.9v-5.3c-1.8,0.3-3.5,0.8-5.2,1.4c-8.4,3.4-14.3,11.6-14.3,21c0,9.5,5.9,17.6,14.3,21.1
				c1.6,0.6,3.4,1.1,5.2,1.4v-5.3c-1.8-0.4-3.6-1-5.2-1.9c-5.5-3-9.1-8.7-9.1-15.3C30.1,75.3,33.8,69.6,39.2,66.6z M58.1,96.3v6
				c1.9-0.9,3.6-2.1,5.2-3.4v-8C62,93.1,60.2,94.9,58.1,96.3z M58.1,61.5v6c2.1,1.4,3.9,3.3,5.2,5.4v-8C61.7,63.5,60,62.4,58.1,61.5
				z"/>
		</g>
		<g>
			<path d="M60.7,135.7c-0.5,0-1.1-0.2-1.5-0.5c-0.7-0.5-1.1-1.3-1.1-2.1V30.7c0-0.8,0.4-1.6,1.1-2.1s1.5-0.6,2.3-0.4l79.6,26.5
				c1.1,0.4,1.8,1.3,1.8,2.5v49.4c0,1.1-0.7,2.1-1.8,2.5l-79.6,26.5C61.2,135.6,60.9,135.7,60.7,135.7z M63.2,34.3v95.2l74.4-24.8
				V59.1L63.2,34.3z"/>
		</g>
		<g>
			<g>
				<line x1="113.6" y1="68.8" x2="87.4" y2="95"/>
				<rect x="81.9" y="79.3" transform="matrix(0.7071 -0.7071 0.7071 0.7071 -28.4812 95.0174)" width="37" height="5.2"/>
			</g>
			<g>
				<line x1="94.5" y1="68.8" x2="87.4" y2="75.9"/>
				<rect x="86" y="69.8" transform="matrix(0.7071 -0.7071 0.7071 0.7071 -24.5386 85.4991)" width="10" height="5.2"/>
			</g>
			<g>
				<line x1="113.5" y1="87.9" x2="106.5" y2="94.9"/>
				<rect x="105" y="88.8" transform="matrix(0.7071 -0.7071 0.7071 0.7071 -32.4248 104.5382)" width="10" height="5.2"/>
			</g>
		</g>
		<g>
			<path d="M39.2,66.6v30.6c1.6,0.9,3.3,1.5,5.2,1.9V64.7C42.6,65.1,40.8,65.7,39.2,66.6z M51.2,18.9c-6.6,0-12,5.4-12,12v102
				c0,6.6,5.4,12,12,12s12-5.4,12-12v-102C63.3,24.3,57.9,18.9,51.2,18.9z M58.1,132.9c0,3.8-3.1,6.8-6.8,6.8s-6.8-3.1-6.8-6.8v-102
				c0-3.8,3.1-6.8,6.8-6.8s6.8,3.1,6.8,6.8V132.9z"/>
		</g>
		<g>
			<line x1="13.7" y1="81.9" x2="4.7" y2="81.9"/>
			<rect x="4.7" y="79.3" width="9" height="5.2"/>
		</g>
		<g>
			<line x1="16.3" y1="68.8" x2="8" y2="65.4"/>
			<rect x="9.6" y="62.6" transform="matrix(0.3825 -0.9239 0.9239 0.3825 -54.4527 52.6649)" width="5.2" height="9"/>
		</g>
		<g>
			<line x1="23.7" y1="57.7" x2="17.4" y2="51.3"/>
			<rect x="18" y="50" transform="matrix(0.7071 -0.7071 0.7071 0.7071 -32.5212 30.5096)" width="5.2" height="9"/>
		</g>
		<g>
			<line x1="16.3" y1="95" x2="8" y2="98.4"/>
			<rect x="7.7" y="94.1" transform="matrix(0.9238 -0.3828 0.3828 0.9238 -36.093 12.0273)" width="9" height="5.2"/>
		</g>
		<g>
			<line x1="23.7" y1="106.1" x2="17.4" y2="112.4"/>
			<rect x="16.1" y="106.7" transform="matrix(0.7071 -0.7071 0.7071 0.7071 -71.2402 46.5476)" width="9" height="5.2"/>
		</g>
	</g>
</g>
</svg>
