<svg xmlns="http://www.w3.org/2000/svg" width="14.35" height="14.364" viewBox="0 0 14.35 14.364">
  <path id="map-marker" d="M8.37,4.188a1.2,1.2,0,1,1-1.2-1.2A1.2,1.2,0,0,1,8.37,4.188Zm1.764,2.964-2.959,2.9L4.22,7.155a4.185,4.185,0,1,1,5.914,0ZM9.566,4.188A2.391,2.391,0,1,0,7.174,6.579,2.391,2.391,0,0,0,9.566,4.188Zm3.508,2.16-.858-.287A5.35,5.35,0,0,1,10.979,8l-3.8,3.723L3.384,8.014A5.374,5.374,0,0,1,1.937,5.4,1.774,1.774,0,0,0,0,7.177v5.83l4.773,1.364,4.795-1.2L14.35,14.34V8.063a1.794,1.794,0,0,0-1.277-1.716Z" transform="translate(0 -0.006)" fill="#59c29a"/>
</svg>
