<svg width="20" height="20" viewBox="0 0 20 20" fill="none" xmlns="http://www.w3.org/2000/svg">
<path d="M9.99707 7.36621C11.4514 7.36621 12.6307 8.54477 12.6309 9.99902C12.6309 11.4534 11.4515 12.6328 9.99707 12.6328C8.54282 12.6326 7.36426 11.4533 7.36426 9.99902C7.36443 8.54488 8.54293 7.36639 9.99707 7.36621Z" stroke="#2D2D2D" stroke-width="1.4" stroke-linecap="round" stroke-linejoin="round"/>
<path d="M9.99707 7.36621C11.4514 7.36621 12.6307 8.54477 12.6309 9.99902C12.6309 11.4534 11.4515 12.6328 9.99707 12.6328C8.54282 12.6326 7.36426 11.4533 7.36426 9.99902C7.36443 8.54488 8.54293 7.36639 9.99707 7.36621Z" stroke="black" stroke-opacity="0.2" stroke-width="1.4" stroke-linecap="round" stroke-linejoin="round"/>
<path d="M9.99707 7.36621C11.4514 7.36621 12.6307 8.54477 12.6309 9.99902C12.6309 11.4534 11.4515 12.6328 9.99707 12.6328C8.54282 12.6326 7.36426 11.4533 7.36426 9.99902C7.36443 8.54488 8.54293 7.36639 9.99707 7.36621Z" stroke="black" stroke-opacity="0.2" stroke-width="1.4" stroke-linecap="round" stroke-linejoin="round"/>
<path d="M16.9502 10.6104C16.9502 10.9291 16.7342 11.2078 16.4258 11.2881L15.2715 11.5879L14.8818 12.5283L15.5342 13.2969C15.7698 13.5748 15.7527 13.9875 15.4951 14.2451L14.2451 15.4951C13.9822 15.758 13.559 15.7697 13.2822 15.5215V15.5205L13.2803 15.5195C13.2789 15.5183 13.2771 15.5161 13.2744 15.5137C13.2686 15.5085 13.2592 15.5002 13.248 15.4902C13.2257 15.4703 13.1938 15.4413 13.1543 15.4062C13.0747 15.3357 12.9656 15.2395 12.8486 15.1377C12.7431 15.0458 12.6371 14.9563 12.543 14.877L11.5947 15.2705L11.3037 16.4219C11.225 16.7325 10.9454 16.9502 10.625 16.9502H9.375C9.05457 16.9502 8.77494 16.7325 8.69629 16.4219L8.40527 15.2705L7.4873 14.8936L6.69238 15.543C6.41401 15.7698 6.00879 15.749 5.75488 15.4951L4.50488 14.2451C4.24253 13.9828 4.23065 13.5611 4.47754 13.2842L5.12988 12.5508L4.7373 11.6201L3.56543 11.2998C3.26115 11.2166 3.0498 10.9405 3.0498 10.625V9.375C3.0498 9.04972 3.27407 8.76733 3.59082 8.69336L4.71973 8.42969L5.10352 7.4873L4.45703 6.69141C4.23084 6.413 4.25124 6.00853 4.50488 5.75488L5.75488 4.50488C6.01689 4.24287 6.43784 4.23056 6.71484 4.47656L7.44922 5.13086L8.37793 4.73926L8.68652 3.57227L8.72559 3.46094C8.83741 3.21402 9.08512 3.0498 9.36328 3.0498H10.585L10.7021 3.05957C10.9694 3.10497 11.191 3.3032 11.2617 3.57227L11.5615 4.71582L12.5352 5.11621L13.2949 4.46777C13.5727 4.2304 13.9868 4.24652 14.2451 4.50488L15.4951 5.75488C15.7525 6.01225 15.7692 6.42422 15.5342 6.70215L14.8877 7.46582L15.2764 8.4043L16.4229 8.69629C16.733 8.77528 16.9502 9.05493 16.9502 9.375V10.6104Z" stroke="#2D2D2D" stroke-width="1.4" stroke-linecap="round" stroke-linejoin="round"/>
<path d="M16.9502 10.6104C16.9502 10.9291 16.7342 11.2078 16.4258 11.2881L15.2715 11.5879L14.8818 12.5283L15.5342 13.2969C15.7698 13.5748 15.7527 13.9875 15.4951 14.2451L14.2451 15.4951C13.9822 15.758 13.559 15.7697 13.2822 15.5215V15.5205L13.2803 15.5195C13.2789 15.5183 13.2771 15.5161 13.2744 15.5137C13.2686 15.5085 13.2592 15.5002 13.248 15.4902C13.2257 15.4703 13.1938 15.4413 13.1543 15.4062C13.0747 15.3357 12.9656 15.2395 12.8486 15.1377C12.7431 15.0458 12.6371 14.9563 12.543 14.877L11.5947 15.2705L11.3037 16.4219C11.225 16.7325 10.9454 16.9502 10.625 16.9502H9.375C9.05457 16.9502 8.77494 16.7325 8.69629 16.4219L8.40527 15.2705L7.4873 14.8936L6.69238 15.543C6.41401 15.7698 6.00879 15.749 5.75488 15.4951L4.50488 14.2451C4.24253 13.9828 4.23065 13.5611 4.47754 13.2842L5.12988 12.5508L4.7373 11.6201L3.56543 11.2998C3.26115 11.2166 3.0498 10.9405 3.0498 10.625V9.375C3.0498 9.04972 3.27407 8.76733 3.59082 8.69336L4.71973 8.42969L5.10352 7.4873L4.45703 6.69141C4.23084 6.413 4.25124 6.00853 4.50488 5.75488L5.75488 4.50488C6.01689 4.24287 6.43784 4.23056 6.71484 4.47656L7.44922 5.13086L8.37793 4.73926L8.68652 3.57227L8.72559 3.46094C8.83741 3.21402 9.08512 3.0498 9.36328 3.0498H10.585L10.7021 3.05957C10.9694 3.10497 11.191 3.3032 11.2617 3.57227L11.5615 4.71582L12.5352 5.11621L13.2949 4.46777C13.5727 4.2304 13.9868 4.24652 14.2451 4.50488L15.4951 5.75488C15.7525 6.01225 15.7692 6.42422 15.5342 6.70215L14.8877 7.46582L15.2764 8.4043L16.4229 8.69629C16.733 8.77528 16.9502 9.05493 16.9502 9.375V10.6104Z" stroke="black" stroke-opacity="0.2" stroke-width="1.4" stroke-linecap="round" stroke-linejoin="round"/>
<path d="M16.9502 10.6104C16.9502 10.9291 16.7342 11.2078 16.4258 11.2881L15.2715 11.5879L14.8818 12.5283L15.5342 13.2969C15.7698 13.5748 15.7527 13.9875 15.4951 14.2451L14.2451 15.4951C13.9822 15.758 13.559 15.7697 13.2822 15.5215V15.5205L13.2803 15.5195C13.2789 15.5183 13.2771 15.5161 13.2744 15.5137C13.2686 15.5085 13.2592 15.5002 13.248 15.4902C13.2257 15.4703 13.1938 15.4413 13.1543 15.4062C13.0747 15.3357 12.9656 15.2395 12.8486 15.1377C12.7431 15.0458 12.6371 14.9563 12.543 14.877L11.5947 15.2705L11.3037 16.4219C11.225 16.7325 10.9454 16.9502 10.625 16.9502H9.375C9.05457 16.9502 8.77494 16.7325 8.69629 16.4219L8.40527 15.2705L7.4873 14.8936L6.69238 15.543C6.41401 15.7698 6.00879 15.749 5.75488 15.4951L4.50488 14.2451C4.24253 13.9828 4.23065 13.5611 4.47754 13.2842L5.12988 12.5508L4.7373 11.6201L3.56543 11.2998C3.26115 11.2166 3.0498 10.9405 3.0498 10.625V9.375C3.0498 9.04972 3.27407 8.76733 3.59082 8.69336L4.71973 8.42969L5.10352 7.4873L4.45703 6.69141C4.23084 6.413 4.25124 6.00853 4.50488 5.75488L5.75488 4.50488C6.01689 4.24287 6.43784 4.23056 6.71484 4.47656L7.44922 5.13086L8.37793 4.73926L8.68652 3.57227L8.72559 3.46094C8.83741 3.21402 9.08512 3.0498 9.36328 3.0498H10.585L10.7021 3.05957C10.9694 3.10497 11.191 3.3032 11.2617 3.57227L11.5615 4.71582L12.5352 5.11621L13.2949 4.46777C13.5727 4.2304 13.9868 4.24652 14.2451 4.50488L15.4951 5.75488C15.7525 6.01225 15.7692 6.42422 15.5342 6.70215L14.8877 7.46582L15.2764 8.4043L16.4229 8.69629C16.733 8.77528 16.9502 9.05493 16.9502 9.375V10.6104Z" stroke="black" stroke-opacity="0.2" stroke-width="1.4" stroke-linecap="round" stroke-linejoin="round"/>
</svg>
