<?xml version="1.0" encoding="utf-8"?>
<!-- Generator: Adobe Illustrator 25.2.3, SVG Export Plug-In . SVG Version: 6.00 Build 0)  -->
<svg version="1.1" id="Layer_1" xmlns="http://www.w3.org/2000/svg" xmlns:xlink="http://www.w3.org/1999/xlink" x="0px" y="0px"
	 viewBox="0 0 200 200" style="enable-background:new 0 0 200 200;" xml:space="preserve">
<style type="text/css">
	.st0{display:none;}
	.st1{display:inline;fill:none;stroke:#272525;stroke-miterlimit:10;}
	.st2{fill:#FFFFFF;}
	.st3{fill:#3754D1;}
</style>
<g id="Layer_3" class="st0">
	<rect x="-761.8" y="-333.1" class="st1" width="158.9" height="158.9"/>
	<rect x="-725.7" y="-297" class="st1" width="86.8" height="86.8"/>
	<rect x="-602.8" y="-333.1" class="st1" width="158.9" height="158.9"/>
	<rect x="-566.8" y="-297" class="st1" width="86.8" height="86.8"/>
	<rect x="-443.9" y="-333.1" class="st1" width="158.9" height="158.9"/>
	<rect x="-407.9" y="-297" class="st1" width="86.8" height="86.8"/>
	<rect x="-285" y="-333.1" class="st1" width="158.9" height="158.9"/>
	<rect x="-248.9" y="-297" class="st1" width="86.8" height="86.8"/>
	<rect x="-761.8" y="-174.2" class="st1" width="158.9" height="158.9"/>
	<rect x="-725.7" y="-138.1" class="st1" width="86.8" height="86.8"/>
	<rect x="-602.8" y="-174.2" class="st1" width="158.9" height="158.9"/>
	<rect x="-566.8" y="-138.1" class="st1" width="86.8" height="86.8"/>
	<rect x="-443.9" y="-174.2" class="st1" width="158.9" height="158.9"/>
	<rect x="-407.9" y="-138.1" class="st1" width="86.8" height="86.8"/>
	<rect x="-285" y="-174.2" class="st1" width="158.9" height="158.9"/>
	<rect x="-248.9" y="-138.1" class="st1" width="86.8" height="86.8"/>
	<rect x="-761.8" y="-15.2" class="st1" width="158.9" height="158.9"/>
	<rect x="-725.7" y="20.8" class="st1" width="86.8" height="86.8"/>
	<rect x="-602.8" y="-15.2" class="st1" width="158.9" height="158.9"/>
	<rect x="-566.8" y="20.8" class="st1" width="86.8" height="86.8"/>
	<rect x="-443.9" y="-15.2" class="st1" width="158.9" height="158.9"/>
	<rect x="-407.9" y="20.8" class="st1" width="86.8" height="86.8"/>
	<rect x="-285" y="-15.2" class="st1" width="158.9" height="158.9"/>
	<rect x="-248.9" y="20.8" class="st1" width="86.8" height="86.8"/>
	<rect x="-761.8" y="143.7" class="st1" width="158.9" height="158.9"/>
	<rect x="-725.7" y="179.7" class="st1" width="86.8" height="86.8"/>
	<rect x="-602.8" y="143.7" class="st1" width="158.9" height="158.9"/>
	<rect x="-566.8" y="179.7" class="st1" width="86.8" height="86.8"/>
	<rect x="-443.9" y="143.7" class="st1" width="158.9" height="158.9"/>
	<rect x="-407.9" y="179.7" class="st1" width="86.8" height="86.8"/>
	<rect x="-285" y="143.7" class="st1" width="158.9" height="158.9"/>
	<rect x="-248.9" y="179.7" class="st1" width="86.8" height="86.8"/>
</g>
<g>
	<g>
		<path class="st2" d="M10.8,107l-2.2,0.2c-0.2-2.2-0.2-4.4-0.2-6.6l2.3,2.3C10.7,104.3,10.7,105.6,10.8,107z"/>
		<path class="st2" d="M12,116.2c0.4,2.2,0.9,4.5,1.5,6.7l-2.2,0.5c-0.6-2.2-1.1-4.5-1.5-6.8L12,116.2z"/>
		<path class="st2" d="M16.3,131.5c0.8,2.1,1.7,4.2,2.7,6.3l-2,1c-1-2.1-1.9-4.3-2.8-6.5L16.3,131.5z"/>
		<path class="st2" d="M23.4,145.7c1.2,1.9,2.5,3.8,3.8,5.7l-1.8,1.3c-1.4-1.9-2.7-3.8-4-5.8L23.4,145.7z"/>
		<path class="st2" d="M38,163.2l-1.6,1.8c-1.7-1.6-3.3-3.2-4.9-5l1.8-1.6C34.7,160.1,36.4,161.7,38,163.2z"/>
		<path class="st2" d="M44.9,169.1c1.8,1.4,3.7,2.7,5.6,3.9l-1.2,1.9c-2-1.2-3.9-2.6-5.8-4L44.9,169.1z"/>
		<path class="st2" d="M58.6,177.4c2.1,1,4.2,1.9,6.3,2.8l-0.9,2.1c-2.2-0.9-4.3-1.8-6.5-2.8L58.6,177.4z"/>
		<path class="st2" d="M81.1,173.4c-28.5-6.1-51.1-28.6-57.2-57.2l3.1,3.1l3.6,3.6l0,0.1c7,20.4,23.1,36.5,43.5,43.5l0.2,0.2
			l3.5,3.5L81.1,173.4z"/>
		<path class="st2" d="M73.5,183.1c2.2,0.6,4.4,1.1,6.7,1.5l-0.5,2.3c-2.3-0.4-4.6-1-6.8-1.6L73.5,183.1z"/>
		<path class="st2" d="M96.1,188.4c-2.4,0-4.7-0.1-7-0.3l0.2-2.4c1.5,0.1,2.9,0.2,4.4,0.2L96.1,188.4z"/>
		<path class="st3" d="M93.7,186c-1.4,0-2.9-0.1-4.4-0.2l-0.2,2.4l-0.2,2.3c2.4,0.2,4.8,0.3,7.2,0.3V186C95.3,186,94.5,186,93.7,186
			z M73.5,183.1l-0.6,2.2l-0.6,2.3c2.3,0.6,4.7,1.2,7,1.6l0.5-2.3l0.5-2.3C77.9,184.2,75.7,183.7,73.5,183.1z M58.6,177.4l-1,2.1
			l-1,2.1c2.2,1.1,4.4,2,6.6,2.9l0.9-2.2l0.9-2.1C62.8,179.3,60.7,178.4,58.6,177.4z M44.9,169.1l-1.4,1.9l-1.4,2c2,1.5,4,2.8,6,4.1
			l1.2-2.1l1.2-1.9C48.6,171.8,46.7,170.5,44.9,169.1z M33.2,158.4l-1.8,1.6l-1.7,1.6c1.6,1.7,3.3,3.5,5.1,5.1l1.6-1.7l1.6-1.8
			C36.4,161.7,34.7,160.1,33.2,158.4z M23.4,145.7l-1.9,1.2l-2.1,1.3c1.3,2.1,2.7,4.1,4.1,6l1.9-1.5l1.8-1.3
			C25.9,149.5,24.6,147.6,23.4,145.7z M16.3,131.5l-2.1,0.8l-2.3,0.9c0.9,2.2,1.9,4.4,2.9,6.6l2.2-1l2-1
			C18,135.7,17.1,133.6,16.3,131.5z M12,116.2l-2.2,0.4L7.4,117c0.4,2.3,1,4.7,1.6,7l2.3-0.6l2.2-0.5
			C12.9,120.7,12.4,118.4,12,116.2z M10.6,102.9c0-0.8,0-1.6,0-2.4H5.9c0,2.3,0.1,4.6,0.3,6.9l2.3-0.2l2.2-0.2
			C10.7,105.6,10.7,104.3,10.6,102.9z"/>
	</g>
	<g>
		<path class="st2" d="M105,12.6c2.4,0,4.7,0.1,7,0.3l-0.2,2.3c-1.5-0.1-3.1-0.2-4.6-0.3l-2.2-2.2V12.6L105,12.6z"/>
		<path class="st2" d="M121.3,14.1c2.3,0.4,4.6,1,6.8,1.6l-0.6,2.3c-2.2-0.6-4.4-1.1-6.7-1.5L121.3,14.1z"/>
		<path class="st2" d="M136.9,18.6c2.2,0.8,4.3,1.8,6.5,2.8l-1,2.1c-2.1-1-4.2-1.9-6.3-2.8L136.9,18.6z"/>
		<path class="st2" d="M151.6,26c2,1.2,3.9,2.6,5.8,4l-1.4,1.9c-1.8-1.4-3.7-2.7-5.6-3.9L151.6,26z"/>
		<path class="st2" d="M169.6,41.1l-1.7,1.5c-1.5-1.7-3.2-3.3-4.8-4.8l1.6-1.7C166.4,37.7,168,39.3,169.6,41.1z"/>
		<path class="st2" d="M175.5,48.2c1.4,1.9,2.7,3.8,4,5.8l-2,1.2c-1.2-1.9-2.5-3.8-3.8-5.7L175.5,48.2z"/>
		<path class="st2" d="M184,62.2c1,2.1,1.9,4.3,2.8,6.5l-2.1,0.8c-0.8-2.1-1.7-4.2-2.7-6.3L184,62.2z"/>
		<path class="st2" d="M191.2,84.5l-2.2,0.4c-0.4-2.2-0.9-4.5-1.5-6.7l2.2-0.6C190.3,79.9,190.8,82.1,191.2,84.5z"/>
		<path class="st2" d="M192.7,100.4l-2.3-2.3c0-1.4-0.1-2.8-0.2-4.2l2.2-0.2C192.6,95.9,192.7,98.2,192.7,100.4z"/>
		<path class="st3" d="M105,10.2v4.7c0.7,0,1.5,0,2.2,0c1.5,0,3,0.1,4.6,0.3l0.2-2.3l0.2-2.4C109.8,10.3,107.4,10.2,105,10.2z
			 M121.7,11.9l-0.4,2.2l-0.5,2.4c2.3,0.4,4.5,0.9,6.7,1.5l0.6-2.3l0.6-2.2C126.4,12.9,124.1,12.3,121.7,11.9z M137.8,16.4l-0.9,2.2
			l-0.8,2.2c2.1,0.9,4.2,1.8,6.3,2.8l1-2.1l1-2.2C142.2,18.3,140,17.3,137.8,16.4z M152.9,24l-1.3,2l-1.2,2c1.9,1.2,3.8,2.5,5.6,3.9
			l1.4-1.9l1.5-1.9C156.9,26.7,154.9,25.3,152.9,24z M166.3,34.4l-1.6,1.7l-1.6,1.7c1.6,1.5,3.3,3.1,4.8,4.8l1.7-1.5l1.8-1.6
			C169.8,37.8,168.1,36,166.3,34.4z M177.5,46.8l-2,1.4l-1.8,1.4c1.3,1.9,2.6,3.8,3.8,5.7l2-1.2l2.1-1.3
			C180.3,50.7,178.9,48.7,177.5,46.8z M186.2,61.2l-2.2,1l-2,1c1,2.1,1.9,4.2,2.7,6.3l2.1-0.8l2.3-0.9
			C188.2,65.6,187.2,63.4,186.2,61.2z M192,77l-2.3,0.6l-2.2,0.6c0.6,2.2,1.1,4.5,1.5,6.7l2.2-0.4l2.3-0.5
			C193.2,81.7,192.6,79.3,192,77z M194.9,93.5l-2.5,0.2l-2.2,0.2c0.1,1.4,0.1,2.8,0.2,4.2c0,0.8,0,1.6,0,2.3h4.7
			C195.1,98.1,195,95.8,194.9,93.5z"/>
	</g>
	<g>
		<path class="st2" d="M167.6,170.3v2.4H96.8c-6.5,0-12.9-0.9-18.9-2.5c-24.7-6.7-44.1-26.1-50.8-50.8c-1.6-6-2.5-12.3-2.5-18.8
			v-0.1l0.2,0.1l2.2,1v0.1c0,1.1,0.1,2.3,0.1,3.4c0,0.6,0.1,1.3,0.2,1.9c0,0.4,0.1,0.8,0.1,1.2c0,0.2,0,0.3,0.1,0.5
			c0.6,4.9,1.7,9.7,3.2,14.2c7,20.4,23.1,36.5,43.5,43.5c7.1,2.4,14.7,3.8,22.5,3.8H167.6z"/>
		<path class="st3" d="M167.6,170.4v4.7H96.8c-5.4,0-10.6-0.6-15.7-1.7c-28.5-6.1-51.1-28.6-57.2-57.2c-1.1-5-1.7-10.3-1.7-15.7H27
			v1.1c0,1.1,0.1,2.3,0.1,3.4c0.4,6.2,1.6,12.2,3.5,17.8c7,20.5,23.2,36.8,43.7,43.7c7,2.4,14.6,3.7,22.4,3.7H167.6z"/>
	</g>
	<g>
		<polygon class="st2" points="182.2,172.7 167.6,187.3 167.6,184 178.9,172.7 167.6,161.5 167.6,158.2 		"/>
		<path class="st3" d="M184.5,172.7c0,0.6-0.2,1.2-0.7,1.7L169.3,189l-1.6-1.7l-1.7-1.7l12.9-12.9L166,159.8l1.7-1.6l1.6-1.7
			l14.6,14.6C184.3,171.5,184.5,172.1,184.5,172.7z"/>
	</g>
	<g>
		<path class="st2" d="M176.3,100.4l-2.4-1.1c-0.6-38-31.7-68.7-69.8-68.7H33.4v-2.3h70.8C144,28.3,176.3,60.6,176.3,100.4z"/>
		<path class="st3" d="M178.7,100.4H174c0-0.4,0-0.8,0-1.1c-0.6-38-31.7-68.7-69.8-68.7H33.4v-4.7h70.8
			C145.3,25.9,178.7,59.3,178.7,100.4z"/>
	</g>
	<g>
		<path class="st3" d="M160.7,90.9l-14.4-3.1c-1-3.6-2.4-7.1-4.2-10.4l7.9-12.3c0.6-0.9,0.5-2.1-0.3-2.9l-10.8-10.8
			c-0.8-0.8-2-0.9-2.9-0.3l-12.1,7.8c-3.3-1.9-6.9-3.4-10.6-4.4l-3-14c-0.2-1-1.2-1.8-2.3-1.8H92.7c-1.1,0-2.1,0.7-2.3,1.8l-3,14
			c-3.7,1-7.2,2.5-10.6,4.4l-12.1-7.8c-0.9-0.6-2.1-0.5-2.9,0.3L51,62.2c-0.8,0.8-0.9,2-0.3,2.9l7.9,12.2c-1.8,3.3-3.2,6.9-4.2,10.5
			l-14.3,3.1c-1,0.2-1.8,1.2-1.8,2.3v15.5c0,1.1,0.7,2.1,1.8,2.3l14.5,3.1c1.1,3.5,2.5,6.9,4.3,10.1l-8.1,12.5
			c-0.6,0.9-0.5,2.1,0.3,2.9l10.8,10.8c0.8,0.8,2,0.9,2.9,0.3l12.7-8.2c3.2,1.7,6.5,3,9.9,4l3.2,14.8c0.2,1,1.2,1.8,2.3,1.8h15.3
			c1.1,0,2.1-0.8,2.1-1.8l3.2-14.8c3.4-1,6.7-2.4,9.8-4.1l12.7,8.2c0.9,0.6,2.1,0.5,2.9-0.3l10.8-10.8c0.8-0.8,0.9-2,0.3-2.9
			l-8.1-12.6c1.8-3.2,3.2-6.5,4.2-10l14.6-3.2c1-0.2,1.8-1.2,1.8-2.3V93.2C162.5,92.1,161.8,91.1,160.7,90.9z M158.1,106.5
			l-14.1,3.1c-0.9,0.2-1.6,0.8-1.8,1.7c-1,4-2.7,7.8-4.8,11.4c-0.5,0.8-0.5,1.7,0,2.5l7.9,12.2l-8.1,8.1l-12.3-7.9
			c-0.8-0.4-1.7-0.4-2.5,0c-3.5,2-7.3,3.6-11.3,4.6c-0.8,0.2-1.5,0.9-1.7,1.8l-3.1,14.4H94.8l-3-14.4c-0.2-0.9-0.8-1.6-1.7-1.8
			c-4-1-7.8-2.5-11.3-4.6c-0.8-0.4-1.8-0.4-2.5,0.1L64,145.6l-8.1-8.1l7.8-12.2c0.5-0.8,0.5-1.7,0-2.5c-2.2-3.6-3.8-7.4-4.9-11.5
			c-0.2-0.9-0.9-1.5-1.8-1.7l-14.1-3V95.1l13.8-3c0.9-0.1,1.6-0.8,1.8-1.7c1-4.2,2.6-8.2,4.8-11.9c0.5-0.8,0.5-1.8,0-2.5l-7.5-11.9
			l8.1-8.1l11.7,7.6c0.8,0.5,1.7,0.5,2.5,0c3.7-2.3,7.8-3.9,12-5c0.8-0.2,1.5-0.9,1.7-1.8l2.9-13.6h11.5l2.9,13.6
			c0.2,0.9,0.8,1.6,1.7,1.8c4.2,1,8.3,2.7,12,5c0.8,0.5,1.7,0.5,2.5,0l11.8-7.6l8.1,8.1L137.6,76c-0.4,0.8-0.5,1.7,0,2.5
			c2.2,3.7,3.8,7.6,4.8,11.8c0.2,0.8,0.9,1.5,1.8,1.7l13.9,3V106.5z"/>
	</g>
	<g>
		<path class="st3" d="M100.5,82.7c-9.8,0-17.8,8-17.8,17.8s8,17.8,17.8,17.8s17.8-8,17.8-17.8S110.3,82.7,100.5,82.7z M100.5,113.5
			c-7.2,0-13.1-5.9-13.1-13.1c0-7.2,5.9-13.1,13.1-13.1s13.1,5.9,13.1,13.1C113.6,107.6,107.7,113.5,100.5,113.5z"/>
	</g>
	<g>
		<polygon class="st2" points="33.4,17 22.1,28.3 33.4,39.5 33.4,42.8 18.8,28.3 33.4,13.7 		"/>
		<path class="st3" d="M35,41.2l-3.3,3.3L17.2,29.9c-0.9-0.9-0.9-2.4,0-3.3L31.7,12l1.6,1.7l1.7,1.7L22.1,28.3L35,41.2z"/>
	</g>
</g>
</svg>
