<?xml version="1.0" encoding="UTF-8"?>
<svg xmlns="http://www.w3.org/2000/svg" id="Layer_1" data-name="Layer 1" viewBox="0 0 24 24">
  <path d="m3.638,9c-.618,0-1.098-.558-.989-1.166.359-2.001,1.356-3.861,2.855-5.266C7.439.753,9.966-.152,12.63.021c5.021.324,8.943,4.695,8.869,9.917-.04,2.818-2.389,5.063-5.208,5.063h-2.932c-.36.346-.846.561-1.384.561-1.105,0-2-.895-2-2s.895-2,2-2c.908,0,1.666.609,1.91,1.439h2.406c1.736,0,3.189-1.383,3.208-3.118.046-4.146-3.045-7.609-6.998-7.865-2.099-.13-4.101.578-5.63,2.011-1.209,1.133-1.988,2.584-2.261,4.178-.08.466-.5.795-.972.795Zm8.362,8c-3.695,0-6.892,2.292-7.955,5.702-.095.304-.04.635.149.891s.488.407.806.407h14c.318,0,.617-.151.806-.407s.244-.587.149-.891c-1.063-3.41-4.26-5.702-7.955-5.702Zm2.934-6h2.354c.135-.477.212-.979.212-1.5,0-3.038-2.462-5.5-5.5-5.5s-5.5,2.462-5.5,5.5c0,1.491.596,2.841,1.559,3.832.121-2.066,1.819-3.709,3.916-3.709,1.191,0,2.241.541,2.96,1.377Z"/>
</svg>
