<?xml version="1.0" encoding="utf-8"?>
<!-- Generator: Adobe Illustrator 25.2.3, SVG Export Plug-In . SVG Version: 6.00 Build 0)  -->
<svg version="1.1" id="Layer_1" xmlns="http://www.w3.org/2000/svg" xmlns:xlink="http://www.w3.org/1999/xlink" x="0px" y="0px"
	 viewBox="0 0 200 200" style="enable-background:new 0 0 200 200;" xml:space="preserve">
<style type="text/css">
	.st0{display:none;}
	.st1{display:inline;fill:none;stroke:#272525;stroke-miterlimit:10;}
	.st2{fill:none;}
</style>
<g id="Layer_3" class="st0">
	<rect x="-761.8" y="-333.1" class="st1" width="158.9" height="158.9"/>
	<rect x="-725.7" y="-297" class="st1" width="86.8" height="86.8"/>
	<rect x="-602.8" y="-333.1" class="st1" width="158.9" height="158.9"/>
	<rect x="-566.8" y="-297" class="st1" width="86.8" height="86.8"/>
	<rect x="-443.9" y="-333.1" class="st1" width="158.9" height="158.9"/>
	<rect x="-407.9" y="-297" class="st1" width="86.8" height="86.8"/>
	<rect x="-285" y="-333.1" class="st1" width="158.9" height="158.9"/>
	<rect x="-248.9" y="-297" class="st1" width="86.8" height="86.8"/>
	<rect x="-761.8" y="-174.2" class="st1" width="158.9" height="158.9"/>
	<rect x="-725.7" y="-138.1" class="st1" width="86.8" height="86.8"/>
	<rect x="-602.8" y="-174.2" class="st1" width="158.9" height="158.9"/>
	<rect x="-566.8" y="-138.1" class="st1" width="86.8" height="86.8"/>
	<rect x="-443.9" y="-174.2" class="st1" width="158.9" height="158.9"/>
	<rect x="-407.9" y="-138.1" class="st1" width="86.8" height="86.8"/>
	<rect x="-285" y="-174.2" class="st1" width="158.9" height="158.9"/>
	<rect x="-248.9" y="-138.1" class="st1" width="86.8" height="86.8"/>
	<rect x="-761.8" y="-15.2" class="st1" width="158.9" height="158.9"/>
	<rect x="-725.7" y="20.8" class="st1" width="86.8" height="86.8"/>
	<rect x="-602.8" y="-15.2" class="st1" width="158.9" height="158.9"/>
	<rect x="-566.8" y="20.8" class="st1" width="86.8" height="86.8"/>
	<rect x="-443.9" y="-15.2" class="st1" width="158.9" height="158.9"/>
	<rect x="-407.9" y="20.8" class="st1" width="86.8" height="86.8"/>
	<rect x="-285" y="-15.2" class="st1" width="158.9" height="158.9"/>
	<rect x="-248.9" y="20.8" class="st1" width="86.8" height="86.8"/>
	<rect x="-761.8" y="143.7" class="st1" width="158.9" height="158.9"/>
	<rect x="-725.7" y="179.7" class="st1" width="86.8" height="86.8"/>
	<rect x="-602.8" y="143.7" class="st1" width="158.9" height="158.9"/>
	<rect x="-566.8" y="179.7" class="st1" width="86.8" height="86.8"/>
	<rect x="-443.9" y="143.7" class="st1" width="158.9" height="158.9"/>
	<rect x="-407.9" y="179.7" class="st1" width="86.8" height="86.8"/>
	<rect x="-285" y="143.7" class="st1" width="158.9" height="158.9"/>
	<rect x="-248.9" y="179.7" class="st1" width="86.8" height="86.8"/>
</g>
<g id="Layer_1_1_">
	<g>
		<g>
			<path d="M80.6,175.3H64.9c-6,0-10.8-4.9-10.8-10.8V138c0-1.4-1.1-2.4-2.4-2.4H37.9c-1.5,0-2.3-1-2.5-1.4c-0.3-0.4-0.8-1.6,0-2.9
				L53.7,98c0.2-0.4,0.3-0.8,0.3-1.2v-1.2c0-5.4,0.8-10.8,2.3-16h17.1c-1.1-1.6-2.1-3.2-3-4.9H54.5c-1.1,0-2,0.7-2.3,1.7
				c-2,6.2-3.1,12.7-3.1,19.2v0.6L31,128.9c-1.4,2.4-1.3,5.3,0.1,7.7c1.4,2.4,3.9,3.8,6.7,3.8h11.3v24c0,8.7,7.1,15.7,15.7,15.7H78
				v16.5h5v-19C83,176.4,81.9,175.3,80.6,175.3z"/>
			<path d="M167.3,76.5c-0.3-1-1.3-1.7-2.3-1.7h-20.7c-0.9,1.7-1.9,3.3-3,4.9h21.8c1.3,4.8,2,9.7,2,14.7c0,16.6-7.3,32.1-20.1,42.7
				c-0.6,0.5-0.9,1.2-0.9,1.9v57.7h4.9v-56.6c13.3-11.5,21-28.1,21-45.8C169.9,88.3,169,82.3,167.3,76.5z"/>
		</g>
		<g>
			<path d="M120.2,105.7H94.5c-1.4,0-2.4-1.1-2.4-2.4v-1.4c0-8.1-3.3-16.1-9.4-22.5s-9.5-14.8-9.4-23.7c0.1-18,14.3-32.8,32.2-33.8
				c9.5-0.5,18.5,2.8,25.3,9.3c6.9,6.5,10.6,15.3,10.6,24.7c0,8.9-3.4,17.3-9.5,23.6c-6,6.2-9.2,14.1-9.2,22.3v1.4
				C122.7,104.6,121.6,105.7,120.2,105.7z M96.9,100.8h20.9c0.3-9.1,4-17.8,10.6-24.6c5.3-5.5,8.2-12.6,8.2-20.2
				c0-8.1-3.2-15.6-9.1-21.2s-13.6-8.4-21.7-8c-15.1,0.8-27.5,13.8-27.6,28.9c0,7.6,2.8,14.8,8,20.3C92.9,83,96.6,91.8,96.9,100.8z"
				/>
		</g>
		<g>
			<path d="M119.9,117.3H94.8c-4.6,0-8.3-3.7-8.3-8.3s3.7-8.3,8.3-8.3h25.1c4.6,0,8.3,3.7,8.3,8.3S124.5,117.3,119.9,117.3z
				 M94.8,105.7c-1.9,0-3.4,1.5-3.4,3.4s1.5,3.4,3.4,3.4h25.1c1.9,0,3.4-1.5,3.4-3.4s-1.5-3.4-3.4-3.4H94.8z"/>
		</g>
		<g>
			<path d="M119.9,128.9H94.8c-4.6,0-8.3-3.7-8.3-8.3s3.7-8.3,8.3-8.3h25.1c4.6,0,8.3,3.7,8.3,8.3S124.5,128.9,119.9,128.9z
				 M94.8,117.3c-1.9,0-3.4,1.5-3.4,3.4s1.5,3.4,3.4,3.4h25.1c1.9,0,3.4-1.5,3.4-3.4s-1.5-3.4-3.4-3.4H94.8z"/>
		</g>
		<g>
			<line class="st2" x1="107.3" y1="14.5" x2="107.3" y2="3.3"/>
			<rect x="104.9" y="3.3" width="4.9" height="11.3"/>
		</g>
		<g>
			<line class="st2" x1="136.5" y1="26.6" x2="144.5" y2="18.6"/>
			<rect x="134.8" y="20.2" transform="matrix(0.7071 -0.7071 0.7071 0.7071 25.1194 105.9663)" width="11.3" height="4.9"/>
		</g>
		<g>
			<line class="st2" x1="148.6" y1="55.8" x2="159.8" y2="55.8"/>
			<rect x="148.6" y="53.3" width="11.3" height="4.9"/>
		</g>
		<g>
			<line class="st2" x1="66.1" y1="55.8" x2="54.9" y2="55.8"/>
			<rect x="54.9" y="53.3" width="11.3" height="4.9"/>
		</g>
		<g>
			<line class="st2" x1="78.2" y1="26.6" x2="70.2" y2="18.6"/>
			<rect x="71.8" y="17" transform="matrix(0.7071 -0.7071 0.7071 0.7071 5.7513 59.135)" width="4.9" height="11.3"/>
		</g>
		<g>
			<line class="st2" x1="69" y1="96.3" x2="69" y2="104.7"/>
			<rect x="68" y="96.3" width="2" height="8.4"/>
		</g>
	</g>
</g>
</svg>
