<svg width="20" height="20" viewBox="0 0 20 20" fill="none" xmlns="http://www.w3.org/2000/svg">
<path fill-rule="evenodd" clip-rule="evenodd" d="M13.2246 14.6418L12.1045 13.5216C11.4384 13.6973 10.73 13.7998 9.99687 13.7998C8.09149 13.7998 6.35271 13.1076 5.09141 12.2363C4.46147 11.8012 3.96855 11.3336 3.6406 10.9083C3.2954 10.4606 3.19687 10.1443 3.19687 9.9998C3.19687 9.85528 3.2954 9.53899 3.6406 9.09131C3.96855 8.66601 4.46147 8.19839 5.09141 7.76326C5.33343 7.59609 5.59302 7.43551 5.868 7.28515L4.84239 6.25953C4.65252 6.37328 4.47011 6.4909 4.29574 6.61135C3.56845 7.11372 2.96302 7.67735 2.53192 8.23642C2.11808 8.77312 1.79688 9.39433 1.79688 9.9998C1.79688 10.6053 2.11808 11.2265 2.53192 11.7632C2.96302 12.3223 3.56845 12.8859 4.29574 13.3883C5.74891 14.392 7.76012 15.1998 9.99687 15.1998C11.1476 15.1998 12.2386 14.986 13.2246 14.6418ZM6.76914 5.35786C7.75518 5.01359 8.84618 4.7998 9.99687 4.7998C12.2336 4.7998 14.2448 5.60758 15.698 6.61135C16.4253 7.11372 17.0307 7.67735 17.4618 8.23642C17.8757 8.77312 18.1969 9.39433 18.1969 9.9998C18.1969 10.6053 17.8757 11.2265 17.4618 11.7632C17.0307 12.3223 16.4253 12.8859 15.698 13.3883C15.5236 13.5087 15.3412 13.6263 15.1514 13.7401L14.1257 12.7145C14.4007 12.5641 14.6603 12.4035 14.9023 12.2363C15.5323 11.8012 16.0252 11.3336 16.3531 10.9083C16.6983 10.4606 16.7969 10.1443 16.7969 9.9998C16.7969 9.85528 16.6983 9.53899 16.3531 9.09131C16.0252 8.66601 15.5323 8.19839 14.9023 7.76326C13.641 6.89203 11.9023 6.1998 9.99687 6.1998C9.26378 6.1998 8.55534 6.30228 7.88927 6.47799L6.76914 5.35786ZM6.92704 8.34419C6.64566 8.83165 6.48438 9.39512 6.48438 9.9998C6.48438 11.9042 8.08418 13.3998 9.99687 13.3998C10.5731 13.3998 11.1209 13.2641 11.6052 13.0223L10.5212 11.9383C10.3543 11.9784 10.1788 11.9998 9.99687 11.9998C8.80297 11.9998 7.88437 11.0777 7.88437 9.9998C7.88437 9.79202 7.91851 9.59003 7.98217 9.39931L6.92704 8.34419ZM9.4726 8.06131L8.38859 6.9773C8.87283 6.73554 9.42065 6.5998 9.99687 6.5998C11.9096 6.5998 13.5094 8.09538 13.5094 9.9998C13.5094 10.6045 13.3481 11.168 13.0667 11.6554L12.0116 10.6003C12.0752 10.4096 12.1094 10.2076 12.1094 9.9998C12.1094 8.92189 11.1908 7.9998 9.99687 7.9998C9.81497 7.9998 9.63945 8.02121 9.4726 8.06131Z" fill="#2D2D2D"/>
<path fill-rule="evenodd" clip-rule="evenodd" d="M13.2246 14.6418L12.1045 13.5216C11.4384 13.6973 10.73 13.7998 9.99687 13.7998C8.09149 13.7998 6.35271 13.1076 5.09141 12.2363C4.46147 11.8012 3.96855 11.3336 3.6406 10.9083C3.2954 10.4606 3.19687 10.1443 3.19687 9.9998C3.19687 9.85528 3.2954 9.53899 3.6406 9.09131C3.96855 8.66601 4.46147 8.19839 5.09141 7.76326C5.33343 7.59609 5.59302 7.43551 5.868 7.28515L4.84239 6.25953C4.65252 6.37328 4.47011 6.4909 4.29574 6.61135C3.56845 7.11372 2.96302 7.67735 2.53192 8.23642C2.11808 8.77312 1.79688 9.39433 1.79688 9.9998C1.79688 10.6053 2.11808 11.2265 2.53192 11.7632C2.96302 12.3223 3.56845 12.8859 4.29574 13.3883C5.74891 14.392 7.76012 15.1998 9.99687 15.1998C11.1476 15.1998 12.2386 14.986 13.2246 14.6418ZM6.76914 5.35786C7.75518 5.01359 8.84618 4.7998 9.99687 4.7998C12.2336 4.7998 14.2448 5.60758 15.698 6.61135C16.4253 7.11372 17.0307 7.67735 17.4618 8.23642C17.8757 8.77312 18.1969 9.39433 18.1969 9.9998C18.1969 10.6053 17.8757 11.2265 17.4618 11.7632C17.0307 12.3223 16.4253 12.8859 15.698 13.3883C15.5236 13.5087 15.3412 13.6263 15.1514 13.7401L14.1257 12.7145C14.4007 12.5641 14.6603 12.4035 14.9023 12.2363C15.5323 11.8012 16.0252 11.3336 16.3531 10.9083C16.6983 10.4606 16.7969 10.1443 16.7969 9.9998C16.7969 9.85528 16.6983 9.53899 16.3531 9.09131C16.0252 8.66601 15.5323 8.19839 14.9023 7.76326C13.641 6.89203 11.9023 6.1998 9.99687 6.1998C9.26378 6.1998 8.55534 6.30228 7.88927 6.47799L6.76914 5.35786ZM6.92704 8.34419C6.64566 8.83165 6.48438 9.39512 6.48438 9.9998C6.48438 11.9042 8.08418 13.3998 9.99687 13.3998C10.5731 13.3998 11.1209 13.2641 11.6052 13.0223L10.5212 11.9383C10.3543 11.9784 10.1788 11.9998 9.99687 11.9998C8.80297 11.9998 7.88437 11.0777 7.88437 9.9998C7.88437 9.79202 7.91851 9.59003 7.98217 9.39931L6.92704 8.34419ZM9.4726 8.06131L8.38859 6.9773C8.87283 6.73554 9.42065 6.5998 9.99687 6.5998C11.9096 6.5998 13.5094 8.09538 13.5094 9.9998C13.5094 10.6045 13.3481 11.168 13.0667 11.6554L12.0116 10.6003C12.0752 10.4096 12.1094 10.2076 12.1094 9.9998C12.1094 8.92189 11.1908 7.9998 9.99687 7.9998C9.81497 7.9998 9.63945 8.02121 9.4726 8.06131Z" fill="black" fill-opacity="0.2"/>
<path fill-rule="evenodd" clip-rule="evenodd" d="M13.2246 14.6418L12.1045 13.5216C11.4384 13.6973 10.73 13.7998 9.99687 13.7998C8.09149 13.7998 6.35271 13.1076 5.09141 12.2363C4.46147 11.8012 3.96855 11.3336 3.6406 10.9083C3.2954 10.4606 3.19687 10.1443 3.19687 9.9998C3.19687 9.85528 3.2954 9.53899 3.6406 9.09131C3.96855 8.66601 4.46147 8.19839 5.09141 7.76326C5.33343 7.59609 5.59302 7.43551 5.868 7.28515L4.84239 6.25953C4.65252 6.37328 4.47011 6.4909 4.29574 6.61135C3.56845 7.11372 2.96302 7.67735 2.53192 8.23642C2.11808 8.77312 1.79688 9.39433 1.79688 9.9998C1.79688 10.6053 2.11808 11.2265 2.53192 11.7632C2.96302 12.3223 3.56845 12.8859 4.29574 13.3883C5.74891 14.392 7.76012 15.1998 9.99687 15.1998C11.1476 15.1998 12.2386 14.986 13.2246 14.6418ZM6.76914 5.35786C7.75518 5.01359 8.84618 4.7998 9.99687 4.7998C12.2336 4.7998 14.2448 5.60758 15.698 6.61135C16.4253 7.11372 17.0307 7.67735 17.4618 8.23642C17.8757 8.77312 18.1969 9.39433 18.1969 9.9998C18.1969 10.6053 17.8757 11.2265 17.4618 11.7632C17.0307 12.3223 16.4253 12.8859 15.698 13.3883C15.5236 13.5087 15.3412 13.6263 15.1514 13.7401L14.1257 12.7145C14.4007 12.5641 14.6603 12.4035 14.9023 12.2363C15.5323 11.8012 16.0252 11.3336 16.3531 10.9083C16.6983 10.4606 16.7969 10.1443 16.7969 9.9998C16.7969 9.85528 16.6983 9.53899 16.3531 9.09131C16.0252 8.66601 15.5323 8.19839 14.9023 7.76326C13.641 6.89203 11.9023 6.1998 9.99687 6.1998C9.26378 6.1998 8.55534 6.30228 7.88927 6.47799L6.76914 5.35786ZM6.92704 8.34419C6.64566 8.83165 6.48438 9.39512 6.48438 9.9998C6.48438 11.9042 8.08418 13.3998 9.99687 13.3998C10.5731 13.3998 11.1209 13.2641 11.6052 13.0223L10.5212 11.9383C10.3543 11.9784 10.1788 11.9998 9.99687 11.9998C8.80297 11.9998 7.88437 11.0777 7.88437 9.9998C7.88437 9.79202 7.91851 9.59003 7.98217 9.39931L6.92704 8.34419ZM9.4726 8.06131L8.38859 6.9773C8.87283 6.73554 9.42065 6.5998 9.99687 6.5998C11.9096 6.5998 13.5094 8.09538 13.5094 9.9998C13.5094 10.6045 13.3481 11.168 13.0667 11.6554L12.0116 10.6003C12.0752 10.4096 12.1094 10.2076 12.1094 9.9998C12.1094 8.92189 11.1908 7.9998 9.99687 7.9998C9.81497 7.9998 9.63945 8.02121 9.4726 8.06131Z" fill="black" fill-opacity="0.2"/>
<path d="M4 4L16 16" stroke="#2D2D2D" stroke-width="1.4"/>
<path d="M4 4L16 16" stroke="black" stroke-opacity="0.2" stroke-width="1.4"/>
<path d="M4 4L16 16" stroke="black" stroke-opacity="0.2" stroke-width="1.4"/>
</svg>
