<svg xmlns="http://www.w3.org/2000/svg" width="14.35" height="14.35" viewBox="0 0 14.35 14.35">
  <path id="free-icon-font-circle-phone-8034631" d="M7.175,0A7.175,7.175,0,1,0,14.35,7.175,7.183,7.183,0,0,0,7.175,0Zm3.387,9.918-.312.359a1.677,1.677,0,0,1-1.2.486c-2.221,0-5.467-3.075-5.467-5.467a1.677,1.677,0,0,1,.486-1.2l.359-.312a.684.684,0,0,1,.966,0l.6.778a.684.684,0,0,1,0,.966l-.509.639A4.556,4.556,0,0,0,8.178,8.862l.639-.509a.684.684,0,0,1,.966,0l.778.6a.684.684,0,0,1,0,.966Z" fill="#59c29a"/>
</svg>
