<?xml version="1.0" encoding="utf-8"?>
<!-- Generator: Adobe Illustrator 25.2.3, SVG Export Plug-In . SVG Version: 6.00 Build 0)  -->
<svg version="1.1" id="Layer_1" xmlns="http://www.w3.org/2000/svg" xmlns:xlink="http://www.w3.org/1999/xlink" x="0px" y="0px"
	 viewBox="0 0 200 200" style="enable-background:new 0 0 200 200;" xml:space="preserve">
<style type="text/css">
	.st0{display:none;}
	.st1{display:inline;fill:none;stroke:#272525;stroke-miterlimit:10;}
	.st2{fill:#3754D1;}
	.st3{fill:#FFFFFF;}
	.st4{fill:none;}
</style>
<g id="Layer_3" class="st0">
	<rect x="-761.8" y="-333.1" class="st1" width="158.9" height="158.9"/>
	<rect x="-725.7" y="-297" class="st1" width="86.8" height="86.8"/>
	<rect x="-602.8" y="-333.1" class="st1" width="158.9" height="158.9"/>
	<rect x="-566.8" y="-297" class="st1" width="86.8" height="86.8"/>
	<rect x="-443.9" y="-333.1" class="st1" width="158.9" height="158.9"/>
	<rect x="-407.9" y="-297" class="st1" width="86.8" height="86.8"/>
	<rect x="-285" y="-333.1" class="st1" width="158.9" height="158.9"/>
	<rect x="-248.9" y="-297" class="st1" width="86.8" height="86.8"/>
	<rect x="-761.8" y="-174.2" class="st1" width="158.9" height="158.9"/>
	<rect x="-725.7" y="-138.1" class="st1" width="86.8" height="86.8"/>
	<rect x="-602.8" y="-174.2" class="st1" width="158.9" height="158.9"/>
	<rect x="-566.8" y="-138.1" class="st1" width="86.8" height="86.8"/>
	<rect x="-443.9" y="-174.2" class="st1" width="158.9" height="158.9"/>
	<rect x="-407.9" y="-138.1" class="st1" width="86.8" height="86.8"/>
	<rect x="-285" y="-174.2" class="st1" width="158.9" height="158.9"/>
	<rect x="-248.9" y="-138.1" class="st1" width="86.8" height="86.8"/>
	<rect x="-761.8" y="-15.2" class="st1" width="158.9" height="158.9"/>
	<rect x="-725.7" y="20.8" class="st1" width="86.8" height="86.8"/>
	<rect x="-602.8" y="-15.2" class="st1" width="158.9" height="158.9"/>
	<rect x="-566.8" y="20.8" class="st1" width="86.8" height="86.8"/>
	<rect x="-443.9" y="-15.2" class="st1" width="158.9" height="158.9"/>
	<rect x="-407.9" y="20.8" class="st1" width="86.8" height="86.8"/>
	<rect x="-285" y="-15.2" class="st1" width="158.9" height="158.9"/>
	<rect x="-248.9" y="20.8" class="st1" width="86.8" height="86.8"/>
	<rect x="-761.8" y="143.7" class="st1" width="158.9" height="158.9"/>
	<rect x="-725.7" y="179.7" class="st1" width="86.8" height="86.8"/>
	<rect x="-602.8" y="143.7" class="st1" width="158.9" height="158.9"/>
	<rect x="-566.8" y="179.7" class="st1" width="86.8" height="86.8"/>
	<rect x="-443.9" y="143.7" class="st1" width="158.9" height="158.9"/>
	<rect x="-407.9" y="179.7" class="st1" width="86.8" height="86.8"/>
	<rect x="-285" y="143.7" class="st1" width="158.9" height="158.9"/>
	<rect x="-248.9" y="179.7" class="st1" width="86.8" height="86.8"/>
</g>
<g>
	<g>
		<path class="st2" d="M62.9,26.1l-1.7,2.2l-1.6,2.1L35.5,61.7v0l-1.6,2.1L32.2,66c-0.7-1.6-2.2-2.8-4-3.1l1.7-2.2l1.6-2.1
			l24.1-31.3l1.6-2.1l1.7-2.2C59.6,24.7,61.1,25.8,62.9,26.1z"/>
		<path class="st2" d="M99.6,71.7c-1.9,0.1-3.4,1.2-4.3,2.7l-1.5-2.3l-1.4-2.2L67,30.7l-1.4-2.2l-1.5-2.3c1.9-0.1,3.4-1.2,4.3-2.7
			l1.5,2.3l1.4,2.2l25.4,39.2l1.4,2.2L99.6,71.7z"/>
		<path class="st2" d="M135.7,32.6l-1.7,2.2l-1.5,2.1L108,70.3v0l-1.5,2.1l-1.6,2.2c-0.8-1.6-2.3-2.7-4.1-3l1.7-2.2l1.5-2.1
			l24.5-33.4l1.5-2.1l1.7-2.2C132.3,31.2,133.8,32.3,135.7,32.6z"/>
		<path class="st2" d="M172.2,77.7c-1.9,0.1-3.4,1.2-4.2,2.8l-1.5-2.3c0,0,0,0,0,0L165,76l-25.4-38.8l-1.5-2.2l-1.5-2.3
			c1.9-0.1,3.4-1.2,4.2-2.7l1.5,2.3l1.4,2.2l25.3,38.8l1.4,2.2L172.2,77.7z"/>
	</g>
	<g>
		<path class="st3" d="M17.4,113.7v73.2h20.1v-73.2H17.4z M19.9,184.3v-68.1h15v68.1H19.9z"/>
		<path class="st2" d="M37.4,111.1H17.4c-1.4,0-2.5,1.1-2.5,2.5v73.2c0,1.4,1.1,2.5,2.5,2.5h20.1c1.4,0,2.5-1.1,2.5-2.5v-73.2
			C40,112.3,38.8,111.1,37.4,111.1z M34.9,184.3h-15v-68.1h15V184.3z"/>
	</g>
	<g>
		<path class="st3" d="M53.7,75.1v111.8h20.1V75.1H53.7z M56.2,184.3V77.6h15v106.7H56.2z"/>
		<path class="st2" d="M73.7,72.5H53.7c-1.4,0-2.5,1.1-2.5,2.5v111.8c0,1.4,1.1,2.5,2.5,2.5h20.1c1.4,0,2.5-1.1,2.5-2.5V75.1
			C76.3,73.7,75.1,72.5,73.7,72.5z M71.2,184.3h-15V77.6h15V184.3z"/>
	</g>
	<g>
		<path class="st3" d="M90,121.4v65.4H110v-65.4H90z M92.5,184.3V124h15v60.4H92.5z"/>
		<path class="st2" d="M110,118.9H90c-1.4,0-2.5,1.1-2.5,2.5v65.4c0,1.4,1.1,2.5,2.5,2.5H110c1.4,0,2.5-1.1,2.5-2.5v-65.4
			C112.6,120,111.4,118.9,110,118.9z M107.5,184.3h-15V124h15V184.3z"/>
	</g>
	<g>
		<path class="st3" d="M126.3,81.5v105.3h20V81.5H126.3z M128.8,184.3V84.1h15v100.3H128.8z"/>
		<path class="st2" d="M146.3,79h-20c-1.4,0-2.5,1.1-2.5,2.5v105.3c0,1.4,1.1,2.5,2.5,2.5h20c1.4,0,2.5-1.1,2.5-2.5V81.5
			C148.9,80.1,147.7,79,146.3,79z M143.8,184.3h-15V84.1h15V184.3z"/>
	</g>
	<g>
		<path class="st3" d="M162.6,129.7v57.2h20v-57.2H162.6z M165.1,184.3v-52.1h15v52.1H165.1z"/>
		<path class="st2" d="M182.6,127.2h-20c-1.4,0-2.5,1.1-2.5,2.5v57.2c0,1.4,1.1,2.5,2.5,2.5h20c1.4,0,2.5-1.1,2.5-2.5v-57.2
			C185.2,128.3,184.1,127.2,182.6,127.2z M180.1,184.3h-15v-52.1h15V184.3z"/>
	</g>
	<g>
		<line class="st4" x1="2.4" y1="186.9" x2="197.6" y2="186.9"/>
		<rect x="2.4" y="184.3" class="st2" width="195.1" height="5.1"/>
	</g>
	<g>
		<path class="st3" d="M63.7,13.1c-4.3,0-7.8,3.5-7.8,7.8c0,1.6,0.5,3.1,1.3,4.3c0.9,1.4,2.4,2.5,4,3.1c0.8,0.3,1.6,0.4,2.5,0.4
			c0.7,0,1.3-0.1,1.9-0.2c1.7-0.4,3.2-1.4,4.2-2.8c1-1.3,1.7-3,1.7-4.8C71.5,16.6,68,13.1,63.7,13.1z M64.1,26.1L64.1,26.1l-0.6-0.8
			l-0.6,0.8h0c-1.8-0.3-3.3-1.5-4-3.1c-0.3-0.7-0.4-1.4-0.4-2.1c0-2.9,2.4-5.3,5.3-5.3c2.9,0,5.3,2.4,5.3,5.3c0,0.9-0.2,1.8-0.6,2.5
			C67.5,24.9,65.9,26,64.1,26.1z"/>
		<path class="st2" d="M63.7,10.6c-5.7,0-10.3,4.6-10.3,10.3c0,2.4,0.8,4.6,2.2,6.4c1.1,1.3,2.4,2.4,4,3.1c1.2,0.6,2.6,0.9,4.1,0.9
			c1.2,0,2.3-0.2,3.3-0.6c1.6-0.6,3.1-1.5,4.2-2.7c1.7-1.9,2.8-4.3,2.8-7C74,15.2,69.4,10.6,63.7,10.6z M64.1,26.1L64.1,26.1
			c-0.2,0-0.3,0-0.4,0c-0.3,0-0.5,0-0.8-0.1h0c-1.8-0.3-3.3-1.5-4-3.1c-0.3-0.7-0.4-1.4-0.4-2.1c0-2.9,2.4-5.3,5.3-5.3
			c2.9,0,5.3,2.4,5.3,5.3c0,0.9-0.2,1.8-0.6,2.5C67.5,24.9,65.9,26,64.1,26.1z"/>
	</g>
	<g>
		<path class="st3" d="M106.4,72.5c-1-1.4-2.4-2.5-4.1-3c-0.7-0.2-1.5-0.4-2.3-0.4c-0.7,0-1.3,0.1-1.9,0.2c-1.7,0.4-3.2,1.4-4.3,2.8
			c-1,1.3-1.7,3-1.7,4.8c0,4.3,3.5,7.8,7.8,7.8c4.3,0,7.8-3.5,7.8-7.8C107.8,75.3,107.3,73.7,106.4,72.5z M100,82.2
			c-2.9,0-5.3-2.4-5.3-5.3c0-0.9,0.2-1.8,0.6-2.5c0.8-1.5,2.4-2.6,4.3-2.7h0l0.5,0.8l0.5-0.7c1.8,0.2,3.4,1.4,4.1,3
			c0.3,0.7,0.5,1.4,0.5,2.2C105.3,79.8,102.9,82.2,100,82.2z"/>
		<path class="st2" d="M108,70.4L108,70.4c-1.1-1.3-2.5-2.4-4.1-3c-1.2-0.5-2.5-0.8-3.9-0.8c-1.2,0-2.3,0.2-3.3,0.6
			c-1.7,0.6-3.1,1.5-4.2,2.7c-1.7,1.9-2.8,4.3-2.8,7c0,5.7,4.6,10.3,10.3,10.3c5.7,0,10.3-4.6,10.3-10.3
			C110.3,74.4,109.4,72.2,108,70.4z M105.3,76.9c0,2.9-2.4,5.3-5.3,5.3s-5.3-2.4-5.3-5.3c0-0.9,0.2-1.8,0.6-2.5
			c0.8-1.5,2.4-2.6,4.3-2.7h0c0.1,0,0.2,0,0.4,0c0.2,0,0.5,0,0.7,0.1c1.8,0.2,3.4,1.4,4.1,3C105.1,75.4,105.3,76.1,105.3,76.9z"/>
	</g>
	<g>
		<path class="st3" d="M136.3,19.6c-4.3,0-7.8,3.5-7.8,7.8c0,1.7,0.5,3.2,1.4,4.4c1,1.4,2.4,2.5,4.1,3c0.7,0.2,1.5,0.4,2.3,0.4
			c0.7,0,1.3-0.1,1.9-0.3c1.7-0.4,3.2-1.4,4.3-2.7c1-1.3,1.7-3,1.7-4.8C144.1,23.1,140.6,19.6,136.3,19.6z M136.7,32.6l-0.5-0.8
			l-0.5,0.7c-1.8-0.2-3.4-1.4-4.1-3c-0.3-0.7-0.5-1.4-0.5-2.2c0-2.9,2.4-5.3,5.3-5.3c2.9,0,5.3,2.4,5.3,5.3c0,0.9-0.2,1.8-0.6,2.5
			C140.1,31.4,138.6,32.5,136.7,32.6z"/>
		<path class="st2" d="M136.3,17c-5.7,0-10.3,4.6-10.3,10.3c0,2.5,0.9,4.8,2.4,6.6c1.1,1.3,2.5,2.4,4.1,3c1.2,0.5,2.5,0.8,3.9,0.8
			c1.2,0,2.3-0.2,3.4-0.6c1.6-0.6,3.1-1.5,4.2-2.8c1.7-1.8,2.7-4.3,2.7-7C146.7,21.7,142,17,136.3,17z M136.7,32.6
			c-0.1,0-0.3,0-0.4,0c-0.2,0-0.5,0-0.7-0.1c-1.8-0.2-3.4-1.4-4.1-3c-0.3-0.7-0.5-1.4-0.5-2.2c0-2.9,2.4-5.3,5.3-5.3
			c2.9,0,5.3,2.4,5.3,5.3c0,0.9-0.2,1.8-0.6,2.5C140.1,31.4,138.6,32.5,136.7,32.6z"/>
	</g>
	<g>
		<path class="st3" d="M172.6,75.1c-0.7,0-1.3,0.1-1.9,0.3c-1.7,0.4-3.2,1.4-4.2,2.8c0,0,0,0,0,0c-1,1.3-1.6,3-1.6,4.8
			c0,4.3,3.5,7.8,7.8,7.8c4.3,0,7.8-3.5,7.8-7.8C180.4,78.6,176.9,75.1,172.6,75.1z M172.6,88.2c-2.9,0-5.3-2.4-5.3-5.3
			c0-0.9,0.2-1.8,0.6-2.5c0.8-1.5,2.4-2.6,4.2-2.8c0.1,0,0.3,0,0.4,0c2.9,0,5.3,2.4,5.3,5.3C177.9,85.8,175.5,88.2,172.6,88.2z"/>
		<path class="st2" d="M172.6,72.6c-1.2,0-2.3,0.2-3.4,0.6c-1.7,0.6-3.1,1.5-4.2,2.8c-1.7,1.8-2.7,4.3-2.7,7
			c0,5.7,4.6,10.3,10.3,10.3c5.7,0,10.3-4.6,10.3-10.3C183,77.2,178.3,72.6,172.6,72.6z M172.6,88.2c-2.9,0-5.3-2.4-5.3-5.3
			c0-0.9,0.2-1.8,0.6-2.5c0.8-1.5,2.4-2.6,4.2-2.8c0.1,0,0.3,0,0.4,0c2.9,0,5.3,2.4,5.3,5.3C177.9,85.8,175.5,88.2,172.6,88.2z"/>
	</g>
	<g>
		<path class="st3" d="M33.9,63.8c-0.9-1.4-2.4-2.5-4-3.1c-0.8-0.3-1.6-0.4-2.5-0.4c-4.3,0-7.8,3.5-7.8,7.8c0,4.3,3.5,7.8,7.8,7.8
			s7.8-3.5,7.8-7.8C35.2,66.5,34.7,65,33.9,63.8z M27.4,73.4c-2.9,0-5.3-2.4-5.3-5.3c0-2.9,2.4-5.3,5.3-5.3c0.3,0,0.5,0,0.8,0.1h0
			c1.8,0.3,3.3,1.5,4,3.1c0.3,0.6,0.4,1.3,0.4,2.1C32.6,71,30.3,73.4,27.4,73.4z"/>
		<path class="st2" d="M35.5,61.7L35.5,61.7c-1-1.3-2.4-2.4-4-3.1c-1.2-0.6-2.6-0.9-4.1-0.9c-5.7,0-10.3,4.6-10.3,10.3
			c0,5.7,4.6,10.3,10.3,10.3c5.7,0,10.3-4.6,10.3-10.3C37.7,65.7,36.9,63.5,35.5,61.7z M32.6,68.1c0,2.9-2.4,5.3-5.3,5.3
			s-5.3-2.4-5.3-5.3c0-2.9,2.4-5.3,5.3-5.3c0.3,0,0.5,0,0.8,0.1h0c1.8,0.3,3.3,1.5,4,3.1C32.5,66.6,32.6,67.4,32.6,68.1z"/>
	</g>
</g>
</svg>
