<svg id="Layer_1" viewBox="0 0 24 24" xmlns="http://www.w3.org/2000/svg" data-name="Layer 1"><path d="m16.5 17c-.169 0-.335-.004-.5-.008v-3.029c.168.004.331.011.505.012 2.904-.008 5.064-.475 6.483-1.387-.007 2.615-.01.838.012 1.424-.09 2.26-2.839 2.978-6.5 2.988zm0-10c3.662-.01 6.41-.728 6.5-2.987-.082-2.171-2.851-2.977-6.5-2.988-3.662.011-6.414.771-6.5 2.988.09 2.253 2.852 2.978 6.5 2.987zm.005 1.975c-.221 0-.43-.009-.642-.015.079.32.124.641.136.952l-.007 2.08c.168.004.336.007.508.008 3.662-.01 6.41-.728 6.5-2.988-.022-.586-.019 1.191-.012-1.424-1.419.912-3.578 1.379-6.483 1.387zm-2.517 4.638c-1.419.912-3.578 1.379-6.483 1.387-2.899-.008-5.055-.472-6.476-1.376.013 2.341.017.214-.029 1.414.09 2.253 2.852 2.978 6.5 2.988 3.662-.01 6.41-.728 6.5-2.988-.022-.586-.019 1.191-.012-1.424zm-6.488-.613c3.662-.01 6.41-.728 6.5-2.987-.082-2.171-2.851-2.977-6.5-2.988-3.662.011-6.414.771-6.5 2.988.09 2.253 2.852 2.978 6.5 2.987zm6.488 5.588c-1.419.912-3.578 1.379-6.483 1.387-2.899-.008-5.055-.472-6.476-1.376 0 0 .017.214-.029 1.414.09 2.253 2.852 2.978 6.5 2.988 3.662-.01 6.41-.728 6.5-2.988-.022-.586-.012-1.424-.012-1.424zm9-1c-1.419.912-3.578 1.379-6.483 1.387-.002 0-.003 0-.005 0-.177 0-.342-.008-.513-.012-.009.256.006.882.012 1.129-.028.705-.193 1.33-.479 1.884.319.013.644.023.98.024 3.662-.01 6.41-.728 6.5-2.988-.022-.586-.019 1.191-.012-1.424z"/></svg>