<svg width="20" height="20" viewBox="0 0 20 20" fill="none" xmlns="http://www.w3.org/2000/svg">
<mask id="path-1-inside-1_50_93923" fill="white">
<path d="M10 18H3C2.44772 18 2 17.5523 2 17L2 3C2 2.44771 2.44772 2 3 2H10L10 18Z"/>
</mask>
<path d="M10 19.4H3C1.67452 19.4 0.6 18.3255 0.6 17L3.4 16.6H10V19.4ZM0.6 3C0.6 1.67452 1.67452 0.6 3 0.6H10V3.4H3.4L0.6 3ZM10 2L10 18L10 2ZM3 19.4C1.67452 19.4 0.6 18.3255 0.6 17L0.6 3C0.6 1.67452 1.67452 0.6 3 0.6L3.4 3.4L3.4 16.6L3 19.4Z" fill="#2D2D2D" mask="url(#path-1-inside-1_50_93923)"/>
<path d="M10 19.4H3C1.67452 19.4 0.6 18.3255 0.6 17L3.4 16.6H10V19.4ZM0.6 3C0.6 1.67452 1.67452 0.6 3 0.6H10V3.4H3.4L0.6 3ZM10 2L10 18L10 2ZM3 19.4C1.67452 19.4 0.6 18.3255 0.6 17L0.6 3C0.6 1.67452 1.67452 0.6 3 0.6L3.4 3.4L3.4 16.6L3 19.4Z" fill="black" fill-opacity="0.2" mask="url(#path-1-inside-1_50_93923)"/>
<path d="M10 19.4H3C1.67452 19.4 0.6 18.3255 0.6 17L3.4 16.6H10V19.4ZM0.6 3C0.6 1.67452 1.67452 0.6 3 0.6H10V3.4H3.4L0.6 3ZM10 2L10 18L10 2ZM3 19.4C1.67452 19.4 0.6 18.3255 0.6 17L0.6 3C0.6 1.67452 1.67452 0.6 3 0.6L3.4 3.4L3.4 16.6L3 19.4Z" fill="black" fill-opacity="0.2" mask="url(#path-1-inside-1_50_93923)"/>
<path d="M5 10H17" stroke="#2D2D2D" stroke-width="1.4"/>
<path d="M5 10H17" stroke="black" stroke-opacity="0.2" stroke-width="1.4"/>
<path d="M5 10H17" stroke="black" stroke-opacity="0.2" stroke-width="1.4"/>
<path d="M13.5 6.5L17 10L13.5 13.5" stroke="#2D2D2D" stroke-width="1.2"/>
<path d="M13.5 6.5L17 10L13.5 13.5" stroke="black" stroke-opacity="0.2" stroke-width="1.2"/>
<path d="M13.5 6.5L17 10L13.5 13.5" stroke="black" stroke-opacity="0.2" stroke-width="1.2"/>
</svg>
