<svg width="20" height="20" viewBox="0 0 20 20" fill="none" xmlns="http://www.w3.org/2000/svg">
<path fill-rule="evenodd" clip-rule="evenodd" d="M13.9333 8.01205L10.6969 11.2484V2.1582H9.29693V11.2484L6.06058 8.01206L5.07063 9.002L9.50196 13.4333L9.99693 13.9283L10.4919 13.4333L14.9232 9.002L13.9333 8.01205ZM1.79707 13.5005V16.5005C1.79707 16.8871 2.11047 17.2005 2.49707 17.2005H17.4971C17.8837 17.2005 18.1971 16.8871 18.1971 16.5005V13.5005H16.7971V15.8005H3.19707V13.5005H1.79707Z" fill="#2D2D2D"/>
<path fill-rule="evenodd" clip-rule="evenodd" d="M13.9333 8.01205L10.6969 11.2484V2.1582H9.29693V11.2484L6.06058 8.01206L5.07063 9.002L9.50196 13.4333L9.99693 13.9283L10.4919 13.4333L14.9232 9.002L13.9333 8.01205ZM1.79707 13.5005V16.5005C1.79707 16.8871 2.11047 17.2005 2.49707 17.2005H17.4971C17.8837 17.2005 18.1971 16.8871 18.1971 16.5005V13.5005H16.7971V15.8005H3.19707V13.5005H1.79707Z" fill="black" fill-opacity="0.2"/>
<path fill-rule="evenodd" clip-rule="evenodd" d="M13.9333 8.01205L10.6969 11.2484V2.1582H9.29693V11.2484L6.06058 8.01206L5.07063 9.002L9.50196 13.4333L9.99693 13.9283L10.4919 13.4333L14.9232 9.002L13.9333 8.01205ZM1.79707 13.5005V16.5005C1.79707 16.8871 2.11047 17.2005 2.49707 17.2005H17.4971C17.8837 17.2005 18.1971 16.8871 18.1971 16.5005V13.5005H16.7971V15.8005H3.19707V13.5005H1.79707Z" fill="black" fill-opacity="0.2"/>
</svg>
