<svg id="Capa_1" enable-background="new 0 0 512 512" height="512" viewBox="0 0 512 512" width="512" xmlns="http://www.w3.org/2000/svg"><g id="Like_1_"><g><path d="m195 90h-15v90h-30v90c5.103 0 98.534 0 93.281 0l22.5-90h-55.781v-75c0-8.276-6.724-15-15-15z"/><path d="m90 180h30v90h-30z"/><path d="m45 0c-24.814 0-45 20.186-45 45v396.211l81.211-81.211h128.789v-60c-11.515 0-157.508 0-150 0v-150c3.907 0 94.537 0 90 0v-90h45c24.814 0 45 20.186 45 45v45h64.219l-30 120h85.781v-270z"/></g><path d="m465 300h-225v105c0 24.814 20.186 45 45 45h145.005l81.995 62v-167c0-24.814-22.186-45-47-45zm-135 90h-30v-30h30zm60 0h-30v-30h30zm60 0h-30v-30h30z"/></g></svg>