<svg xmlns="http://www.w3.org/2000/svg" width="39.241" height="39.237" viewBox="0 0 39.241 39.237">
  <path id="free-icon-font-megaphone-3914501" d="M37.6,26.158a1.635,1.635,0,0,1-.729-.172L33.6,24.352a1.636,1.636,0,0,1,1.462-2.926l3.27,1.635a1.635,1.635,0,0,1-.732,3.1ZM35.064,11.281l3.27-1.635a1.636,1.636,0,0,0-1.462-2.926L33.6,8.354a1.636,1.636,0,0,0,1.462,2.926Zm4.174,5.068A1.635,1.635,0,0,0,37.6,14.714h-3.27a1.635,1.635,0,1,0,0,3.27H37.6A1.635,1.635,0,0,0,39.237,16.349ZM29.428,31.063V1.635a1.635,1.635,0,0,0-3.27,0c0,4.821-4.223,6.54-8.174,6.54H6.54A6.54,6.54,0,0,0,0,14.714v3.27a6.54,6.54,0,0,0,6.54,6.54H17.984c3.952,0,8.174,1.718,8.174,6.54a1.635,1.635,0,0,0,3.27,0Zm-16.045-3.27H6.54A9.81,9.81,0,0,1,4.28,27.52l4.087,9.126a4.367,4.367,0,0,0,3.989,2.591,4.025,4.025,0,0,0,3.665-5.676Z" fill="#fff"/>
</svg>
