<svg id="Capa_1" enable-background="new 0 0 512 512" height="512" viewBox="0 0 512 512" width="512" xmlns="http://www.w3.org/2000/svg"><g><circle cx="75" cy="347" r="45"/><path d="m75 392c-41.353 0-75 33.647-75 75v45h150v-45c0-41.353-33.647-75-75-75z"/><path d="m256 392c-41.353 0-75 33.647-75 75v45h150v-45c0-41.353-33.647-75-75-75z"/><path d="m301 347c0-24.814-20.186-45-45-45s-45 20.186-45 45v45h90z"/><circle cx="437" cy="347" r="45"/><path d="m437 392c-41.353 0-75 33.647-75 75v45h150v-45c0-41.353-33.647-75-75-75z"/><path d="m0 0v30h31v242h450v-242h31v-30c-144.552 0-256.896 0-512 0zm121 212h-30v-120h30zm60 0h-30v-150h30zm60 0h-30v-90h30zm180 0h-120v-30h120zm0-60h-120v-30h120zm0-60h-120v-30h120z"/></g></svg>