<?xml version="1.0" encoding="UTF-8"?>
<svg id="_레이어_2" data-name="레이어 2" xmlns="http://www.w3.org/2000/svg" viewBox="0 0 297.14 69">
  <defs>
    <style>
      .cls-1 {
        fill: #ccc;
      }

      .cls-2 {
        fill: #da1a32;
      }
    </style>
  </defs>
  <g id="video_play" data-name="video play">
    <g>
      <path class="cls-2" d="M17.16.02L0,69,46.51,21.82,17.16.02Z"/>
      <path class="cls-1" d="M68.04,0l15.85,69-56.27-27.99L68.04,0Z"/>
      <path class="cls-2" d="M89.67,14.87h2.17l1.77,2.86,1.77-2.86h2.17v7.38h-2.04v-4.24l-1.89,2.88h-.04l-1.89-2.88v4.23h-2.01v-7.38h0ZM101.68,18.58v-.02c0-2.12,1.71-3.83,4-3.83s3.98,1.71,3.98,3.81v.02c0,2.12-1.71,3.83-4,3.83s-3.98-1.71-3.98-3.81ZM107.56,18.58v-.02c0-1.07-.76-1.99-1.89-1.99s-1.89.91-1.89,1.97v.02c0,1.05.77,1.99,1.9,1.99s1.88-.91,1.88-1.97ZM113.79,14.87h1.92l3.05,3.9v-3.9h2.03v7.38h-1.79l-3.18-4.05v4.05h-2.03v-7.38ZM126.98,16.67h-2.21v-1.79h6.48v1.79h-2.22v5.59h-2.05v-5.59ZM134.66,18.58v-.02c0-2.15,1.69-3.83,3.98-3.83,1.31,0,2.21.39,3,1.06l-1.2,1.46c-.54-.45-1.04-.7-1.79-.7-1.06,0-1.9.88-1.9,2.01v.02c0,1.2.84,2.05,2.01,2.05.51,0,.89-.1,1.18-.31v-.9h-1.45v-1.5h3.4v3.32c-.9.76-2.04,1.16-3.21,1.15-2.32,0-4.02-1.57-4.02-3.81h0ZM145.86,18.58v-.02c0-2.12,1.71-3.83,4-3.83s3.98,1.71,3.98,3.81v.02c0,2.12-1.71,3.83-4,3.83s-3.98-1.71-3.98-3.81ZM151.74,18.58v-.02c0-1.07-.76-1.99-1.9-1.99s-1.88.91-1.88,1.97v.02c0,1.05.77,1.99,1.9,1.99s1.88-.91,1.88-1.97h0ZM157.98,14.87h2.17l1.77,2.86,1.77-2.86h2.16v7.38h-2.04v-4.24l-1.9,2.88h-.04l-1.89-2.88v4.23h-2.01v-7.38h0ZM170.23,14.87h5.96v1.72h-3.93v1.13h3.56v1.61h-3.56v1.17h3.98v1.74h-6.01v-7.38ZM180.37,14.87h3.5c1.15,0,1.91.3,2.41.8.43.43.65,1.01.65,1.72v.02c0,1.14-.6,1.89-1.52,2.28l1.77,2.57h-2.36l-1.49-2.23h-.91v2.23h-2.05v-7.38s0,0,0,0ZM183.78,18.42c.69,0,1.1-.33,1.1-.87v-.02c0-.59-.43-.88-1.12-.88h-1.36v1.78h1.38s0-.01,0-.01ZM192.93,19.48l-2.83-4.62h2.34l1.52,2.69,1.54-2.69h2.3l-2.82,4.59v2.8h-2.05v-2.76h0ZM207.51,18.58v-.02c0-2.15,1.65-3.83,3.9-3.83,1.5,0,2.5.63,3.15,1.53l-1.55,1.19c-.42-.52-.89-.86-1.62-.86-1.04,0-1.77.88-1.77,1.96v.02c0,1.11.73,1.97,1.77,1.97.77,0,1.21-.35,1.67-.9l1.55,1.09c-.71.96-1.65,1.67-3.27,1.67-2.12,0-3.82-1.61-3.82-3.81h0s0,0,0,0ZM218.1,18.58v-.02c0-2.12,1.71-3.83,4-3.83s3.98,1.71,3.98,3.81v.02c0,2.12-1.71,3.83-4,3.83s-3.98-1.71-3.98-3.81ZM223.98,18.58v-.02c0-1.07-.76-1.99-1.9-1.99s-1.89.91-1.89,1.97v.02c0,1.05.77,1.99,1.9,1.99s1.88-.91,1.88-1.97ZM230.12,19.01v-4.14h2.08v4.1c0,1.06.53,1.57,1.37,1.57s1.38-.48,1.38-1.51v-4.15h2.08v4.09c0,2.38-1.37,3.43-3.47,3.43s-3.41-1.05-3.41-3.37v-.02s-.01,0-.01,0ZM241.29,14.87h1.91l3.05,3.9v-3.9h2.03v7.38h-1.79l-3.18-4.05v4.05h-2.03v-7.38ZM254.49,16.67h-2.21v-1.79h6.49v1.79h-2.22v5.59h-2.05v-5.59ZM264.88,19.48l-2.83-4.62h2.34l1.52,2.69,1.54-2.69h2.3l-2.82,4.59v2.8h-2.05v-2.76h0Z"/>
      <path class="cls-1" d="M89.91,29.25h5.59v1.45h-3.97v1.49h3.49v1.45h-3.49v1.55h4.02v1.45h-5.64v-7.38h0ZM99.74,32.96v-.02c0-2.1,1.59-3.81,3.87-3.81,1.39,0,2.24.46,2.93,1.14l-1.04,1.19c-.58-.52-1.14-.83-1.9-.83-1.25,0-2.14,1.03-2.14,2.3v.02c0,1.26.88,2.32,2.14,2.32.85,0,1.37-.33,1.94-.86l1.04,1.04c-.76.81-1.6,1.32-3.04,1.32-2.18,0-3.8-1.68-3.8-3.79h0s0-.01,0-.01ZM110.4,32.96v-.02c0-2.1,1.67-3.81,3.94-3.81s3.93,1.7,3.93,3.79v.02c0,2.1-1.66,3.81-3.94,3.81s-3.93-1.7-3.93-3.79ZM116.57,32.96v-.02c0-1.26-.93-2.32-2.24-2.32s-2.22,1.03-2.22,2.3v.02c0,1.26.93,2.32,2.24,2.32s2.22-1.04,2.22-2.3h0ZM122.8,29.25h1.5l3.47,4.54v-4.54h1.61v7.38h-1.39l-3.59-4.7v4.69h-1.61v-7.38ZM133.9,32.96v-.02c0-2.1,1.66-3.81,3.95-3.81s3.93,1.7,3.93,3.79v.02c0,2.1-1.66,3.81-3.94,3.81s-3.93-1.7-3.93-3.79h0ZM140.06,32.96v-.02c0-1.26-.93-2.32-2.24-2.32s-2.22,1.03-2.22,2.3v.02c0,1.26.93,2.32,2.24,2.32s2.22-1.04,2.22-2.3h0ZM146.29,29.25h1.76l1.94,3.13,1.94-3.12h1.76v7.38h-1.62v-4.82l-2.09,3.15h-.04l-2.07-3.12v4.79h-1.6v-7.38ZM158.62,29.25h1.63v7.38h-1.63v-7.38ZM164.85,32.96v-.02c0-2.1,1.59-3.81,3.87-3.81,1.39,0,2.24.46,2.93,1.14l-1.04,1.19c-.58-.52-1.15-.83-1.9-.83-1.25,0-2.15,1.03-2.15,2.3v.02c0,1.26.88,2.32,2.15,2.32.85,0,1.37-.33,1.94-.86l1.04,1.04c-.76.81-1.6,1.32-3.04,1.32-2.18,0-3.8-1.68-3.8-3.79h0ZM182.3,29.25h2.89c2.33,0,3.93,1.59,3.93,3.67v.02c0,2.08-1.61,3.69-3.93,3.69h-2.89s0-7.38,0-7.38ZM183.93,30.71v4.45h1.26c1.33,0,2.23-.89,2.23-2.2v-.02c0-1.3-.91-2.22-2.23-2.22h-1.26ZM193.64,29.25h5.59v1.45h-3.97v1.49h3.49v1.45h-3.49v1.55h4.02v1.45h-5.64v-7.38h0ZM203.17,29.25h1.8l1.93,5.2,1.93-5.19h1.76l-2.99,7.44h-1.44l-2.99-7.44ZM214.81,29.25h5.59v1.45h-3.97v1.49h3.49v1.45h-3.49v1.55h4.02v1.45h-5.64v-7.38h0ZM224.97,29.25h1.63v5.9h3.69v1.47h-5.32v-7.38ZM233.84,32.96v-.02c0-2.1,1.66-3.81,3.94-3.81s3.93,1.7,3.93,3.79v.02c0,2.1-1.66,3.81-3.95,3.81s-3.93-1.7-3.93-3.79h0ZM240.01,32.96v-.02c0-1.26-.93-2.32-2.24-2.32s-2.22,1.03-2.22,2.3v.02c0,1.26.93,2.32,2.24,2.32s2.22-1.04,2.22-2.3h0ZM246.23,29.25h3.03c1.77,0,2.84,1.03,2.84,2.55v.02c0,1.72-1.34,2.6-2.99,2.6h-1.24v2.21h-1.63v-7.38h0ZM249.15,32.97c.82,0,1.29-.49,1.29-1.12v-.02c0-.73-.51-1.12-1.33-1.12h-1.26v2.25h1.3ZM256.36,29.25h1.76l1.94,3.13,1.94-3.12h1.76v7.38h-1.62v-4.82l-2.09,3.15h-.04l-2.07-3.12v4.79h-1.6v-7.38ZM268.62,29.25h5.59v1.45h-3.97v1.49h3.49v1.45h-3.49v1.55h4.02v1.45h-5.64v-7.38h0ZM278.78,29.25h1.5l3.47,4.54v-4.54h1.61v7.38h-1.39l-3.59-4.7v4.69h-1.61v-7.38ZM291.93,30.74h-2.25v-1.5h6.14v1.5h-2.25v5.88h-1.63v-5.88h0ZM89.58,47.33v-.02c0-2.1,1.59-3.81,3.87-3.81,1.39,0,2.24.46,2.92,1.14l-1.04,1.19c-.58-.52-1.14-.83-1.89-.83-1.25,0-2.14,1.03-2.14,2.3v.02c0,1.26.88,2.32,2.14,2.32.85,0,1.37-.33,1.94-.86l1.04,1.04c-.76.81-1.6,1.32-3.04,1.32-2.18,0-3.8-1.68-3.8-3.79h0ZM100.24,47.33v-.02c0-2.1,1.67-3.81,3.94-3.81s3.93,1.7,3.93,3.79v.02c0,2.1-1.66,3.81-3.94,3.81s-3.93-1.7-3.93-3.79ZM106.41,47.33v-.02c0-1.26-.93-2.32-2.24-2.32s-2.22,1.03-2.22,2.3v.02c0,1.26.93,2.32,2.24,2.32s2.22-1.04,2.22-2.3h0ZM112.63,43.62h3.39c.94,0,1.67.25,2.17.75.42.42.64.98.64,1.69v.02c0,1.19-.64,1.94-1.59,2.29l1.81,2.64h-1.9l-1.59-2.36h-1.28v2.36h-1.63v-7.38h0ZM115.91,47.21c.81,0,1.25-.41,1.25-1.04v-.02c0-.71-.48-1.05-1.28-1.05h-1.62v2.12h1.65,0ZM123.36,43.62h3.03c1.77,0,2.84,1.03,2.84,2.55v.02c0,1.72-1.34,2.6-2.99,2.6h-1.24v2.21h-1.63v-7.38h-.01ZM126.29,47.34c.82,0,1.29-.49,1.29-1.12v-.02c0-.73-.51-1.12-1.33-1.12h-1.26v2.25h1.29s.01,0,.01.01ZM133.16,47.33v-.02c0-2.1,1.66-3.81,3.95-3.81s3.93,1.7,3.93,3.79v.02c0,2.1-1.66,3.81-3.95,3.81s-3.93-1.7-3.93-3.79ZM139.33,47.33v-.02c0-1.26-.93-2.32-2.24-2.32s-2.22,1.03-2.22,2.3v.02c0,1.26.93,2.32,2.24,2.32s2.22-1.04,2.22-2.3h0ZM145.57,43.62h3.39c.94,0,1.66.25,2.16.75.42.42.63.98.63,1.69v.02c0,1.19-.65,1.94-1.59,2.29l1.81,2.64h-1.9l-1.59-2.36h-1.28v2.36h-1.63v-7.38h0,0ZM148.85,47.21c.81,0,1.25-.41,1.25-1.04v-.02c0-.71-.48-1.05-1.28-1.05h-1.62v2.12h1.65-.01ZM158.82,43.57h1.5l3.18,7.44h-1.7l-.67-1.66h-3.14l-.67,1.66h-1.66l3.18-7.44h0ZM160.54,47.91l-.98-2.4-.98,2.4h1.97-.01ZM168.48,45.12h-2.25v-1.49h6.14v1.49h-2.25v5.88h-1.63v-5.88h0ZM176.76,43.62h1.63v7.38h-1.63v-7.38ZM182.98,47.33v-.02c0-2.1,1.66-3.81,3.95-3.81s3.93,1.7,3.93,3.79v.02c0,2.1-1.66,3.81-3.94,3.81s-3.93-1.7-3.93-3.79h0ZM189.15,47.33v-.02c0-1.26-.93-2.32-2.24-2.32s-2.22,1.03-2.22,2.3v.02c0,1.26.93,2.32,2.24,2.32s2.22-1.04,2.22-2.3h0ZM195.38,43.62h1.5l3.47,4.54v-4.54h1.61v7.38h-1.39l-3.59-4.7v4.69h-1.61v-7.38Z"/>
      <path class="cls-2" d="M213.05,43.62h1.76l1.94,3.12,1.94-3.12h1.76v7.38h-1.62v-4.82l-2.09,3.15h-.04l-2.07-3.12v4.79h-1.6v-7.38ZM227.85,43.57h1.5l3.18,7.44h-1.7l-.67-1.66h-3.14l-.67,1.66h-1.66l3.18-7.44h0ZM229.56,47.91l-.98-2.4-.98,2.4h1.97,0ZM236.73,43.62h3.39c.94,0,1.66.25,2.15.75.42.42.63.98.63,1.69v.02c0,1.19-.65,1.94-1.59,2.29l1.81,2.64h-1.9l-1.59-2.36h-1.28v2.36h-1.63v-7.38h0ZM240.01,47.21c.81,0,1.25-.41,1.25-1.04v-.02c0-.71-.48-1.05-1.28-1.05h-1.62v2.12h1.65-.01ZM249.27,48.09l-2.85-4.48h1.9l1.77,2.96,1.8-2.96h1.85l-2.85,4.44v2.94h-1.63v-2.91h0ZM257.83,43.62h1.63v5.9h3.69v1.47h-5.32v-7.38ZM269.99,43.57h1.5l3.17,7.44h-1.7l-.67-1.66h-3.14l-.67,1.66h-1.67l3.17-7.44h0ZM271.71,47.91l-.98-2.4-.98,2.4h1.97,0ZM278.89,43.62h1.5l3.47,4.54v-4.54h1.61v7.38h-1.39l-3.59-4.7v4.69h-1.61v-7.38ZM290.31,43.62h2.89c2.33,0,3.93,1.59,3.93,3.67v.02c0,2.08-1.61,3.69-3.93,3.69h-2.89s0-7.38,0-7.38ZM291.94,45.09v4.45h1.26c1.33,0,2.23-.89,2.23-2.2v-.02c0-1.3-.91-2.22-2.23-2.22h-1.26Z"/>
    </g>
  </g>
</svg>