<svg width="153" viewBox="0 0 2281 418" fill="none" xmlns="http://www.w3.org/2000/svg">
<path class="q_color" d="M352.755 250.691C352.958 246.732 353.026 242.72 352.931 238.695C350.999 157.52 285.602 91.1231 204.454 88.0431C116.552 84.7071 43.9817 155.25 43.9817 242.436C43.9817 245.179 44.0497 247.922 44.1977 250.636C44.6164 258.81 33.135 260.958 30.5937 253.19C25.0017 235.994 21.9617 217.662 21.9617 198.614C21.9617 100.85 101.88 21.3765 199.82 22.1205C296.584 22.8498 375.288 102.416 374.978 199.182C374.923 218.067 371.884 236.263 366.304 253.326C363.779 261.039 352.323 258.796 352.755 250.691ZM322.658 289.178C319.902 296.499 309.135 294.474 309.162 286.651V286.247C309.162 225.214 259.503 175.554 198.47 175.554C137.436 175.554 87.791 225.214 87.791 286.247V286.651C87.8177 294.474 77.051 296.499 74.283 289.191C68.095 272.791 65.0564 254.866 65.9204 236.128C69.1084 167.678 124.764 112.482 193.242 109.834C268.783 106.915 331.168 167.53 331.168 242.436C331.168 258.878 328.155 274.642 322.658 289.178ZM198.47 375.122C149.459 375.122 109.582 335.256 109.582 286.247C109.582 237.236 149.459 197.358 198.47 197.358C247.48 197.358 287.358 237.236 287.358 286.247C287.358 335.256 247.48 375.122 198.47 375.122ZM198.47 0.316467C89.1284 0.316467 0.172363 89.2725 0.172363 198.614C0.172363 306.631 86.9804 394.75 194.498 396.871C195.822 396.911 197.146 396.926 198.47 396.926C199.807 396.926 201.131 396.911 202.455 396.871C309.972 394.75 396.78 306.631 396.78 198.614C396.78 89.2725 307.824 0.316467 198.47 0.316467Z" fill="currentColor"></path>
<path class="q_color" d="M405.339 292.476C378.308 339.195 338.055 377.307 289.696 401.692C280.967 406.094 286.068 419.299 295.515 416.782C340.64 404.758 398.935 377.063 448.235 314.046C451.548 309.81 449.974 303.588 445.019 301.499L415.524 289.059C411.752 287.467 407.39 288.932 405.339 292.476Z" fill="currentColor"></path>
<path d="M890.262 234.194C890.262 265.151 875.582 278.359 841.174 278.359C806.31 278.359 792.089 265.565 792.089 234.194V83.5781C792.089 81.2581 790.208 79.3768 787.888 79.3768H765.91C763.589 79.3768 761.709 81.2581 761.709 83.5781V226.813C761.709 274.901 792.901 305.971 841.174 305.971C889.45 305.971 920.642 274.901 920.642 226.813V83.5781C920.642 81.2581 918.762 79.3768 916.441 79.3768H894.464C892.144 79.3768 890.262 81.2581 890.262 83.5781V234.194Z" fill="currentColor"></path>
<path d="M1122.39 205.301C1122.39 202.981 1124.27 201.1 1126.59 201.1H1170.24C1194.23 201.1 1211.64 213.336 1211.64 230.196V246.496C1211.64 263.355 1194.23 275.592 1170.24 275.592H1126.59C1124.27 275.592 1122.39 273.711 1122.39 271.391V205.301ZM1204.57 147.465C1204.57 162.968 1188.94 173.795 1166.55 173.795H1126.59C1124.27 173.795 1122.39 171.913 1122.39 169.593V110.884C1122.39 108.564 1124.27 106.683 1126.59 106.683H1166.55C1188.94 106.683 1204.57 117.509 1204.57 133.012V147.465ZM1211.08 189.951C1208.24 188.487 1208.04 184.48 1210.72 182.736C1227.03 172.128 1237.1 155.873 1237.1 139.163C1237.1 105.637 1205.98 79.3772 1166.24 79.3772H1096.21C1093.89 79.3772 1092.01 81.2586 1092.01 83.5786V298.696C1092.01 301.016 1093.89 302.897 1096.21 302.897H1169.32C1210.6 302.897 1244.18 274.008 1244.18 238.499C1244.18 218.675 1231.49 200.475 1211.08 189.951Z" fill="currentColor"></path>
<path d="M1294.61 201.1H1373.55C1375.87 201.1 1377.75 199.219 1377.75 196.899V177.996C1377.75 175.676 1375.87 173.795 1373.55 173.795H1294.61C1292.29 173.795 1290.41 171.913 1290.41 169.593V110.884C1290.41 108.564 1292.29 106.683 1294.61 106.683H1382.78C1385.1 106.683 1386.98 104.801 1386.98 102.481V83.5786C1386.98 81.2572 1385.1 79.3772 1382.78 79.3772H1264.23C1261.91 79.3772 1260.03 81.2572 1260.03 83.5786V298.696C1260.03 301.016 1261.91 302.897 1264.23 302.897H1384.93C1387.25 302.897 1389.13 301.016 1389.13 298.696V279.793C1389.13 277.472 1387.25 275.592 1384.93 275.592H1294.61C1292.29 275.592 1290.41 273.711 1290.41 271.391V205.301C1290.41 202.981 1292.29 201.1 1294.61 201.1Z" fill="currentColor"></path>
<path d="M1573.53 216.82C1576.2 216.836 1578.23 219.265 1577.75 221.897C1568.85 270.916 1531.81 305.972 1488.04 305.972C1462.3 305.972 1438.59 294.12 1421.29 272.598C1404.16 251.304 1394.73 222.374 1394.73 191.137C1394.73 159.9 1404.16 130.97 1421.29 109.676C1438.59 88.1544 1462.3 76.3024 1488.04 76.3024C1531.81 76.3024 1568.85 111.36 1577.75 160.378C1578.23 163.01 1576.2 165.44 1573.53 165.456L1547.74 165.616C1545.45 165.629 1543.55 163.844 1543.42 161.558C1541.27 124.856 1521.26 103.914 1488.04 103.914C1449.28 103.914 1428.8 127.801 1428.8 172.992V209.59C1428.8 254.58 1449.28 278.36 1488.04 278.36C1521.26 278.36 1541.27 257.418 1543.42 220.717C1543.55 218.432 1545.45 216.646 1547.74 216.66L1573.53 216.82Z" fill="currentColor"></path>
<path d="M2102.44 216.82C2105.11 216.836 2107.14 219.265 2106.66 221.897C2097.76 270.916 2060.71 305.972 2016.95 305.972C1991.21 305.972 1967.5 294.12 1950.19 272.598C1933.07 251.304 1923.64 222.374 1923.64 191.137C1923.64 159.9 1933.07 130.97 1950.19 109.676C1967.5 88.1544 1991.21 76.3024 2016.95 76.3024C2060.71 76.3024 2097.76 111.36 2106.66 160.378C2107.14 163.01 2105.11 165.44 2102.44 165.456L2076.65 165.616C2074.36 165.629 2072.46 163.844 2072.33 161.558C2070.18 124.856 2050.17 103.914 2016.95 103.914C1978.19 103.914 1957.71 127.801 1957.71 172.992V209.59C1957.71 254.58 1978.19 278.36 2016.95 278.36C2050.17 278.36 2070.18 257.418 2072.33 220.717C2072.46 218.432 2074.36 216.646 2076.65 216.66L2102.44 216.82Z" fill="currentColor"></path>
<path d="M1628.35 107.297H1684.23C1686.55 107.297 1688.43 109.179 1688.43 111.499V298.696C1688.43 301.016 1690.31 302.897 1692.63 302.897H1714.61C1716.93 302.897 1718.81 301.016 1718.81 298.696V111.499C1718.81 109.179 1720.69 107.297 1723.01 107.297H1778.89C1781.21 107.297 1783.09 105.416 1783.09 103.096V83.5786C1783.09 81.2572 1781.21 79.3772 1778.89 79.3772H1628.35C1626.03 79.3772 1624.15 81.2572 1624.15 83.5786V103.096C1624.15 105.416 1626.03 107.297 1628.35 107.297Z" fill="currentColor"></path>
<path d="M1825.42 201.1H1904.36C1906.68 201.1 1908.56 199.219 1908.56 196.899V177.996C1908.56 175.676 1906.68 173.795 1904.36 173.795H1825.42C1823.1 173.795 1821.22 171.913 1821.22 169.593V110.884C1821.22 108.564 1823.1 106.683 1825.42 106.683H1913.59C1915.91 106.683 1917.79 104.801 1917.79 102.481V83.5786C1917.79 81.2572 1915.91 79.3772 1913.59 79.3772H1795.04C1792.72 79.3772 1790.84 81.2572 1790.84 83.5786V298.696C1790.84 301.016 1792.72 302.897 1795.04 302.897H1915.74C1918.06 302.897 1919.94 301.016 1919.94 298.696V279.793C1919.94 277.472 1918.06 275.592 1915.74 275.592H1825.42C1823.1 275.592 1821.22 273.711 1821.22 271.391V205.301C1821.22 202.981 1823.1 201.1 1825.42 201.1Z" fill="currentColor"></path>
<path d="M2250.31 83.5781V169.593C2250.31 171.913 2248.42 173.794 2246.1 173.794H2156.33C2154.01 173.794 2152.13 171.913 2152.13 169.593V83.5781C2152.13 81.2581 2150.25 79.3767 2147.93 79.3767H2125.95C2123.63 79.3767 2121.75 81.2581 2121.75 83.5781V298.695C2121.75 301.015 2123.63 302.897 2125.95 302.897H2147.93C2150.25 302.897 2152.13 301.015 2152.13 298.695V205.301C2152.13 202.981 2154.01 201.099 2156.33 201.099H2246.1C2248.42 201.099 2250.31 202.981 2250.31 205.301V298.695C2250.31 301.015 2252.19 302.897 2254.51 302.897H2276.49C2278.81 302.897 2280.69 301.015 2280.69 298.695V83.5781C2280.69 81.2581 2278.81 79.3767 2276.49 79.3767H2254.51C2252.19 79.3767 2250.31 81.2581 2250.31 83.5781Z" fill="currentColor"></path>
<path d="M647.56 278.359C608.212 278.359 582.788 251.366 582.788 209.59V172.993C582.788 152.234 588.87 134.793 600.374 122.557C611.841 110.361 628.158 103.915 647.56 103.915C666.961 103.915 683.278 110.361 694.745 122.557C706.249 134.793 712.332 152.234 712.332 172.993V209.59C712.332 225.898 708.441 239.939 701.377 251.015C681.82 230.478 665.526 205.423 654.864 184.278C652.66 179.905 648.204 179.23 645 180.449C641.769 181.678 638.873 185.171 640.141 189.935C643.585 202.861 654.442 237.65 678.49 271.583C669.589 275.985 659.189 278.359 647.56 278.359ZM736.298 279.449C730.998 276.383 725.813 272.801 720.765 268.823C737.325 247.749 746.404 220.366 746.404 191.137C746.404 160.171 736.225 131.27 717.744 109.757C699.212 88.1833 674.288 76.302 647.56 76.302C620.833 76.302 595.909 88.1833 577.377 109.757C558.896 131.27 548.717 160.171 548.717 191.137C548.717 222.102 558.896 251.003 577.377 272.518C595.909 294.091 620.833 305.971 647.56 305.971C664.502 305.971 680.713 301.183 695.038 292.193C702.006 299.841 709.752 307.191 718.377 313.939C719.806 315.057 721.52 315.641 723.276 315.641C723.948 315.641 724.625 315.555 725.296 315.381C727.7 314.757 729.634 313.086 730.6 310.795L739.63 289.386C741.178 285.715 739.746 281.443 736.298 279.449Z" fill="currentColor"></path>
<path d="M976.303 201.1H1055.24C1057.56 201.1 1059.45 199.219 1059.45 196.899V177.996C1059.45 175.676 1057.56 173.795 1055.24 173.795H976.303C973.983 173.795 972.102 171.913 972.102 169.593V110.884C972.102 108.564 973.983 106.683 976.303 106.683H1064.47C1066.79 106.683 1068.67 104.801 1068.67 102.481V83.5786C1068.67 81.2572 1066.79 79.3772 1064.47 79.3772H945.922C943.601 79.3772 941.721 81.2572 941.721 83.5786V298.696C941.721 301.016 943.601 302.897 945.922 302.897H1066.62C1068.94 302.897 1070.82 301.016 1070.82 298.696V279.793C1070.82 277.472 1068.94 275.592 1066.62 275.592H976.303C973.983 275.592 972.102 273.711 972.102 271.391V205.301C972.102 202.981 973.983 201.1 976.303 201.1Z" fill="currentColor"></path>
<path d="M1058.14 27.4272C1040.21 54.2246 1011.6 62.7152 990.417 65.0792C985.223 65.6579 983.005 58.6459 987.595 56.1459C1002.04 48.2779 1014.1 36.5739 1022.39 22.4019C1023.27 20.9152 1024.83 19.9739 1026.55 19.9739H1054.17C1058 19.9739 1060.27 24.2486 1058.14 27.4272Z" fill="currentColor"></path>
</svg>