<?xml version="1.0" encoding="UTF-8"?>
<svg id="Layer_1" xmlns="http://www.w3.org/2000/svg" version="1.1" viewBox="0 0 271 56.8">
  <!-- Generator: Adobe Illustrator 29.5.1, SVG Export Plug-In . SVG Version: 2.1.0 Build 141)  -->
  <defs>
    <style>
      .st0 {
        fill: #0095c8;
      }

      .st1 {
        fill: #51237f;
      }
    </style>
  </defs>
  <polygon class="st1" points="214.4 .9 214.4 .9 208.8 9.6 208.8 9.6 203.2 .9 203.2 .9 198.5 .9 198.5 .9 198.5 19.6 198.5 19.6 203.2 19.6 203.2 19.6 203.2 9 208.8 17.7 214.4 9.1 214.4 19.6 219 19.6 219 .9 214.4 .9"/>
  <path class="st1" d="M99.1,10.3c0-5.6,4.3-9.7,9.8-9.7s9.8,4.1,9.8,9.7-4.3,9.7-9.8,9.7-9.8-4.1-9.8-9.7ZM114.1,10.3c0-2.9-2-5.3-5.2-5.3s-5.2,2.3-5.2,5.3,2,5.3,5.2,5.3,5.2-2.3,5.2-5.3Z"/>
  <path class="st1" d="M121.3,19.6V.9h4.3l8.1,10.4h0V.9h4.7v18.6h-4.3l-8.1-10.4h0v10.4h-4.7Z"/>
  <path class="st1" d="M145.2,19.6V5.2h-4.8V.9h14.2v4.3h-4.8v14.4h-4.7Z"/>
  <path class="st1" d="M169.6,12.6h-4.4v-4.1h9.5v2.6c0,5.1-3.6,8.9-9.2,8.9s-9.8-4.1-9.8-9.7,4.3-9.7,9.8-9.7,6.1,1.5,7.8,3.6l-3.4,3c-1.2-1.4-2.4-2.2-4.4-2.2-3.2,0-5.2,2.3-5.2,5.3s2,5.3,5.2,5.3,4.1-1.6,4.1-2.7v-.2h0Z"/>
  <path class="st1" d="M176.3,10.3c0-5.6,4.3-9.7,9.8-9.7s9.8,4.1,9.8,9.7-4.3,9.7-9.8,9.7-9.8-4.1-9.8-9.7ZM191.3,10.3c0-2.9-2-5.3-5.2-5.3s-5.2,2.3-5.2,5.3,2,5.3,5.2,5.3,5.2-2.3,5.2-5.3Z"/>
  <path class="st1" d="M222.5,19.6V.9h10.8v4.3h-6.1v2.8h5.8v4.3h-5.8v3.1h6.3v4.3s-10.9,0-10.9,0Z"/>
  <path class="st1" d="M247.1,19.6l-4.7-6.6h-1.4v6.6h-4.7V.9h7.8c2.9,0,6,2,6,6s-1.3,4.4-3,5.3l5.2,7.3h-5.2ZM241,9h2.4c1.2,0,2.1-.6,2.1-2s-.9-2-2.1-2h-2.4v4h0Z"/>
  <path class="st1" d="M257.7,19.6v-6.8l-6.9-11.9h5.4l3.9,6.9,3.9-6.9h5.4l-6.9,11.9v6.8s-4.7,0-4.7,0Z"/>
  <g>
    <path class="st1" d="M90,32.3c-.9-1.5-2.2-2.4-4.2-2.4-3.2,0-5.2,2.3-5.2,5.3s2,5.3,5.2,5.3,3.4-.9,4.2-2.4l4,2.3c-1.7,2.8-4.5,4.4-8.2,4.4-5.6,0-9.8-4.1-9.8-9.7s4.3-9.7,9.8-9.7,6.5,1.6,8.2,4.4c0,0-4,2.3-4,2.3Z"/>
    <path class="st1" d="M95.5,35.2c0-5.6,4.3-9.7,9.8-9.7s9.8,4.1,9.8,9.7-4.3,9.7-9.8,9.7-9.8-4.1-9.8-9.7h0ZM110.6,35.2c0-2.9-2-5.3-5.2-5.3s-5.2,2.3-5.2,5.3,2,5.3,5.2,5.3,5.2-2.3,5.2-5.3Z"/>
    <path class="st1" d="M117.7,44.5v-18.6h4.7v14.4h6.6v4.3h-11.2,0Z"/>
    <path class="st1" d="M131.2,44.5v-18.6h4.7v14.4h6.6v4.3h-11.2,0Z"/>
    <path class="st1" d="M144.8,44.5v-18.6h10.8v4.3h-6.1v2.8h5.8v4.3h-5.8v3.1h6.3v4.3h-10.9,0Z"/>
    <path class="st1" d="M171.6,37.5h-4.4v-4.1h9.5v2.6c0,5.1-3.6,8.9-9.2,8.9s-9.8-4.1-9.8-9.7,4.3-9.7,9.8-9.7,6.1,1.5,7.8,3.6l-3.4,3c-1.2-1.4-2.4-2.2-4.4-2.2-3.2,0-5.2,2.3-5.2,5.3s2,5.3,5.2,5.3,4.1-1.6,4.1-2.7v-.2h0Z"/>
    <path class="st1" d="M179.2,44.5v-18.6h10.8v4.3h-6.1v2.8h5.8v4.3h-5.8v3.1h6.3v4.3h-10.9,0Z"/>
  </g>
  <g>
    <path class="st0" d="M27.9,36.3c0-10.8,8.2-19,19.2-19s16.5,6.6,17.9,12.3l-8.5,2.1c-.9-3.1-4.4-6.2-9.4-6.2s-10.4,4.9-10.4,10.8,4,10.9,10.4,10.9,8.5-3,9.4-6.1l8.5,2.1c-1.4,5.7-7.5,12.1-17.8,12.1s-19.4-8.2-19.4-19h0Z"/>
    <path class="st1" d="M31.2,16.1v6.6c2.4-2.8,5.4-4.9,8.9-6.1V.6h-8.9l-10.8,16.6h0L9.7.6H.8v35.7h8.9v-20.2l10.7,16.7,10.7-16.6h0Z"/>
  </g>
  <polygon class="st1" points="92 .9 92 .9 86.4 9.6 86.3 9.6 80.7 .9 80.7 .9 76.1 .9 76.1 .9 76.1 19.6 76.1 19.6 80.7 19.6 80.7 19.6 80.7 9 86.3 17.7 91.9 9.1 91.9 19.6 96.6 19.6 96.6 .9 92 .9"/>
</svg>