<?xml version="1.0" encoding="UTF-8"?>
<svg id="_레이어_2" data-name="레이어 2" xmlns="http://www.w3.org/2000/svg" xmlns:xlink="http://www.w3.org/1999/xlink" viewBox="0 0 230 69.3">
  <defs>
    <style>
      .cls-1 {
        fill: none;
      }

      .cls-2 {
        fill: #444;
      }

      .cls-3 {
        clip-path: url(#clippath);
      }
    </style>
    <clipPath id="clippath">
      <rect class="cls-1" width="230" height="69.3"/>
    </clipPath>
  </defs>
  <g id="_레이어_1-2" data-name="레이어 1">
    <g class="cls-3">
      <g>
        <path class="cls-2" d="M53.45.91c-.6.15-3.67.15-6.91.15h-9.66c-1.98,0-3.68,0-6.07-.16-.12.09-.22.21-.29.35-.07.14-.1.29-.09.44,0,.18,0,.59.25.76l.87.11c2.89.35,2.99.95,2.99,6.32v18.51c0,5.44-.28,6.02-3.03,6.27l-1.76.15c-.1.13-.17.28-.2.44-.04.16-.04.32,0,.49,0,.12.04.25.11.35.06.11.15.2.26.27l7.03-.15h4.62c4.55,0,9.18,0,13.78.15h.11v-.09c.99-2.32,1.77-4.73,2.34-7.18-.06-.13-.16-.25-.27-.35-.12-.09-.25-.16-.4-.19-.14-.04-.29-.06-.44-.04-.15.02-.29.07-.41.15-1.25,2.5-2.62,4.38-3.59,4.91-.96.53-2.72.75-6.5.75-4.59,0-5.55-.59-6.11-1.17-.79-.83-.94-2.55-.94-5.24v-7.14q0-1.17,1.53-1.17h2.99c1.31-.06,2.62.02,3.91.26.4.12.76.35,1.03.68.26.33.42.73.45,1.15l.48,2.05c.12.11.27.19.43.24.16.05.32.06.49.04.13,0,.27-.03.38-.09.12-.06.22-.15.3-.26l-.08-1.95-.15-3.15.12-3.16.08-2.07c-.08-.11-.18-.2-.3-.26-.12-.06-.25-.09-.38-.09-.16-.02-.33,0-.49.04-.16.05-.3.13-.43.24l-.42,2.16c-.26,1.3-.62,1.5-1.17,1.68-1.43.26-2.88.36-4.32.29h-2.99q-1.54,0-1.53-1.28V4.87q0-1.9,1.38-1.9h3.7c1.66-.07,3.32.03,4.96.3,2.48.62,2.99,2.24,3.66,4.48l.09.3c.1.11.22.19.35.24.13.05.28.07.42.05.15,0,.3-.03.44-.09.14-.06.26-.16.36-.27v-.73c-.12-2.1-.38-4.18-.76-6.25v-.14l-.19.04Z"/>
        <path class="cls-2" d="M98.02.13h-.06v.11c-.41,2.48-1.01,4.93-1.79,7.31v.07c.08.14.19.26.32.36.13.09.28.16.44.2.14.04.28.04.42.02.14-.02.27-.07.39-.15.44-1.28,1.18-2.43,2.17-3.35,1.17-1.09,3.82-1.24,6.22-1.24h2.85q1.38,0,1.38,1.49v22.51c0,5.44-.28,6.02-3.04,6.27l-1.86.15c-.12.1-.22.22-.28.36-.06.14-.09.3-.07.46,0,.15.03.29.09.42.06.13.16.24.27.33l7.18-.15,6.76.15c.12-.1.21-.22.28-.36s.1-.29.1-.45c.02-.14,0-.28-.04-.41-.04-.13-.12-.25-.22-.35l-1.69-.15c-2.87-.29-3.01-.9-3.01-6.27V4.87c0-.71,0-1.17.15-1.27s.55-.16,1.17-.16h3c2.81,0,3.44.42,4.59,1.25.54.41.98,1.57,1.17,3.52h0c.12.1.27.18.43.23.16.05.32.06.49.03.14,0,.28-.04.4-.11.12-.07.22-.17.29-.29-.07-2.5.18-5,.76-7.44v-.06c-.16-.32-.86-.34-1.17-.22-.7,1.24-1.07,1.17-3.87,1.17h-19.01c-2.25,0-3.73.16-4.01-1.3v-.05c-.18-.1-.39-.16-.6-.17-.21,0-.42.03-.62.13Z"/>
        <path class="cls-2" d="M133.12.13v.11c-.43,2.48-1.06,4.93-1.88,7.31v.07c.08.14.19.26.32.36.13.09.28.16.44.2.14.04.28.05.42.02.14-.02.28-.07.4-.15.45-1.28,1.2-2.43,2.19-3.35,1.17-1.09,2.53-1.24,4.93-1.24h1.55q1.38,0,1.38,1.49v22.51c0,5.44-.28,6.02-3.05,6.27l-1.89.15c-.12.09-.22.22-.28.36-.06.14-.08.3-.06.46,0,.14.03.29.09.42s.15.24.26.33l7.18-.15,6.76.15c.12-.1.21-.22.28-.36s.1-.29.1-.45c0-.16,0-.59-.26-.76l-1.69-.15c-2.85-.29-2.94-.89-2.94-6.27V4.87c0-.71,0-1.17.15-1.27.15-.09.55-.16,1.17-.16h3.64c2.81,0,4.69.42,5.86,1.25.55.41.98,1.55,1.17,3.52h0c.12.1.27.18.43.23.16.05.32.06.49.03.15.03.3.03.45-.02s.27-.13.37-.25c-.07-2.5.18-5,.76-7.44v-.21c-.16-.32-.84-.34-1.17-.22-.71,1.24-1.08,1.17-3.87,1.17h-18.5c-2.24,0-3.73.16-4-1.3v-.02c-.19-.1-.4-.16-.61-.17-.21,0-.43.03-.62.12h0Z"/>
        <path class="cls-2" d="M181.7.9l-6.33.16-6.71-.16c-.25.12-.35.5-.38.8-.02.14-.01.28.03.41s.12.25.22.35l1.32.11c3.07.25,3.2.95,3.2,6.32v18.51c0,5.38-.11,5.98-2.94,6.27l-1.61.15c-.1.13-.17.28-.2.44-.04.16-.04.32,0,.49.01.12.05.24.11.35.06.11.15.2.25.27l6.71-.15h4.69c5.64,0,10.3.06,12.8.15h.11v-.08c.97-2.31,1.73-4.71,2.26-7.16-.01-.1-.05-.2-.12-.28-.06-.08-.15-.14-.25-.17-.18-.09-.38-.14-.59-.14s-.4.05-.59.14c-.94,2.34-2.25,4.36-3.33,5-.8.45-1.88.64-6.2.64-3.82,0-4.9-.54-5.48-1.17-.88-.93-1.03-2.24-1.03-5.45V8.93c0-5.37.11-6.07,2.99-6.32l1.28-.11c.26-.18.26-.59.25-.76,0-.15-.02-.31-.09-.44s-.16-.26-.29-.35l-.09-.05Z"/>
        <path class="cls-2" d="M224.8.91c-.6.15-3.66.15-6.9.15h-9.67c-1.97,0-3.67,0-6.06-.16-.25.12-.35.5-.36.8s0,.59.25.76l.86.11c2.91.35,3,.95,3,6.32v18.51c0,5.44-.28,6.02-3.05,6.27l-1.75.15c-.1.13-.17.28-.21.44-.04.16-.04.33,0,.49,0,.12.04.24.1.35.06.11.15.2.25.27l7.03-.15h4.69c4.54,0,9.18,0,13.78.15h.1v-.09c.98-2.32,1.76-4.73,2.34-7.18-.07-.13-.16-.25-.28-.34-.12-.09-.25-.16-.39-.2-.14-.04-.29-.05-.44-.03-.15.02-.29.07-.41.15-1.25,2.5-2.62,4.38-3.59,4.91-1.17.57-2.72.75-6.5.75-4.59,0-5.57-.59-6.12-1.17-.77-.83-.93-2.55-.93-5.24v-7.14q0-1.17,1.54-1.17h2.99c1.31-.06,2.62.02,3.91.26.36.14.68.38.91.69.23.31.37.69.4,1.08l.47,2.05c.12.11.27.19.43.24.16.05.32.06.49.04.13,0,.26-.03.38-.09.12-.06.22-.15.29-.26l-.08-1.95-.06-3.09.13-3.16.08-2.07c-.08-.11-.18-.2-.3-.26s-.25-.09-.38-.09c-.16-.02-.33,0-.49.04-.16.05-.3.13-.43.24l-.41,2.16c-.27,1.3-.62,1.5-1.17,1.68-1.42.26-2.87.36-4.31.29h-2.99q-1.54,0-1.54-1.28V4.87q0-1.9,1.38-1.9h3.7c1.65-.07,3.31.03,4.95.3,2.47.62,2.99,2.24,3.7,4.48l.09.3c.09.11.21.19.34.24s.28.07.42.05c.15,0,.3-.03.44-.09.14-.06.26-.15.37-.27l-.07-.74c-.11-2.09-.37-4.18-.76-6.23v-.14l-.19.04Z"/>
        <path class="cls-2" d="M20,48.16l-2.94.08-3.07-.08c-.1.02-.19.07-.26.14-.07.07-.11.17-.12.27-.02.12-.01.24.02.35.04.11.11.21.2.29l.6.09c.25,0,.49.06.71.17s.41.27.56.47c.5.82.5,3.8.5,5.4v3.52c0,4.52-1.68,6.82-4.99,6.82s-4.86-2.34-4.86-6.9v-6.39c0-2.86.19-2.88,1.42-3.07l.7-.12c.07-.08.12-.18.15-.29.03-.11.03-.22.01-.33-.01-.08-.04-.17-.09-.24-.05-.07-.11-.13-.18-.17l-3.75.08-3.62-.11c-.07.04-.14.1-.18.17-.05.07-.08.15-.09.24-.03.11-.03.23,0,.34.02.11.07.22.14.31l.53.09c1.17.19,1.43.21,1.43,3.07v7.03c0,2.87.61,4.85,1.87,6.06,1.27,1.21,3.15,1.83,5.86,1.83,1.02.05,2.05-.12,3-.49s1.83-.93,2.56-1.64c1.28-1.38,1.87-3.46,1.87-6.53v-3.26c-.12-1.81,0-3.63.37-5.41.15-.35.54-.46,1.11-.59l.66-.14c.07-.07.13-.15.16-.25.03-.09.05-.19.04-.29,0-.1-.03-.19-.08-.28-.05-.09-.11-.16-.19-.21l-.06-.05Z"/>
        <path class="cls-2" d="M33.03,48.16l-1.9.08h-.36c-.75,0-2.02,0-2.91-.08-.1.02-.19.07-.26.15s-.11.17-.12.27c-.03.11-.03.23,0,.35s.09.22.17.31l.46.09c.49.1.97.28,1.41.53.87.74.87,1.1.86,3.12v6.78c.1,1.81,0,3.63-.34,5.41-.16.38-.6.47-1.1.55l-.67.15c-.07.07-.13.16-.16.25-.03.1-.05.2-.04.3,0,.1.03.2.08.28.05.09.11.16.19.22l2.93-.08,3.16.08c.1-.02.19-.08.25-.15s.11-.17.12-.27c0-.05,0-.09,0-.14,0-.1-.02-.2-.06-.29-.04-.09-.1-.17-.18-.24l-.57-.07c-.74-.12-1.11-.29-1.3-.62-.48-.83-.48-3.8-.48-5.39v-6.89c.34.34.84.91,1.62,1.78l1.34,1.52,6.5,7.42c1.97,2.25,2.79,3.21,3.23,3.8v.06h.07c.2.03.41,0,.6-.08s.36-.21.49-.37v-.06c0-.29-.08-1.37-.08-4.87v-6.69c-.12-1.81.01-3.63.38-5.41.15-.34.49-.46,1.08-.55l.74-.2c.07-.07.13-.16.16-.25s.05-.2.04-.3c0-.1-.03-.2-.08-.28-.05-.09-.11-.16-.19-.22l-2.95.08-3.19-.08c-.1.02-.19.07-.26.15-.07.07-.11.17-.13.26,0,.05,0,.09,0,.14,0,.1.02.2.06.29s.1.18.18.24l.68.08c.73.12,1.08.29,1.28.62.5.84.5,3.69.5,5.4v5.41c0,.13,0,.26,0,.39-.43-.43-1.62-1.76-2.52-2.77l-1.31-1.45-2.78-3c-1.66-1.75-3.15-3.66-4.44-5.71v-.11l-.18.04Z"/>
        <path class="cls-2" d="M65.11,48.16l-3.69.08-3.78-.08c-.07.04-.14.1-.18.18-.04.07-.07.16-.08.24-.03.11-.02.23,0,.34.03.11.08.21.16.3l.66.08c1.17.15,1.43.19,1.43,3.05v10.34c0,2.86-.22,2.88-1.42,3.03l-.67.09c-.08.09-.13.19-.16.3-.03.11-.03.23,0,.34,0,.09.03.17.08.24.05.07.11.13.18.18l3.78-.08,3.73.08c.07-.04.14-.11.19-.18.05-.07.08-.16.08-.24.02-.11.01-.23-.01-.34s-.08-.21-.15-.31l-.67-.09c-1.17-.15-1.42-.18-1.42-3.03v-10.28c0-2.86.21-2.89,1.42-3.05l.67-.08c.07-.09.12-.19.15-.3.03-.11.03-.22.01-.33,0-.09-.04-.17-.08-.24-.05-.07-.11-.13-.19-.18h-.07l.04-.06Z"/>
        <path class="cls-2" d="M93.05,48.16l-2.68.08-3.02-.08c-.07.05-.12.11-.17.19s-.07.15-.08.24v.13c0,.18.06.35.18.49l.86.21c.35.08.53.15.59.27,0,.05,0,.1,0,.15-.04.31-.12.61-.25.89-1.3,3.37-2.72,6.69-4.1,9.89l-.41.95-.15-.34-1.17-2.86-2-4.94c-.55-1.17-1-2.39-1.35-3.63,0-.08.07-.2.71-.35l.69-.16c.09-.06.17-.14.22-.23.05-.09.08-.2.08-.31,0-.1-.02-.2-.07-.29-.05-.09-.12-.17-.2-.22l-3.71.08-3.36-.08c-.09.02-.17.06-.23.12-.06.06-.11.14-.13.23-.03.12-.03.25,0,.37.03.12.08.23.16.33l.71.14c1.04.21,1.27.56,2.03,2.34l4.86,11.72c.49,1.18.91,2.39,1.27,3.62.18.11.4.17.61.16.11,0,.22,0,.33-.04.1-.04.2-.09.28-.17.49-1.45,1.78-4.69,2.91-7.22l1.55-3.45.39-.87c1.02-2.34,1.76-3.94,2.45-5.12.17-.29.4-.54.68-.73.28-.19.6-.3.94-.34l.69-.14h.07c.12-.21.16-.46.11-.69l-.26-.41v.08Z"/>
        <path class="cls-2" d="M113.39,48.16c-.32,0-1.78.08-3.73.08h-5.31l-3.59-.08c-.07.05-.13.11-.18.18-.04.07-.07.15-.08.24-.02.11-.02.23,0,.34.03.11.08.21.16.3l.5.06c1.17.19,1.42.21,1.42,3.07v10.34c0,2.86-.22,2.88-1.42,3.01l-1.09.12c-.07.09-.13.19-.16.3-.03.11-.03.23,0,.34,0,.08.04.17.08.24.04.07.11.14.18.18l4.21-.08h3.16c3.29,0,5.66,0,6.87.08h.09v-.08c.55-1.31.95-2.68,1.17-4.08-.06-.1-.14-.18-.23-.24-.09-.06-.2-.11-.31-.13-.11-.02-.22-.02-.33.01-.11.03-.21.08-.3.15-.96,2.24-1.56,2.96-4.96,2.91-2.34,0-2.74-.22-3.02-.55-.4-.86-.56-1.81-.43-2.75v-3.52q0-.6.5-.6h1.34c2.44,0,2.75,0,2.93,1.09l.2,1.17c.21.13.47.18.71.13l.48-.25v-.81l-.06-2.11.04-2.14v-.61c-.05-.67-.11-.12-.19-.16-.07-.04-.15-.07-.24-.07-.12-.02-.25-.01-.37.02-.12.03-.24.08-.33.16l-.2,1c-.18,1.05-.49,1.09-2.93,1.09h-1.36q-.5,0-.5-.59v-4.69q0-1.48,1.03-1.48h1.82c.73-.02,1.47.05,2.18.23.8.2,1.17.79,1.64,2.43.11.06.23.11.35.12.12.02.25,0,.37-.03.08,0,.16-.04.23-.08.07-.04.13-.1.17-.18l-.24-2.06-.23-2.03h-.06Z"/>
        <path class="cls-2" d="M124.21,48.41c-.07.05-.13.11-.17.18-.04.07-.07.15-.08.24-.02.11,0,.22.03.32.03.1.09.2.16.28l.79.08c1.17.13,1.17.27,1.17,2.99v10.17c0,2.86-.22,2.88-1.43,3.03l-.64.09c-.08.07-.14.16-.18.26-.04.1-.05.21-.03.31,0,.1.03.2.08.29s.12.16.21.21l3.79-.08,3.73.08c.07-.04.14-.11.19-.18.05-.07.07-.16.08-.24.02-.11.01-.23-.01-.34s-.08-.21-.15-.31l-.66-.09c-1.17-.15-1.42-.18-1.42-3.03v-3.52c0-.45.3-.45,1.02-.45.39-.04.79.03,1.14.2s.65.45.85.79l.94,1.62,1.15,2.18c1.82,2.75,4.87,5.79,7.45,5.79.65.02,1.29-.03,1.92-.16.07-.12.1-.26.08-.4-.02-.14-.08-.27-.17-.37-.68-.08-1.32-.37-1.83-.82-2.69-2.78-5.04-5.86-7.03-9.18l-.09-.16c-.06-.06-.09-.15-.08-.23.97-.31,1.82-.92,2.43-1.73s.96-1.8,1-2.81c.05-.89-.15-1.77-.6-2.54-.45-.77-1.11-1.39-1.91-1.78-1.68-.74-3.52-1.07-5.36-.96-2.4,0-4.75.08-6.36.25h0ZM129.63,56.61v-5.82q0-1.17,1.31-1.17c.51,0,1.01.1,1.48.3.46.2.88.5,1.23.87s.61.81.78,1.29c.17.48.23.99.2,1.49,0,2.6-1.17,3.82-3.82,3.82q-1.22.02-1.22-.82l.05.04Z"/>
        <path class="cls-2" d="M149.21,53.04c0,2.17,1.34,4.02,3.99,5.51l1.17.67c1.9,1.07,2.75,2.26,2.75,3.89,0,.4-.08.8-.24,1.16s-.4.69-.7.96c-.3.27-.65.47-1.03.59-.38.12-.78.16-1.18.11-2.92,0-4.32-3.52-4.57-4.29-.09-.07-.19-.12-.29-.15-.11-.03-.22-.03-.33,0-.1,0-.19.04-.27.09-.08.05-.15.12-.21.2-.1,1.5.2,2.99.87,4.34,1.41.84,3.04,1.25,4.69,1.17,4.02,0,6.61-2.19,6.61-5.58-.05-1.21-.45-2.38-1.13-3.37-.69-.99-1.64-1.77-2.76-2.24l-1.72-.91c-1.65-.88-2.55-2.04-2.55-3.26,0-.38.07-.75.21-1.09.15-.35.37-.65.64-.91.27-.25.6-.45.96-.57.36-.12.73-.16,1.11-.13.88.03,1.71.37,2.37.95.66.58,1.1,1.37,1.24,2.24.1.07.22.12.34.15.12.02.25.02.37,0,.08-.01.16-.04.24-.09.07-.05.13-.11.17-.18.02-1.3-.18-2.59-.6-3.82v-.07l-1.01-.21c-.95-.24-1.93-.37-2.91-.39-4.28.01-6.23,2.6-6.23,5.25h0Z"/>
        <path class="cls-2" d="M177.38,48.16l-3.68.08-3.8-.08c-.07.05-.13.11-.18.18-.04.07-.07.15-.08.24-.02.11-.02.23,0,.34.03.11.08.21.15.3l.67.08c1.17.15,1.42.19,1.42,3.05v10.34c0,2.86-.21,2.88-1.42,3.03l-.67.09c-.07.09-.12.19-.15.3-.03.11-.03.23-.01.34,0,.08.04.17.08.24.04.07.1.14.18.18l3.8-.08,3.73.08c.07-.04.14-.1.18-.18s.07-.16.07-.24c.02-.11.02-.23,0-.34-.03-.11-.08-.22-.16-.3l-.67-.09c-1.17-.15-1.42-.18-1.42-3.03v-10.28c0-2.86.22-2.89,1.42-3.05l.67-.08c.07-.08.13-.19.16-.3.03-.11.03-.23,0-.34,0-.09-.03-.17-.07-.24-.04-.07-.11-.13-.18-.18h-.08l.04-.06Z"/>
        <path class="cls-2" d="M203.89,47.69c-.29.54-.59.63-1.98.63h-11.33c-1.95,0-2.16,0-2.26-.6-.04-.08-.1-.14-.18-.18s-.16-.06-.25-.05c-.08,0-.17,0-.25.04-.08.03-.15.08-.2.15-.22,1.04-.64,2.77-1.1,4.23v.11c.05.09.12.17.2.23.08.06.18.1.28.12.11.03.23.04.35.03.12-.02.23-.06.32-.12,1.05-2.27,1.78-2.52,4.23-2.52h1.56q.59,0,.59,1.07v11.92c0,2.86-.21,2.88-1.41,2.98l-1.17.15c-.08.07-.14.16-.17.26-.04.1-.04.2-.03.31,0,.1.02.2.07.29s.12.17.2.22l4.35-.08,4.11.08c.08-.04.14-.11.19-.18.05-.07.08-.16.08-.24.02-.11.01-.23-.02-.34-.03-.11-.09-.21-.16-.3l-1.05-.12c-1.17-.13-1.42-.15-1.42-3.01v-11.86q0-1.07.6-1.07h1.58c2.96,0,3.36.52,3.7,2.57.09.07.2.11.31.14s.23.03.34,0c.09-.01.17-.04.25-.08.08-.04.14-.1.2-.17-.03-1.46.11-2.93.41-4.36v-.07c-.06-.07-.13-.13-.22-.17-.09-.04-.18-.05-.27-.04l-.45.06Z"/>
        <path class="cls-2" d="M219.13,48.16c-.62,0-2.34.08-3.52.08l-3.51-.08c-.09.02-.16.07-.23.14-.06.07-.1.15-.12.24-.04.12-.04.24-.03.36s.06.23.13.33l.79.18c1.17.25,1.37.53,1.97,1.7l3.34,6.62c.65,1,.96,2.19.87,3.37v1.64c0,2.86-.21,2.88-1.41,3.01l-.95.12c-.07.09-.13.19-.16.3-.03.11-.03.23,0,.34,0,.09.03.17.08.24s.11.14.18.18l4.07-.08,4.23.08c.07-.05.13-.11.18-.18.04-.07.07-.16.08-.24.02-.11.02-.23,0-.34-.03-.11-.08-.22-.16-.3l-1.17-.12c-1.28-.13-1.48-.15-1.48-3.01v-1.66c-.11-1.36.25-2.71,1.01-3.84l.34-.6,2.34-4.07c1.44-2.45,1.75-2.92,2.92-3.13l.86-.18c.07-.09.13-.19.16-.3.03-.11.04-.23.02-.34-.01-.08-.04-.16-.09-.24-.05-.07-.11-.13-.18-.17l-2.68.08-2.95-.08c-.08.04-.15.11-.2.18-.05.08-.08.16-.1.25,0,.05,0,.09,0,.14,0,.18.06.35.19.48l.88.21c.48.06.51.15.51.26-.15.63-.4,1.23-.73,1.79l-3.13,5.89c-.84-1.59-1.64-3.29-2.48-5.11l-.6-1.29c-.22-.43-.39-.89-.48-1.37,0-.08,0-.15.45-.21l.88-.14c.07-.06.12-.14.15-.22.03-.08.05-.18.04-.27,0-.03,0-.07,0-.11,0-.09-.03-.19-.08-.27-.05-.08-.11-.15-.19-.2l-.03-.07Z"/>
        <path class="cls-2" d="M14.89,16.46l-4.35-2.58c-2.96-1.85-4.49-3.93-4.49-6.19,0-1.66.61-5.54,6.26-5.54,4.93,0,6.43,3.03,7.18,5.69.09.1.21.18.33.23s.27.07.4.05c.34,0,.67-.15.91-.4,0-1.86-.24-3.71-.71-5.51-.15-.59-.29-1.84-1.17-1.87-.32,0-.65.07-.95.19-.4.14-.83.21-1.25.19-.41,0-.82-.15-1.17-.21-.91-.16-1.84-.25-2.77-.28C6.44.23,1.95,3.86,1.95,9.25c0,4.35,3.21,7.28,5.86,8.98l5.13,3.19c3.82,2.34,4.35,4.78,4.35,7.03,0,2.86-2.03,5.75-6.57,5.75-5.62,0-8.06-4.11-9.13-7.55-.07-.1-.16-.18-.27-.23s-.23-.08-.35-.07c-.18,0-.36.03-.53.1-.17.07-.32.18-.44.31.05,1.05.17,2.1.35,3.14.16,1.06.39,2.12.69,3.15.23.7.56,1.36.97,1.97.37.52.88.52,1.48.49.59-.04,1.18-.01,1.77.08,1.57.37,3.19.56,4.8.55,6.97,0,11.72-3.89,11.72-9.67-.06-4.03-2.28-7.3-6.88-10.01Z"/>
        <path class="cls-2" d="M79.36.23c-.65.88-1.56,1.54-2.59,1.91h-.14v.14c.14.77-.15,1.72-.87,3.52l-5.27,14.03-3.52,8.96-1.01,2.51c-.18.66-.55,1.25-1.08,1.68s-1.18.69-1.86.73l-1.75.15c-.09.1-.16.21-.2.34-.04.13-.05.26-.03.4,0,.15.03.3.09.44.06.14.15.26.26.37h1.17l3.82-.11h1.71l3.67.12c.13-.07.24-.17.32-.29.08-.12.12-.27.13-.41.03-.16.02-.32-.04-.47-.06-.15-.15-.28-.28-.38l-1.73-.15c-1.25-.11-1.35-.41-1.35-.87.23-1.45.63-2.86,1.17-4.22l1.79-5.4c.33-.98.55-1.17,1.8-1.17h7.77c1.49,0,1.62.14,1.95,1.17l2.27,7.03c.34.86.56,1.76.66,2.67,0,.39-.62.68-1.65.77l-1.54.15c-.11.1-.19.23-.24.37-.05.14-.07.29-.06.44.01.15.05.29.13.42s.17.24.29.33h1.05l4.89-.12c2.17,0,3.97,0,6.21.15h.07c.1-.12.18-.25.23-.4.05-.15.07-.3.06-.46,0-.13-.02-.26-.07-.38-.05-.12-.13-.22-.23-.3l-1.43-.15c-2.16-.25-2.79-1.05-4.23-5.34l-7.37-21.56c-.68-1.99-1.39-4.05-1.97-6.03-.06-.19-.19-.35-.36-.46-.17-.11-.37-.15-.57-.13h-.08ZM76.61,9.76c.49-1.34.93-2.34,1.17-2.81.3.67.71,1.9,1.09,3.01l2.78,8.38c.17.36.24.77.19,1.17-.09.19-.55.2-1.17.2h-6.33c-.39.04-.79,0-1.17-.12-.11-.11.09-.62.2-.9l3.25-8.93Z"/>
      </g>
    </g>
  </g>
</svg>