<svg aria-labelledby="ulaval-logo" class="university-logo" viewBox="0 0 100 50"><title id="ulaval-logo">Université Laval</title><path class="university-logo-fill" d="M138.3 16.7h3.2v15.7c0 4.1-2.9 8.2-9.4 8.2-5.9 0-9.4-3-9.4-8V16.7h3.6v15.4c0 4 2 5.9 6.2 5.9 4.1 0 6-3 6-5.9V16.7zM151.6 16.7h-3.1v23.4h3V22.2l14 17.9h3.2V16.7h-3.1v18.1l-14-18.1zM179.9 16.7v23.4h-3.5V16.7h3.5zM184.9 16.7h3.6l5.8 17.6 6.4-17.6h3l-8.9 23.4H193l-8.1-23.4zM222.4 16.7v2.5H212v7.6h8.3v2.5H212v8.4h10.4v2.5h-14V16.7h14zM238 29.1l.4-.1c1.8-.5 4.4-3.3 4.4-6.4 0-2.8-2.6-5.9-8.3-5.9H228v23.4h3.6V18.9h2.5c3.8 0 5.1 2.2 5.1 4.1 0 2-1.6 4.7-5.2 4.7h-.9l7.9 12.4h4.2l-7.2-11zM259.7 34.6c0-2.2-2.1-3.5-4.5-4.9l-.8-.5c-2.7-1.6-5.5-3.7-5.5-7 0-3.4 3-6 7-6 3.4 0 5.4.8 6.2 1.2-.1.2-.9 2.1-1 2.3-.8-.4-2.4-1-4.6-1-2.5 0-4.1 1.1-4.1 2.9 0 2.2 1.8 3.3 4.1 4.7l1 .6.1.1c2.3 1.5 5.9 3.7 5.9 6.9 0 4-4.3 6.7-8.3 6.7-3.8 0-6-1.1-6.9-1.5.1-.2.9-2 1-2.2 1 .5 3 1.3 6 1.3 2.4-.1 4.4-1.7 4.4-3.6zM272.9 16.7v23.4h-3.5V16.7h3.5zM296.4 16.7v2.5h-7.7v21h-3.6v-21h-7.7v-2.5h19zM304.6 19.1v7.6h8.3v2.5h-8.3v8.4H315v2.5h-14V16.7h14v2.5h-10.4zM311.5 8.8l1.4 2.1-6 3.3-.8-1.3 5.4-4.1zM226.9 49.4v.2c5 1.9 2.3 8.3.1 13.8l-11 27.8-16.1-41.8h-10.7v.2c3.1 2.4 4.8 7.1 6.3 11.1l15.3 39.6h7.7L239 49.4h-12.1zM315 92.7c-3 1.4-6.2 2-9.9 2h-11V49.4h-11.9v.2c3.7 1.3 3.6 7.1 3.6 10.7V100c-4-2-6-6.6-7.9-11l-16.8-39.7h-12.8v.2c3.8 1.1 2.4 4.4 1.2 7.2L236 89c-1.8 4.4-3.8 9-7.9 11v.2h10.1l5.2-13.5h24.8l5.4 13.5H315v-7.5zm-69.2-11.5L255.9 56l10.3 25.2h-20.4zM193.7 89.1l-16.8-39.7h-12.8v.2c3.8 1.1 2.4 4.4 1.2 7.2l-13.5 32.3c-.7 1.6-1.4 3.2-2.1 4.7-1.9.6-4 .9-6.2.9h-11V49.4h-11.9v.2c3.7 1.3 3.6 7.1 3.6 10.7v40h29.9l5.2-13.5h24.8l5.3 13.5h12.2v-.2c-4.2-2.1-6-6.6-7.9-11zm-32.3-7.9L171.5 56l10.3 25.2h-20.4zM0 0v101.4c0 8.7 6.7 15.6 15.3 15.6h24.1c3.2 0 7.4 2.2 9.5 8.3l1.2 3.4c.3.7.7 1.1 1.2 1.1s.9-.4 1.2-1.1l1.2-3.4c2.1-6.1 6.3-8.3 9.5-8.3h24.1c8.6 0 15.3-6.8 15.3-15.6V0H0z"></path><g fill="#EB212E"><path d="M2.4 2.4h39.7v47H2.4zM2.4 67.6v33.8c0 7.6 5.9 13.1 12.9 13.1h24.1c.9 0 1.8.1 2.7.4V67.6H2.4zM60.3 2.4H100v47H60.3zM60.3 114.9c.9-.3 1.9-.4 2.7-.4h24.1c7 0 12.9-5.5 12.9-13.1V67.6H60.3v47.3z"></path></g><path fill="#FFC103" d="M60.3 49.4v-47H42.1v47H2.4v18.2h39.7v47.3c3.4 1 7.1 3.8 9.1 9.5 2-5.7 5.6-8.6 9.1-9.5V67.6H100V49.4H60.3z"></path><path d="M17.1 21.8c.1.3-.1.5-.3.6-.4.2-1.6.3-2.1.1 0 0-.6 1.1-1.5 1.1s-1.5-1.1-1.5-1.1c-.5.1-1.7.1-2.1-.1-.2-.1-.4-.4-.3-.6.3-1 1.1-4.1 1.3-5.2l-1.6.6c-.3 1.2-1.1 3.2-2.6 3.3-.2 0-.5-.1-.5-.3.2-1.7 1.2-9.2 1.3-10 .1-.6.3-.9.8-1.1.5-.2.9 0 1.4.4.4.4 1.9 1.7 1.9 1.7s.2-1.2.2-1.6h-.4c-.2 0-.4-.2-.4-.4l.2-1.5c0-.2.1-.3.2-.3 0 0 .6-.3 1.2-.5.5-.2.9-.2.9-.2.4 0 .8.1 1 .3.3.2.5.6.5 1l.3 3.2s1.5-1.4 1.9-1.7c.5-.5.9-.6 1.4-.4.5.2.7.5.8 1.2.1.7 1.1 8.3 1.3 10 0 .2-.3.3-.5.3-1.5-.1-2.3-2.1-2.6-3.3l-1.6-.6c.3 1 1.1 4.2 1.4 5.1zM35.3 21.8c.1.3-.1.5-.3.6-.4.2-1.6.3-2.1.1 0 0-.6 1.1-1.5 1.1s-1.5-1.1-1.5-1.1c-.5.1-1.7.1-2.1-.1-.2-.1-.4-.4-.3-.6.3-1 1.1-4.1 1.3-5.2l-1.6.6c-.3 1.2-1.1 3.2-2.6 3.3-.2 0-.5-.1-.5-.3.2-1.7 1.2-9.2 1.3-10 .1-.7.3-1.1.8-1.2.5-.2.9 0 1.4.4.4.4 1.9 1.7 1.9 1.7s.2-1.2.2-1.6h-.4c-.2 0-.4-.2-.4-.4l.2-1.5c0-.2.1-.3.2-.3 0 0 .6-.3 1.2-.5.5-.2.9-.2.9-.2.4 0 .8.1 1 .3.3.2.5.6.5 1l.3 3.2s1.5-1.4 1.9-1.7c.5-.5.9-.6 1.4-.4.5.2.7.5.8 1.2.1.7 1.1 8.3 1.3 10 0 .2-.3.3-.5.3-1.5-.1-2.3-2.1-2.6-3.3l-1.6-.6c.3 1.1 1.1 4.3 1.4 5.2zM17.1 43.3c.1.3-.1.5-.3.6-.4.2-1.6.3-2.1.1 0 0-.6 1.1-1.5 1.1S11.7 44 11.7 44c-.5.2-1.7.1-2.1-.1-.2-.1-.4-.3-.3-.6.3-1 1.1-4.1 1.3-5.2l-1.6.6c-.3 1.2-1.1 3.2-2.6 3.3-.2 0-.5-.1-.5-.3.2-1.7 1.2-9.2 1.3-10 .1-.7.3-1.1.8-1.2.5-.2.9 0 1.4.4.4.4 1.9 1.7 1.9 1.7s.2-1.2.2-1.6h-.4c-.2 0-.4-.2-.4-.4l.2-1.5c0-.2.1-.3.2-.4 0 0 .6-.3 1.2-.5.5-.2.9-.2.9-.2.4 0 .8.1 1 .3.3.2.5.6.5 1l.3 3.2s1.5-1.4 1.9-1.7c.5-.5.9-.6 1.4-.4.5.2.7.5.8 1.2.1.7 1.1 8.3 1.3 10 0 .2-.3.3-.5.3-1.5-.1-2.3-2.1-2.6-3.3l-1.6-.6c.3 1.2 1.1 4.3 1.4 5.3zM35.3 43.3c.1.3-.1.5-.3.6-.4.2-1.6.3-2.1.1 0 0-.6 1.1-1.5 1.1S29.9 44 29.9 44c-.5.2-1.7.1-2.1-.1-.2-.1-.4-.3-.3-.6.3-1 1.1-4.1 1.3-5.2l-1.6.6c-.3 1.2-1.1 3.2-2.6 3.3-.2 0-.5-.1-.5-.3.2-1.7 1.2-9.2 1.3-10 .1-.7.3-1.1.8-1.2.5-.2.9 0 1.4.4.4.4 1.9 1.7 1.9 1.7s.2-1.2.2-1.6h-.4c-.2 0-.4-.2-.4-.4l.2-1.5c0-.2.1-.3.2-.4 0 0 .6-.3 1.2-.5.5-.2.9-.2.9-.2.4 0 .8.1 1 .3.3.2.5.6.5 1l.3 3.2s1.5-1.4 1.9-1.7c.5-.5.9-.6 1.4-.4.5.2.7.5.8 1.2.1.7 1.1 8.3 1.3 10 0 .2-.3.3-.5.3-1.5-.1-2.3-2.1-2.6-3.3l-1.6-.6c.3 1.2 1.1 4.3 1.4 5.3zM75 21.8c.1.3-.1.5-.3.6-.4.2-1.6.3-2.1.1 0 0-.6 1.1-1.5 1.1s-1.5-1.1-1.5-1.1c-.5.1-1.7.1-2.1-.1-.2-.1-.4-.4-.3-.6.3-1 1.1-4.1 1.3-5.2l-1.6.6c-.3 1.2-1.1 3.2-2.6 3.3-.2 0-.5-.1-.5-.3.2-1.7 1.2-9.2 1.3-10 .1-.7.3-1.1.8-1.2.5-.2.9 0 1.4.4.4.4 1.9 1.7 1.9 1.7s.2-1.2.2-1.6H69c-.2 0-.4-.2-.4-.4l.2-1.5c0-.2.1-.3.2-.3 0 0 .6-.3 1.2-.5.5-.2.9-.2.9-.2.4 0 .8.1 1 .3.3.2.5.6.5 1l.3 3.2s1.5-1.4 1.9-1.7c.5-.5.9-.6 1.4-.4.5.2.7.5.8 1.2.1.7 1.1 8.3 1.3 10 0 .2-.3.3-.5.3-1.5-.1-2.3-2.1-2.6-3.3l-1.6-.6c.3 1.1 1.1 4.3 1.4 5.2zM93.2 21.8c.1.3-.1.5-.3.6-.4.2-1.6.3-2.1.1 0 0-.6 1.1-1.5 1.1s-1.5-1.1-1.5-1.1c-.5.1-1.7.1-2.1-.1-.2-.1-.4-.4-.3-.6.3-1 1.1-4.1 1.3-5.2l-1.6.6c-.3 1.2-1.1 3.2-2.6 3.3-.2 0-.5-.1-.5-.3.2-1.7 1.2-9.2 1.3-10 .1-.7.3-1.1.8-1.2.5-.2.9 0 1.4.4.4.4 1.9 1.7 1.9 1.7s.2-1.2.2-1.6h-.4c-.2 0-.4-.2-.4-.4l.2-1.3c0-.2.1-.3.2-.3 0 0 .6-.3 1.2-.5.5-.2.9-.2.9-.2.4 0 .8.1 1 .3.3.2.5.6.5 1l.3 3.2s1.5-1.4 1.9-1.7c.5-.5.9-.6 1.4-.4.5.2.7.5.8 1.2.1.7 1.1 8.3 1.3 10 0 .2-.3.3-.5.3-1.5-.1-2.3-2.1-2.6-3.3l-1.6-.6c.3.9 1.1 4.1 1.4 5zM75 43.3c.1.3-.1.5-.3.6-.4.2-1.6.3-2.1.1 0 0-.6 1.1-1.5 1.1S69.6 44 69.6 44c-.5.2-1.7.1-2.1-.1-.2-.1-.4-.3-.3-.6.3-1 1.1-4.1 1.3-5.2l-1.6.6c-.3 1.2-1.1 3.2-2.6 3.3-.2 0-.5-.1-.5-.3.2-1.7 1.2-9.2 1.3-10 .1-.7.3-1.1.8-1.2.5-.2.9 0 1.4.4.4.4 1.9 1.7 1.9 1.7s.2-1.2.2-1.6H69c-.2 0-.4-.2-.4-.4l.2-1.5c0-.2.1-.3.2-.4 0 0 .6-.3 1.2-.5.5-.2.9-.2.9-.2.4 0 .8.1 1 .3.3.2.5.6.5 1l.3 3.2s1.5-1.4 1.9-1.7c.5-.5.9-.6 1.4-.4.5.2.7.5.8 1.2.1.7 1.1 8.3 1.3 10 0 .2-.3.3-.5.3-1.5-.1-2.3-2.1-2.6-3.3l-1.6-.6c.3 1.2 1.1 4.3 1.4 5.3zM93.2 43.3c.1.3-.1.5-.3.6-.4.2-1.6.3-2.1.1 0 0-.6 1.1-1.5 1.1S87.8 44 87.8 44c-.5.2-1.7.1-2.1-.1-.2-.1-.4-.3-.3-.6.3-1 1.1-4.1 1.3-5.2l-1.6.6c-.3 1.2-1.1 3.2-2.6 3.3-.2 0-.5-.1-.5-.3.2-1.7 1.2-9.2 1.3-10 .1-.7.3-1.1.8-1.2.5-.2.9 0 1.4.4.4.4 1.9 1.7 1.9 1.7s.2-1.2.2-1.6h-.4c-.2 0-.4-.2-.4-.4l.2-1.5c0-.2.1-.3.2-.4 0 0 .6-.3 1.2-.5.5-.2.9-.2.9-.2.4 0 .8.1 1 .3.3.2.5.6.5 1l.3 3.2s1.5-1.4 1.9-1.7c.5-.5.9-.6 1.4-.4.5.2.7.5.8 1.2.1.7 1.1 8.3 1.3 10 0 .2-.3.3-.5.3-1.5-.1-2.3-2.1-2.6-3.3l-1.6-.6c.3 1.2 1.1 4.3 1.4 5.3zM17.1 87c.1.3-.1.5-.3.6-.4.2-1.6.3-2.1.1 0 0-.6 1.1-1.5 1.1s-1.5-1.1-1.5-1.1c-.5.2-1.7.1-2.1-.1-.2-.1-.4-.4-.3-.6.3-1 1.1-4.1 1.3-5.2l-1.6.6c-.3 1.2-1.1 3.2-2.6 3.3-.2 0-.5-.1-.5-.3.2-1.7 1.2-9.2 1.3-10 .1-.7.3-1.1.8-1.2.5-.2.9 0 1.4.4.4.4 1.9 1.7 1.9 1.7s.2-1.2.2-1.6h-.4c-.2 0-.4-.2-.4-.4l.2-1.5c0-.2.1-.3.2-.3 0 0 .6-.3 1.2-.5.5-.2.9-.2.9-.2.4 0 .8.1 1 .3.3.2.5.6.5 1l.3 3.2s1.5-1.4 1.9-1.7c.5-.5.9-.6 1.4-.4.5.2.7.5.8 1.2.1.7 1.1 8.3 1.3 10 0 .2-.3.3-.5.3-1.5-.1-2.3-2.1-2.6-3.3l-1.6-.6c.3 1.1 1.1 4.2 1.4 5.2zM35.3 87c.1.3-.1.5-.3.6-.4.2-1.6.3-2.1.1 0 0-.6 1.1-1.5 1.1s-1.5-1.1-1.5-1.1c-.5.2-1.7.1-2.1-.1-.2-.1-.4-.4-.3-.6.3-1 1.1-4.1 1.3-5.2l-1.6.6c-.3 1.2-1.1 3.2-2.6 3.3-.2 0-.5-.1-.5-.3.2-1.7 1.2-9.2 1.3-10 .1-.7.3-1.1.8-1.2.5-.2.9 0 1.4.4.4.4 1.9 1.7 1.9 1.7s.2-1.2.2-1.6h-.4c-.2 0-.4-.2-.4-.4l.2-1.5c0-.2.1-.3.2-.3 0 0 .6-.3 1.2-.5.5-.2.9-.2.9-.2.4 0 .8.1 1 .3.3.2.5.6.5 1l.3 3.2s1.5-1.4 1.9-1.7c.5-.5.9-.6 1.4-.4.5.2.7.5.8 1.2.1.7 1.1 8.3 1.3 10 0 .2-.3.3-.5.3-1.5-.1-2.3-2.1-2.6-3.3l-1.6-.6c.3 1.1 1.1 4.2 1.4 5.2zM17.1 108.4c.1.3-.1.5-.3.6-.4.2-1.6.3-2.1.1 0 0-.6 1.1-1.5 1.1s-1.5-1.1-1.5-1.1c-.5.2-1.7.1-2.1-.1-.2-.1-.4-.3-.3-.6.3-1 1.1-4.1 1.3-5.2l-1.6.6c-.3 1.2-1.1 3.2-2.6 3.3-.2 0-.5-.1-.5-.3.2-1.7 1.2-9.2 1.3-10 .1-.7.3-1.1.8-1.2.5-.2.9 0 1.4.4.4.4 1.9 1.7 1.9 1.7s.2-1.2.2-1.6h-.4c-.2 0-.4-.2-.4-.4l.2-1.5c0-.2.1-.3.2-.3 0 0 .6-.3 1.2-.5.5-.2.9-.2.9-.2.4 0 .8.1 1 .3.3.2.5.6.5 1l.3 3.2s1.5-1.4 1.9-1.7c.5-.5.9-.6 1.4-.4.5.2.7.5.8 1.2.1.7 1.1 8.3 1.3 10 0 .2-.3.3-.5.3-1.5-.1-2.3-2.1-2.6-3.3l-1.6-.6c.3 1.1 1.1 4.2 1.4 5.2zM35.3 108.4c.1.3-.1.5-.3.6-.4.2-1.6.3-2.1.1 0 0-.6 1.1-1.5 1.1s-1.5-1.1-1.5-1.1c-.5.2-1.7.1-2.1-.1-.2-.1-.4-.3-.3-.6.3-1 1.1-4.1 1.3-5.2l-1.6.6c-.3 1.2-1.1 3.2-2.6 3.3-.2 0-.5-.1-.5-.3.2-1.7 1.2-9.2 1.3-10 .1-.7.3-1.1.8-1.2.5-.2.9 0 1.4.4.4.4 1.9 1.7 1.9 1.7s.2-1.2.2-1.6h-.4c-.2 0-.4-.2-.4-.4l.2-1.5c0-.2.1-.3.2-.3 0 0 .6-.3 1.2-.5.5-.2.9-.2.9-.2.4 0 .8.1 1 .3.3.2.5.6.5 1l.3 3.2s1.5-1.4 1.9-1.7c.5-.5.9-.6 1.4-.4.5.2.7.5.8 1.2.1.7 1.1 8.3 1.3 10 0 .2-.3.3-.5.3-1.5-.1-2.3-2.1-2.6-3.3l-1.6-.6c.3 1.1 1.1 4.2 1.4 5.2zM75 87c.1.3-.1.5-.3.6-.4.2-1.6.3-2.1.1 0 0-.6 1.1-1.5 1.1s-1.5-1.1-1.5-1.1c-.5.2-1.7.1-2.1-.1-.2-.1-.4-.4-.3-.6.3-1 1.1-4.1 1.3-5.2l-1.6.6c-.3 1.2-1.1 3.2-2.6 3.3-.2 0-.5-.1-.5-.3.2-1.7 1.2-9.2 1.3-10 .1-.7.3-1.1.8-1.2.5-.2.9 0 1.4.4.4.4 1.9 1.7 1.9 1.7s.2-1.2.2-1.6H69c-.2 0-.4-.2-.4-.4l.2-1.5c0-.2.1-.3.2-.3 0 0 .6-.3 1.2-.5.5-.2.9-.2.9-.2.4 0 .8.1 1 .3.3.2.5.6.5 1l.3 3.2s1.5-1.4 1.9-1.7c.5-.5.9-.6 1.4-.4.5.2.7.5.8 1.2.1.7 1.1 8.3 1.3 10 0 .2-.3.3-.5.3-1.5-.1-2.3-2.1-2.6-3.3l-1.6-.6c.3 1.1 1.1 4.2 1.4 5.2zM93.2 87c.1.3-.1.5-.3.6-.4.2-1.6.3-2.1.1 0 0-.6 1.1-1.5 1.1s-1.5-1.1-1.5-1.1c-.5.2-1.7.1-2.1-.1-.2-.1-.4-.4-.3-.6.3-1 1.1-4.1 1.3-5.2l-1.6.6c-.3 1.2-1.1 3.2-2.6 3.3-.2 0-.5-.1-.5-.3.2-1.7 1.2-9.2 1.3-10 .1-.7.3-1.1.8-1.2.5-.2.9 0 1.4.4.4.4 1.9 1.7 1.9 1.7s.2-1.2.2-1.6h-.4c-.2 0-.4-.2-.4-.4l.2-1.5c0-.2.1-.3.2-.3 0 0 .6-.3 1.2-.5.5-.2.9-.2.9-.2.4 0 .8.1 1 .3.3.2.5.6.5 1l.3 3.2s1.5-1.4 1.9-1.7c.5-.5.9-.6 1.4-.4.5.2.7.5.8 1.2.1.7 1.1 8.3 1.3 10 0 .2-.3.3-.5.3-1.5-.1-2.3-2.1-2.6-3.3l-1.6-.6c.3 1.1 1.1 4.2 1.4 5.2zM75 108.4c.1.3-.1.5-.3.6-.4.2-1.6.3-2.1.1 0 0-.6 1.1-1.5 1.1s-1.5-1.1-1.5-1.1c-.5.2-1.7.1-2.1-.1-.2-.1-.4-.3-.3-.6.3-1 1.1-4.1 1.3-5.2l-1.6.6c-.3 1.2-1.1 3.2-2.6 3.3-.2 0-.5-.1-.5-.3.2-1.7 1.2-9.2 1.3-10 .1-.7.3-1.1.8-1.2.5-.2.9 0 1.4.4.4.4 1.9 1.7 1.9 1.7s.2-1.2.2-1.6H69c-.2 0-.4-.2-.4-.4l.2-1.5c0-.2.1-.3.2-.3 0 0 .6-.3 1.2-.5.5-.2.9-.2.9-.2.4 0 .8.1 1 .3.3.2.5.6.5 1l.3 3.2s1.5-1.4 1.9-1.7c.5-.5.9-.6 1.4-.4.5.2.7.5.8 1.2.1.7 1.1 8.3 1.3 10 0 .2-.3.3-.5.3-1.5-.1-2.3-2.1-2.6-3.3l-1.6-.6c.3 1.1 1.1 4.2 1.4 5.2zM93.2 108.4c.1.3-.1.5-.3.6-.4.2-1.6.3-2.1.1 0 0-.6 1.1-1.5 1.1s-1.5-1.1-1.5-1.1c-.5.2-1.7.1-2.1-.1-.2-.1-.4-.3-.3-.6.3-1 1.1-4.1 1.3-5.2l-1.6.6c-.3 1.2-1.1 3.2-2.6 3.3-.2 0-.5-.1-.5-.3.2-1.7 1.2-9.2 1.3-10 .1-.7.3-1.1.8-1.2.5-.2.9 0 1.4.4.4.4 1.9 1.7 1.9 1.7s.2-1.2.2-1.6h-.4c-.2 0-.4-.2-.4-.4l.2-1.5c0-.2.1-.3.2-.3 0 0 .6-.3 1.2-.5.5-.2.9-.2.9-.2.4 0 .8.1 1 .3.3.2.5.6.5 1l.3 3.2s1.5-1.4 1.9-1.7c.5-.5.9-.6 1.4-.4.5.2.7.5.8 1.2.1.7 1.1 8.3 1.3 10 0 .2-.3.3-.5.3-1.5-.1-2.3-2.1-2.6-3.3l-1.6-.6c.3 1.1 1.1 4.2 1.4 5.2zM51.2 32.6c.8 0 1.5-.4 1.9-1 .3.2.7.2 1 .2 1.1 0 2.1-.9 2.2-2 1.2 0 2.2-1 2.2-2.2 0-.5-.2-1-.5-1.4l-2.5-3V22c0-.6-.5-1.1-1.1-1.1h-1.1l-1-1c-.3-.3-.6-.4-1-.4s-.8.2-1 .4l-1 1h-1.1c-.6 0-1.1.5-1.1 1.1v1.2l-2.5 3c-.3.4-.5.9-.5 1.4 0 1.2 1 2.2 2.2 2.2.1 1.1 1 2 2.2 2 .4 0 .7-.1 1-.2.3.6 1 1 1.7 1zM51.2 65.2c.8 0 1.5-.4 1.9-1 .3.2.7.2 1 .2 1.1 0 2.1-.9 2.2-2 1.2 0 2.2-1 2.2-2.2 0-.5-.2-1-.5-1.4l-2.5-3v-1.2c0-.6-.5-1.1-1.1-1.1h-1.1l-1-1c-.3-.3-.6-.4-1-.4s-.8.2-1 .4l-1 1h-1.1c-.6 0-1.1.5-1.1 1.1v1.2l-2.5 3c-.3.4-.5.9-.5 1.4 0 1.2 1 2.2 2.2 2.2.1 1.1 1.1 2 2.2 2 .4 0 .7-.1 1-.2.2.6.9 1 1.7 1zM22.3 65.2c.8 0 1.5-.4 1.9-1 .3.2.7.2 1 .2 1.1 0 2.1-.9 2.2-2 1.2 0 2.2-1 2.2-2.2 0-.5-.2-1-.5-1.4l-2.5-3v-1.2c0-.6-.5-1.1-1.1-1.1h-1.1l-1-1c-.3-.3-.6-.4-1-.4s-.8.2-1 .4l-1 1h-1.1c-.6 0-1.1.5-1.1 1.1v1.2l-2.5 3c-.3.4-.5.9-.5 1.4 0 1.2 1 2.2 2.2 2.2.1 1.1 1.1 2 2.2 2 .4 0 .7-.1 1-.2.2.6.9 1 1.7 1zM80.2 65.2c.8 0 1.5-.4 1.9-1 .3.2.7.2 1 .2 1.1 0 2.1-.9 2.2-2 1.2 0 2.2-1 2.2-2.2 0-.5-.2-1-.5-1.4l-2.5-3v-1.2c0-.6-.5-1.1-1.1-1.1h-1.1l-1-1c-.3-.3-.6-.4-1-.4s-.8.2-1 .4l-1 1h-1.1c-.6 0-1.1.5-1.1 1.1v1.2l-2.5 3c-.3.4-.5.9-.5 1.4 0 1.2 1 2.2 2.2 2.2.1 1.1 1.1 2 2.2 2 .4 0 .7-.1 1-.2.2.6.9 1 1.7 1zM51.2 97.7c.8 0 1.5-.4 1.9-1 .3.2.7.2 1 .2 1.1 0 2.1-.9 2.2-2 1.2 0 2.2-1 2.2-2.2 0-.5-.2-1-.5-1.4l-2.5-3v-1.2c0-.6-.5-1.1-1.1-1.1h-1.1l-1-1c-.3-.3-.6-.4-1-.4s-.8.2-1 .4l-1 1h-1.1c-.6 0-1.1.5-1.1 1.1v1.2l-2.5 3c-.3.4-.5.9-.5 1.4 0 1.2 1 2.2 2.2 2.2.1 1.1 1 2 2.2 2 .4 0 .7-.1 1-.2.3.6 1 1 1.7 1z"></path><g fill="#09F"><path d="M51.2 31.9c.5 0 1-.3 1.2-.7l-.4-4c0-.2.1-.3.3-.3.2 0 .3.1.3.2l.7 3.8c.2.1.5.2.7.2.8 0 1.4-.6 1.5-1.4L53.9 26c-.1-.1 0-.3.2-.4.1-.1.3 0 .4.1l1.8 3.4c.8 0 1.5-.7 1.5-1.5 0-.3 0-.6-.2-.8l-2.8-3.4V22c0-.2-.1-.3-.3-.3h-1.4l-1.2-1.2c-.1-.1-.3-.2-.5-.2s-.4.1-.5.2l-1.2 1.2h-1.4c-.2 0-.3.1-.3.3v1.5l-3 3.4c-.2.2-.2.5-.2.8 0 .8.7 1.5 1.5 1.5l1.8-3.4c.1-.1.2-.2.4-.1.1.1.2.2.2.4L47 29.8c.1.8.7 1.4 1.5 1.4.3 0 .5-.1.7-.2l.7-3.8c0-.2.2-.3.3-.2.2 0 .3.2.3.3l-.4 4c.2.3.6.6 1.1.6zM51.2 64.5c.5 0 1-.3 1.2-.7l-.4-4c0-.2.1-.3.3-.3.2 0 .3.1.3.2l.7 3.8c.2.1.5.2.7.2.8 0 1.4-.6 1.5-1.4l-1.6-3.8c-.1-.1 0-.3.2-.4.1-.1.3 0 .4.1l1.8 3.4c.8 0 1.5-.7 1.5-1.5 0-.3 0-.6-.2-.8l-2.8-3.4v-1.5c0-.2-.1-.3-.3-.3h-1.4L51.7 53c-.1-.1-.3-.2-.5-.2s-.4.1-.5.2l-1.2 1.2h-1.4c-.2 0-.3.1-.3.3V56L45 59.4c-.2.2-.2.5-.2.8 0 .8.7 1.5 1.5 1.5l1.8-3.4c.1-.1.2-.2.4-.1.1.1.2.2.2.4L47 62.3c.1.8.7 1.4 1.5 1.4.3 0 .5-.1.7-.2l.7-3.8c0-.2.2-.3.3-.2.2 0 .3.2.3.3l-.4 4c.2.3.6.6 1.2.7zM22.3 64.5c.5 0 1-.3 1.2-.7l-.4-4c0-.2.1-.3.3-.3.2 0 .3.1.3.2l.7 3.8c.2.1.5.2.7.2.8 0 1.4-.6 1.5-1.4L25 58.5c-.1-.1 0-.3.2-.4.1-.1.3 0 .4.1l1.8 3.4c.8 0 1.5-.7 1.5-1.5 0-.3 0-.6-.2-.8l-2.8-3.4v-1.5c0-.2-.1-.3-.3-.3h-1.4L22.8 53c-.1-.1-.3-.2-.5-.2s-.4.1-.5.2l-1.2 1.2h-1.4c-.2 0-.3.1-.3.3V56l-2.8 3.4c-.2.2-.2.5-.2.8 0 .8.7 1.5 1.5 1.5l1.8-3.4c.1-.1.2-.2.4-.1.1.1.2.2.2.4L18 62.3c.1.8.7 1.4 1.5 1.4.3 0 .5-.1.7-.2l.7-3.8c0-.2.2-.3.3-.2.2 0 .3.2.3.3l-.4 4c.2.3.7.6 1.2.7zM80.2 64.5c.5 0 1-.3 1.2-.7l-.4-4c0-.2.1-.3.3-.3.2 0 .3.1.3.2l.7 3.8c.2.1.5.2.7.2.8 0 1.4-.6 1.5-1.4l-1.6-3.8c-.1-.1 0-.3.2-.4.1-.1.3 0 .4.1l1.8 3.4c.8 0 1.5-.7 1.5-1.5 0-.3 0-.6-.2-.8l-2.8-3.4v-1.5c0-.2-.1-.3-.3-.3h-1.4L80.7 53c-.1-.1-.3-.2-.5-.2s-.4.1-.5.2l-1.2 1.2h-1.4c-.2 0-.3.1-.3.3V56L74 59.4c-.2.2-.2.5-.2.8 0 .8.7 1.5 1.5 1.5l1.8-3.4c.1-.1.2-.2.4-.1.1.1.2.2.2.4l-1.6 3.8c.1.8.7 1.4 1.5 1.4.3 0 .5-.1.7-.2l.7-3.8c0-.2.2-.3.3-.2.2 0 .3.2.3.3l-.4 4c0 .2.5.5 1 .6zM51.2 97c.5 0 1-.3 1.2-.7l-.4-4c0-.2.1-.3.3-.3.2 0 .3.1.3.2l.7 3.8c.2.1.5.2.7.2.8 0 1.4-.6 1.5-1.4L53.9 91c-.1-.1 0-.3.2-.4.1-.1.3 0 .4.1l1.8 3.4c.8 0 1.5-.7 1.5-1.5 0-.3 0-.6-.2-.8l-2.8-3.4v-1.5c0-.2-.1-.3-.3-.3h-1.4l-1.2-1.2c-.1-.1-.3-.2-.5-.2s-.4.1-.5.2l-1.2 1.2h-1.4c-.2 0-.3.1-.3.3v1.5L45 92c-.2.2-.2.5-.2.8 0 .8.7 1.5 1.5 1.5l1.8-3.4c.1-.1.2-.2.4-.1.1.1.2.2.2.4L47 94.9c.1.8.7 1.4 1.5 1.4.3 0 .5-.1.7-.2l.7-3.8c0-.2.2-.3.3-.2.2 0 .3.2.3.3l-.4 4c.2.3.6.6 1.1.6z"></path></g><g fill="#D9D9D9"><path d="M16.3 21.8c-.3.1-.8.2-1.1.2H15l-.7-3c-.1-.5-.5-.5-.5.1l.3 3c-.1.2-.5.9-.9.9s-.9-.7-.9-.9l.3-3c.1-.6-.4-.6-.5-.1l-.6 2.9h-.2c-.3 0-.9 0-1.1-.1.4-1.5 1.2-4.7 1.5-5.7 0-.2-.1-.4-.4-.4h-.2c-.4.1-1.4.5-1.8.7l.2-2.4c0-.6-.4-.6-.5-.1-.5 2.1-.7 4.9-2.2 5.8.1-1 1.1-8.4 1.2-9.4 0-.2 0-.4.3-.5.2-.1.4 0 .5.2l2.5 2.3c.1.1.3.2.4.1.1 0 .3-.2.3-.3l.3-2.8c0-.1 0-.2-.1-.3-.1-.1-.2-.1-.3-.1h-.4l.1-.9c.3-.1 1-.5 1.4-.5h.1c.2 0 .4.1.6.2.2.1.3.2.3.4l.4 4c0 .2.1.3.3.3.1 0 .3 0 .4-.1l2.5-2.3c.2-.2.3-.2.5-.2.3.1.3.3.3.5.1 1 1.1 8.4 1.2 9.4-1.5-.9-1.8-3.7-2.2-5.8-.1-.5-.6-.5-.5.1l.2 2.4c-.3-.1-1.4-.5-1.8-.7h-.2c-.3 0-.4.3-.4.4.4 1 1.2 4.3 1.6 5.7zM34.5 21.8c-.3.1-.9.1-1.1.1h-.2l-.7-2.9c-.1-.5-.5-.5-.5.1l.3 3c-.1.2-.5.9-.9.9s-.9-.7-.9-.9l.3-3c.1-.6-.4-.6-.5-.1l-.6 2.9h-.2c-.3 0-.9 0-1.1-.1.4-1.5 1.2-4.7 1.5-5.7 0-.2-.1-.4-.4-.4h-.2c-.4.1-1.4.5-1.8.7l.2-2.4c0-.6-.4-.6-.5-.1-.5 2.1-.7 4.9-2.2 5.8.1-1 1.1-8.4 1.2-9.4 0-.2 0-.4.3-.5.2-.1.4 0 .5.2l2.5 2.3c.1.1.3.2.4.1.1 0 .3-.2.3-.3l.3-2.8c0-.1 0-.2-.1-.3-.1-.1-.2-.1-.3-.1h-.4l.1-.9c.3-.1 1-.5 1.4-.5h.1c.2 0 .4.1.6.2.2.1.2.3.3.5l.4 4c0 .2.1.3.3.3.1 0 .3 0 .4-.1l2.5-2.3c.2-.2.3-.2.5-.2.3.1.3.3.3.5.1 1 1.1 8.4 1.2 9.4-1.5-.9-1.8-3.7-2.2-5.8-.1-.5-.6-.5-.5.1l.2 2.4c-.3-.1-1.4-.5-1.8-.7h-.2c-.3 0-.4.3-.4.4.4.9 1.2 4.2 1.6 5.6zM16.3 43.3c-.3.1-.9.1-1.1.1H15l-.6-2.9c-.1-.5-.5-.5-.5.1l.3 3c-.1.2-.5.9-.9.9s-.9-.7-.9-.9l.3-3c.1-.6-.4-.6-.5-.1l-.6 2.9h-.2c-.3 0-.9 0-1.1-.1.4-1.5 1.2-4.7 1.5-5.7 0-.2-.1-.4-.4-.4h-.2c-.4.1-1.4.5-1.8.7l.2-2.4c.1-.6-.4-.6-.5-.1-.5 2.1-.7 4.9-2.2 5.8.1-1 1.1-8.4 1.2-9.4 0-.2 0-.4.3-.5.2-.1.4 0 .5.2l2.5 2.3c.1.1.3.2.4.1.1 0 .3-.2.3-.3l.3-2.8c0-.1 0-.2-.1-.3-.1-.1-.2-.1-.3-.1h-.4l.1-.9c.3-.1 1-.5 1.4-.5h.1c.2 0 .4.1.6.2.2.1.2.3.3.5l.4 4c0 .2.1.3.3.3.1 0 .3 0 .4-.1l2.5-2.3c.2-.2.3-.2.5-.2.3.1.3.3.3.5.1 1 1.1 8.4 1.2 9.4-1.5-.9-1.8-3.7-2.2-5.8-.1-.5-.6-.5-.5.1l.2 2.4c-.3-.1-1.4-.5-1.8-.7h-.2c-.3 0-.4.3-.4.4.3.9 1.1 4.1 1.5 5.6zM34.5 43.3c-.3.1-.9.1-1.1.1h-.2l-.6-2.9c-.2-.6-.6-.5-.6.1l.3 3c-.1.2-.5.9-.9.9s-.9-.7-.9-.9l.3-3c.1-.6-.4-.6-.5-.1l-.6 2.9h-.2c-.3 0-.9 0-1.1-.1.4-1.5 1.2-4.7 1.5-5.7 0-.2-.1-.4-.4-.4h-.2c-.4.1-1.4.5-1.8.7l.2-2.4c0-.6-.4-.6-.5-.1-.5 2.1-.7 4.9-2.2 5.8.1-1 1.1-8.4 1.2-9.4 0-.2 0-.4.3-.5.2-.1.4 0 .5.2l2.5 2.3c.1.1.3.2.4.1.1 0 .3-.2.3-.3l.3-2.8c0-.1 0-.2-.1-.3-.1-.1-.2-.1-.3-.1h-.4l.1-.9c.3-.1 1-.5 1.4-.5h.1c.2 0 .4.1.6.2.2.1.2.3.3.5l.4 4c0 .2.1.3.3.3.1 0 .3 0 .4-.1l2.5-2.3c.2-.2.3-.2.5-.2.3.1.3.3.3.5.1 1 1.1 8.4 1.2 9.4-1.5-.9-1.8-3.7-2.2-5.8-.1-.5-.6-.5-.5.1l.2 2.4c-.3-.1-1.4-.5-1.8-.7h-.2c-.3 0-.4.3-.4.4.4.9 1.2 4.1 1.6 5.6zM74.2 21.8c-.3.1-.9.2-1.2.2h-.2l-.6-3c-.1-.5-.5-.5-.5.1l.3 3c-.1.2-.5.9-.9.9s-.9-.7-.9-.9l.3-3c.1-.6-.4-.6-.5-.1l-.6 2.9h-.2c-.3 0-.9 0-1.1-.1.4-1.5 1.2-4.7 1.5-5.7 0-.2-.1-.4-.4-.4H69c-.4.1-1.4.5-1.8.7l.2-2.4c0-.6-.4-.6-.5-.1-.5 2.1-.7 4.9-2.2 5.8.1-1 1.1-8.4 1.2-9.4 0-.2 0-.4.3-.5.2-.1.4 0 .5.2l2.5 2.3c.1.1.3.2.4.1.1 0 .3-.2.3-.3l.3-2.8c0-.1 0-.2-.1-.3-.1-.1-.2-.1-.3-.1h-.4l.1-.9c.3-.1 1-.5 1.4-.5h.1c.2 0 .4.1.6.2.2.1.2.3.3.5l.4 4c0 .2.1.3.3.3.2 0 .3 0 .4-.1l2.5-2.3c.2-.2.3-.2.5-.2.3.1.3.3.3.5.1 1 1.1 8.4 1.2 9.4-1.5-.9-1.8-3.7-2.2-5.8-.1-.5-.6-.5-.5.1l.2 2.4c-.3-.1-1.4-.5-1.8-.7H73c-.3 0-.4.3-.4.4.3.9 1.2 4.2 1.6 5.6zM92.4 21.8c-.3.1-.9.1-1.1.1h-.2l-.7-2.9c-.1-.5-.5-.5-.5.1l.3 3c-.1.2-.5.9-.9.9s-.9-.7-.9-.9l.3-3c.1-.6-.4-.6-.5-.1l-.6 2.9h-.2c-.3 0-.9 0-1.1-.1.4-1.5 1.2-4.7 1.5-5.7 0-.2-.1-.4-.4-.4h-.2c-.4.1-1.4.5-1.8.7l.2-2.4c.1-.6-.4-.6-.5-.1-.5 2.1-.7 4.9-2.2 5.8.1-1 1.1-8.4 1.2-9.4 0-.2 0-.4.3-.5.2-.1.4 0 .5.2l2.5 2.3c.1.1.3.2.4.1.1 0 .3-.2.3-.3l.3-2.8c0-.1 0-.2-.1-.3-.1-.1-.2-.1-.3-.1h-.4l.1-.9c.3-.1 1-.5 1.4-.5h.1c.2 0 .4.1.6.2.2.1.2.3.3.5l.4 4c0 .2.1.3.3.3.1 0 .3 0 .4-.1l2.5-2.3c.2-.2.3-.2.5-.2.3.1.3.3.3.5.1 1 1.1 8.4 1.2 9.4-1.5-.9-1.8-3.7-2.2-5.8-.1-.5-.6-.5-.5.1l.2 2.4c-.3-.1-1.4-.5-1.8-.7h-.2c-.3 0-.4.3-.4.4.3.9 1.2 4.2 1.6 5.6zM74.2 43.3c-.3.1-.9.1-1.1.1h-.2l-.6-2.9c-.1-.5-.5-.5-.5.1l.3 3c-.1.2-.5.9-.9.9s-.9-.7-.9-.9l.3-3c.1-.6-.4-.6-.5-.1l-.6 2.9h-.2c-.3 0-.9 0-1.1-.1.4-1.5 1.2-4.7 1.5-5.7 0-.2-.1-.4-.4-.4h-.2c-.4.1-1.4.5-1.8.7l.2-2.4c0-.6-.4-.6-.5-.1-.5 2.1-.7 4.9-2.2 5.8.1-1 1.1-8.4 1.2-9.4 0-.2 0-.4.3-.5.2-.1.4 0 .5.2l2.5 2.3c.1.1.3.2.4.1.1 0 .3-.2.3-.3l.3-2.8c0-.1 0-.2-.1-.3-.1-.1-.2-.1-.3-.1h-.4l.1-.9c.3-.1 1-.5 1.4-.5h.1c.2 0 .4.1.6.2.2.1.2.3.3.5l.4 4c0 .2.1.3.3.3.2 0 .3 0 .4-.1l2.5-2.3c.2-.2.3-.2.5-.2.3.1.3.3.3.5.1 1 1.1 8.4 1.2 9.4-1.5-.9-1.8-3.7-2.2-5.8-.1-.5-.6-.5-.5.1l.2 2.4c-.3-.1-1.4-.5-1.8-.7h-.2c-.3 0-.4.3-.4.4.2.9 1.1 4.1 1.5 5.6zM92.4 43.3c-.3.1-.9.1-1.1.1h-.2l-.6-2.9c-.1-.5-.5-.5-.5.1l.3 3c-.1.2-.5.9-.9.9s-.9-.7-.9-.9l.3-3c.1-.6-.4-.6-.5-.1l-.6 2.9h-.2c-.3 0-.9 0-1.1-.1.4-1.5 1.2-4.7 1.5-5.7 0-.2-.1-.4-.4-.4h-.2c-.4.1-1.4.5-1.8.7l.2-2.4c.1-.6-.4-.6-.5-.1-.5 2.1-.7 4.9-2.2 5.8.1-1 1.1-8.4 1.2-9.4 0-.2 0-.4.3-.5.2-.1.4 0 .5.2l2.5 2.3c.1.1.3.2.4.1.1 0 .3-.2.3-.3l.3-2.8c0-.1 0-.2-.1-.3-.1-.1-.2-.1-.3-.1h-.4l.1-.9c.3-.1 1-.5 1.4-.5h.1c.2 0 .4.1.6.2.2.1.2.3.3.5l.4 4c0 .2.1.3.3.3.1 0 .3 0 .4-.1l2.5-2.3c.2-.2.3-.2.5-.2.3.1.3.3.3.5.1 1 1.1 8.4 1.2 9.4-1.5-.9-1.8-3.7-2.2-5.8-.1-.5-.6-.5-.5.1l.2 2.4c-.3-.1-1.4-.5-1.8-.7h-.2c-.3 0-.4.3-.4.4.2.9 1.1 4.1 1.5 5.6zM16.3 87c-.3.1-.9.1-1.1.1H15l-.6-2.9c-.1-.5-.5-.5-.5.1l.3 2.9c-.1.2-.5.9-.9.9s-.9-.7-.9-.9l.3-2.9c.1-.6-.4-.6-.5-.1l-.7 2.8h-.2c-.3 0-.9 0-1.1-.1.4-1.5 1.2-4.7 1.5-5.7 0-.2-.1-.4-.4-.4h-.2c-.4.1-1.4.5-1.8.7l.2-2.4c0-.6-.4-.6-.5-.1-.5 2.1-.7 4.9-2.2 5.8.1-1 1.1-8.4 1.2-9.4 0-.2 0-.4.3-.5.2-.1.4 0 .5.2l2.5 2.3c.1.1.3.2.4.1.1 0 .3-.2.3-.3l.3-2.8c0-.1 0-.2-.1-.3-.1 0-.2-.1-.3-.1h-.4l.1-.9c.3-.1 1-.5 1.4-.5h.1c.2 0 .4.1.6.2.2.1.2.3.3.5l.4 4c0 .2.1.3.3.3.1 0 .3 0 .4-.1l2.5-2.3c.2-.2.3-.2.5-.2.3.1.3.3.3.5.1 1 1.1 8.4 1.2 9.4-1.5-.9-1.8-3.7-2.2-5.8-.1-.5-.6-.5-.5.1l.2 2.4c-.3-.1-1.4-.5-1.8-.7h-.2c-.3 0-.4.3-.4.4.4 1 1.2 4.2 1.6 5.7zM34.5 87c-.3.1-.9.1-1.1.1h-.2l-.6-2.9c-.1-.5-.5-.5-.5.1l.3 2.9c-.1.2-.5.9-.9.9s-.9-.7-.9-.9l.3-2.9c.1-.6-.4-.6-.5-.1l-.7 2.8h-.2c-.3 0-.9 0-1.1-.1.4-1.5 1.2-4.7 1.5-5.7 0-.2-.1-.4-.4-.4h-.2c-.4.1-1.4.5-1.8.7l.2-2.4c0-.6-.4-.6-.5-.1-.5 2.1-.7 4.9-2.2 5.8.1-1 1.1-8.4 1.2-9.4 0-.2 0-.4.3-.5.2-.1.4 0 .5.2l2.5 2.3c.1.1.3.2.4.1.1 0 .3-.2.3-.3l.3-2.8c0-.1 0-.2-.1-.3-.1-.1-.2-.1-.3-.1h-.4l.1-.9c.3-.1 1-.5 1.4-.5h.1c.2 0 .4.1.6.2.2.1.2.3.3.5l.4 4c0 .2.1.3.3.3.1 0 .3 0 .4-.1l2.5-2.3c.2-.2.3-.2.5-.2.3.1.3.3.3.5.1 1 1.1 8.4 1.2 9.4-1.5-.9-1.8-3.7-2.2-5.8-.1-.5-.6-.5-.5.1l.2 2.4c-.3-.1-1.4-.5-1.8-.7h-.2c-.3 0-.4.3-.4.4.4 1 1.2 4.2 1.6 5.7zM16.3 108.4c-.3.1-.9.1-1.1.1H15l-.6-2.9c-.1-.5-.5-.5-.5.1l.3 2.9c-.1.2-.5.9-.9.9s-.9-.7-.9-.9l.3-2.9c.1-.6-.4-.6-.5-.1l-.6 2.9h-.2c-.3 0-.9 0-1.1-.1.4-1.5 1.2-4.7 1.5-5.7 0-.2-.1-.4-.4-.4h-.2c-.4.1-1.4.5-1.8.7l.2-2.4c.1-.6-.4-.6-.5-.1-.5 2.1-.7 4.9-2.2 5.8.1-1 1.1-8.4 1.2-9.4 0-.2 0-.4.3-.5.2-.1.4 0 .5.2l2.5 2.3c.1.1.3.2.4.1.1 0 .3-.2.3-.3l.3-2.8c0-.1 0-.2-.1-.3-.1-.1-.2-.1-.3-.1h-.4l.1-.9c.3-.1 1-.5 1.4-.5h.1c.2 0 .4.1.6.2.2.1.2.3.3.5l.4 4c0 .2.1.3.3.3.1 0 .3 0 .4-.1l2.5-2.3c.2-.2.3-.2.5-.2.3.1.3.3.3.5.1 1 1.1 8.4 1.2 9.4-1.5-.9-1.8-3.7-2.2-5.8-.1-.5-.6-.5-.5.1l.2 2.4c-.3-.1-1.4-.5-1.8-.7h-.2c-.3 0-.4.3-.4.4.3.9 1.1 4.1 1.5 5.6zM34.5 108.4c-.3.1-.9.1-1.1.1h-.2l-.6-2.9c-.1-.5-.5-.5-.5.1l.3 2.9c-.1.2-.5.9-.9.9s-.9-.7-.9-.9l.3-2.9c.1-.6-.4-.6-.5-.1l-.6 2.9h-.2c-.3 0-.9 0-1.1-.1.4-1.5 1.2-4.7 1.5-5.7 0-.2-.1-.4-.4-.4h-.2c-.4.1-1.4.5-1.8.7l.2-2.4c.1-.6-.4-.6-.5-.1-.5 2.1-.7 4.9-2.2 5.8.1-1 1.1-8.4 1.2-9.4 0-.2 0-.4.3-.5.2-.1.4 0 .5.2l2.5 2.3c.1.1.3.2.4.1.1 0 .3-.2.3-.3l.3-2.8c0-.1 0-.2-.1-.3-.1-.1-.2-.1-.3-.1h-.4l.1-.9c.3-.1 1-.5 1.4-.5h.1c.2 0 .4.1.6.2.2.1.2.3.3.5l.4 4c0 .2.1.3.3.3.2 0 .3 0 .4-.1l2.5-2.3c.2-.2.3-.2.5-.2.3.1.3.3.3.5.1 1 1.1 8.4 1.2 9.4-1.5-.9-1.8-3.7-2.2-5.8-.1-.5-.6-.5-.5.1l.2 2.4c-.3-.1-1.4-.5-1.8-.7h-.2c-.3 0-.4.3-.4.4.3.9 1.1 4.1 1.5 5.6zM74.2 87c-.3.1-.9.1-1.1.1h-.2l-.6-2.9c-.1-.5-.5-.5-.5.1l.3 2.9c-.1.2-.5.9-.9.9s-.9-.7-.9-.9l.3-2.9c.1-.6-.4-.6-.5-.1l-.8 2.8h-.2c-.3 0-.9 0-1.1-.1.4-1.5 1.2-4.7 1.5-5.7 0-.2-.1-.4-.4-.4h-.2c-.4.1-1.4.5-1.8.7l.2-2.4c0-.6-.4-.6-.5-.1-.5 2.1-.7 4.9-2.2 5.8.1-1 1.1-8.4 1.2-9.4 0-.2 0-.4.3-.5.2-.1.4 0 .5.2l2.5 2.3c.1.1.3.2.4.1.1 0 .3-.2.3-.3l.3-2.8c0-.1 0-.2-.1-.3 0 0-.1-.1-.2-.1h-.4l.1-.9c.3-.1 1-.5 1.4-.5h.1c.2 0 .4.1.6.2.2.1.2.3.3.5l.4 4c0 .2.1.3.3.3.2 0 .3 0 .4-.1l2.5-2.3c.2-.2.3-.2.5-.2.3.1.3.3.3.5.1 1 1.1 8.4 1.2 9.4-1.5-.9-1.8-3.7-2.2-5.8-.1-.5-.6-.5-.5.1l.2 2.4c-.3-.1-1.4-.5-1.8-.7H73c-.3 0-.4.3-.4.4.3 1 1.2 4.2 1.6 5.7zM92.4 87c-.3.1-.9.1-1.1.1h-.2l-.6-2.9c-.1-.5-.5-.5-.5.1l.3 2.9c-.1.2-.5.9-.9.9s-.9-.7-.9-.9l.3-2.9c.1-.6-.4-.6-.5-.1l-.8 2.8h-.2c-.3 0-.9 0-1.1-.1.4-1.5 1.2-4.7 1.5-5.7 0-.2-.1-.4-.4-.4h-.2c-.4.1-1.4.5-1.8.7l.2-2.4c.1-.6-.4-.6-.5-.1-.5 2.1-.7 4.9-2.2 5.8.1-1 1.1-8.4 1.2-9.4 0-.2 0-.4.3-.5.2-.1.4 0 .5.2l2.5 2.3c.1.1.3.2.4.1.1 0 .3-.2.3-.3l.3-2.8c0-.1 0-.2-.1-.3 0 0-.1-.1-.2-.1h-.4l.1-.9c.3-.1 1-.5 1.4-.5h.1c.2 0 .4.1.6.2.2.1.2.3.3.5l.4 4c0 .2.1.3.3.3.1 0 .3 0 .4-.1l2.5-2.3c.2-.2.3-.2.5-.2.3.1.3.3.3.5.1 1 1.1 8.4 1.2 9.4-1.5-.9-1.8-3.7-2.2-5.8-.1-.5-.6-.5-.5.1l.2 2.4c-.3-.1-1.4-.5-1.8-.7h-.2c-.3 0-.4.3-.4.4.3 1 1.2 4.2 1.6 5.7zM74.2 108.4c-.3.1-.9.1-1.1.1h-.2l-.6-2.9c-.1-.5-.5-.5-.5.1l.3 2.9c-.1.2-.5.9-.9.9s-.9-.7-.9-.9l.3-2.9c.1-.6-.4-.6-.5-.1l-.6 2.9h-.2c-.3 0-.9 0-1.1-.1.4-1.5 1.2-4.7 1.5-5.7 0-.2-.1-.4-.4-.4h-.2c-.4.1-1.4.5-1.8.7l.2-2.4c0-.6-.4-.6-.5-.1-.5 2.1-.7 4.9-2.2 5.8.1-1 1.1-8.4 1.2-9.4 0-.2 0-.4.3-.5.2-.1.4 0 .5.2l2.5 2.3c.1.1.3.2.4.1.1 0 .3-.2.3-.3l.3-2.8c0-.1 0-.2-.1-.3-.1-.1-.2-.1-.3-.1h-.4l.1-.9c.3-.1 1-.5 1.4-.5h.1c.2 0 .4.1.6.2.2.1.2.3.3.5l.4 4c0 .2.1.3.3.3.2 0 .3 0 .4-.1l2.5-2.3c.2-.2.3-.2.5-.2.3.1.3.3.3.5.1 1 1.1 8.4 1.2 9.4-1.5-.9-1.8-3.7-2.2-5.8-.1-.5-.6-.5-.5.1l.2 2.4c-.3-.1-1.4-.5-1.8-.7h-.2c-.3 0-.4.3-.4.4.2.9 1.1 4.1 1.5 5.6zM92.4 108.4c-.3.1-.9.1-1.1.1h-.2l-.6-2.9c-.1-.5-.5-.5-.5.1l.3 2.9c-.1.2-.5.9-.9.9s-.9-.7-.9-.9l.3-2.9c.1-.6-.4-.6-.5-.1l-.6 2.9h-.2c-.3 0-.9 0-1.1-.1.4-1.5 1.2-4.7 1.5-5.7 0-.2-.1-.4-.4-.4h-.2c-.4.1-1.4.5-1.8.7l.2-2.4c.1-.6-.4-.6-.5-.1-.5 2.1-.7 4.9-2.2 5.8.1-1 1.1-8.4 1.2-9.4 0-.2 0-.4.3-.5.2-.1.4 0 .5.2l2.5 2.3c.1.1.3.2.4.1.1 0 .3-.2.3-.3l.3-2.8c0-.1 0-.2-.1-.3-.1-.1-.2-.1-.3-.1h-.4l.1-.9c.3-.1 1-.5 1.4-.5h.1c.2 0 .4.1.6.2.2.1.2.3.3.5l.4 4c0 .2.1.3.3.3.1 0 .3 0 .4-.1l2.5-2.3c.2-.2.3-.2.5-.2.3.1.3.3.3.5.1 1 1.1 8.4 1.2 9.4-1.5-.9-1.8-3.7-2.2-5.8-.1-.5-.6-.5-.5.1l.2 2.4c-.3-.1-1.4-.5-1.8-.7h-.2c-.3 0-.4.3-.4.4.2.9 1.1 4.1 1.5 5.6z"></path></g></svg>